<?xml version="1.0" encoding="utf-8"?>
<!-- Generator: Adobe Illustrator 27.7.0, SVG Export Plug-In . SVG Version: 6.00 Build 0)  -->
<svg version="1.1" id="Camada_1" xmlns="http://www.w3.org/2000/svg" xmlns:xlink="http://www.w3.org/1999/xlink" x="0px" y="0px"
	 viewBox="0 0 230 230" style="enable-background:new 0 0 230 230;" xml:space="preserve">
<style type="text/css">
	.st0{fill:#989898;}
	.st1{fill:#FDFDFD;}
</style>
<circle class="st0" cx="115.1" cy="115.4" r="115"/>
<g>
	<path class="st1" d="M157.3,157.5c-2,0-4,0-5.9,0c-0.6,0-0.8-0.2-0.8-0.8c-0.1-1.5-0.2-3-0.3-4.5c-0.3-2.9-1.2-5.7-2.3-8.4
		c-1.3-3.2-3.1-6.1-5.2-8.7c-2.8-3.3-6-6.1-9.8-8.3c-3.4-2-7.1-3.4-11-4.1c-1.6-0.3-3.3-0.4-5-0.5c-1.6-0.1-3.1-0.1-4.7,0
		c-3,0.2-6,0.8-8.9,1.8c-3.8,1.3-7.3,3.3-10.5,5.8c-4.2,3.4-7.6,7.6-9.9,12.5c-1.5,3.1-2.5,6.4-3,9.8c-0.3,1.7-0.3,3.5-0.5,5.3
		c-2.1,0-4.3,0-6.5,0c0-1.2,0-2.3,0-3.5c0.1-0.2,0.1-0.3,0.2-0.5c0.2-1.4,0.2-2.8,0.5-4.1c0.7-2.6,1.4-5.2,2.3-7.7
		c1.9-4.9,4.7-9.3,8.4-13.1c1.8-1.8,3.7-3.5,5.7-5c2.5-2,5.3-3.6,8.3-4.8c0.9-0.4,1.8-0.8,2.6-1.1c-1.5-1.5-3.1-3-4.6-4.6
		c-1.8-1.9-3-4.3-4-6.7c-1.3-3.1-1.7-6.4-1.6-9.8c0.1-2.2,0.4-4.3,1.1-6.4c1.5-4.4,4-8.3,7.6-11.3c3-2.4,6.2-4.1,10-5
		c1-0.2,2-0.4,3.1-0.7c1.6,0,3.3,0,4.9,0c0.3,0.1,0.7,0.3,1,0.3c2.9,0.2,5.7,1.3,8.2,2.6c2.4,1.2,4.4,2.9,6.3,4.9
		c1.6,1.8,3,3.7,4,5.8c2.2,4.5,3,9.2,2.3,14.1c-0.4,2.6-1.1,5.1-2.3,7.5c-1.8,3.7-4.6,6.7-8,9.2c0.1,0.1,0.1,0.1,0.2,0.2
		c5.2,1.8,9.8,4.5,13.9,8.2c2.6,2.3,4.9,4.8,6.8,7.7c2.6,3.9,4.7,8.1,5.9,12.6c0.5,1.7,0.7,3.5,1,5.3c0.2,0.9,0.3,1.8,0.5,2.6
		C157.3,155.3,157.3,156.4,157.3,157.5z M97.3,97.6c-0.1,9.7,8.1,18.1,18.2,17.8c4.7-0.1,8.8-1.9,12.1-5.2c3.9-3.9,5.5-8.7,5.1-14.2
		c-0.4-4.2-2.1-7.9-5.1-10.8c-4-3.9-8.8-5.5-14.4-5.1C105,80.7,97.3,87.9,97.3,97.6z"/>
</g>
</svg>
