<?xml version="1.0" encoding="utf-8"?>
<!-- Generator: Adobe Illustrator 27.7.0, SVG Export Plug-In . SVG Version: 6.00 Build 0)  -->
<svg version="1.1" id="Camada_1" xmlns="http://www.w3.org/2000/svg" xmlns:xlink="http://www.w3.org/1999/xlink" x="0px" y="0px"
	 viewBox="0 0 230 230" style="enable-background:new 0 0 230 230;" xml:space="preserve">
<style type="text/css">
	.st0{fill:#3A4A99;}
	.st1{fill:#FFFFFF;}
</style>
<circle class="st0" cx="115.1" cy="115.4" r="115"/>
<g>
	<path class="st1" d="M85,168.2c-0.3-0.2-0.7-0.3-0.9-0.5c-0.8-0.6-1.4-1.3-1.4-2.5c0-16.5,0-33,0-49.5c0-0.2,0-0.3,0-0.3
		c2.8-0.7,5.4-1.3,8.1-2c0,0.3,0,0.7,0,1.1c0,14.7,0,29.3,0,44c0,1.6,1,2.9,2.4,3.1c1.5,0.2,3-0.9,3.3-2.5c0.1-0.4,0.1-0.8,0.1-1.2
		c0-15.9,0-31.8,0-47.7c0-0.5,0.3-1.1,0.6-1.5c2.9-2.9,4.9-6.3,5.9-10.2c0.2-0.6,0.3-1.2,0.4-1.9c0.4,0,0.9,0,1.4,0
		c0,0.4,0,0.8,0,1.2c0,20.3,0,40.5,0,60.8c0,1.5,1,2.9,2.4,3c1.5,0.2,3-0.8,3.3-2.4c0.1-0.5,0.1-1,0.1-1.5c0-20,0-39.9,0-59.9
		c0-0.4,0-0.8,0-1.3c2.8,0,5.5,0,8.4,0c0,0.4,0,0.8,0,1.2c0,20.1,0,40.1,0,60.2c0,1.3,0.1,2.5,1.3,3.3c1.7,1,3.9,0.1,4.4-2
		c0.1-0.5,0.1-1,0.1-1.5c0-19.9,0-39.8,0-59.8c0-0.4,0-0.8,0-1.3c0.4,0,0.8,0,1.1,0c0.7,2,1.3,3.9,2.1,5.8c1.1,2.5,2.7,4.6,4.6,6.5
		c0.4,0.4,0.6,0.8,0.6,1.5c0,16.1,0,32.1,0,48.2c0,1.5,1.1,2.8,2.4,3c1.5,0.2,2.9-0.9,3.3-2.4c0.1-0.5,0.1-1,0.1-1.5
		c0-14.4,0-28.8,0-43.1c0-0.4,0-0.8,0-1c2.7,0.6,5.3,1.3,8.1,1.9c0,0.1,0,0.5,0,0.9c0,15.9,0,31.8,0,47.7c0,2-0.6,3.4-2.5,4.2
		c-0.1,0-0.1,0-0.2,0c-0.3-0.1-0.6-0.2-0.9-0.2c-19.3,0-38.5,0-57.8,0c-0.3,0-0.6,0.1-0.9,0.2C85.1,168.2,85.1,168.2,85,168.2z"/>
	<path class="st1" d="M62.3,64.6c0.8-1.6,2.1-2,3.8-2c32.7,0,65.4,0,98.1,0c1.1,0,2.3,0.1,3,1.1c0.3,0.5,0.7,1.1,0.7,1.7
		c0,1.8,0,3.6-0.2,5.3c-0.2,1-1.2,1.6-2.3,1.8c-0.4,0.1-0.8,0-1.1,0c-32.8,0-65.5,0-98.3,0c-1.7,0-3-0.4-3.7-1.9
		C62.3,68.6,62.3,66.6,62.3,64.6z"/>
	<path class="st1" d="M85.2,168.2c0.3-0.1,0.6-0.2,0.9-0.2c19.3,0,38.5,0,57.8,0c0.3,0,0.6,0.1,0.9,0.2
		C125,168.2,105.1,168.2,85.2,168.2z"/>
	<path class="st1" d="M132.1,90.7c-11.4,0-22.7,0-34.1,0c0.1,0.8,0.3,1.5,0.2,2.2c-0.2,1.6-0.3,3.2-0.8,4.7c-1.4,4.8-4.5,8.2-9,10.2
		c-5.9,2.6-11.5,2-16.7-1.8c-3.4-2.5-5.4-5.9-6.3-9.9c-0.8-3.7-0.3-7.3,1.5-10.7c2.5-4.8,6.3-7.8,11.7-8.7c1.2-0.2,2.4-0.4,3.6-0.4
		c21.8,0,43.7,0,65.5,0c5.1,0,9.5,1.6,13,5.4c2.6,2.9,4.1,6.2,4.2,10.2c0.2,3.8-0.7,7.4-2.9,10.4c-2.7,3.7-6.3,6.1-11,6.8
		c-7.7,1.2-14.5-3-17.5-9.5c-1-2.2-1.5-4.4-1.4-6.8C132.1,92.2,132.1,91.5,132.1,90.7z M81.3,84c-5.5,0.1-8.9,4.2-8.9,9
		c0,4.6,3.4,8.7,8.6,9c4.6,0.2,9.9-3.7,9.2-10.2C90,87.9,86.5,83.9,81.3,84z M148.2,84c-4.8-0.1-8.5,4-8.7,8.5
		c-0.3,5.3,4.2,9.4,8.7,9.4c5.2,0,9.2-3.9,9.3-8.9C157.5,87.9,153.5,83.9,148.2,84z"/>
	<path class="st1" d="M81.4,96c-1.9,0-3-1.1-3.1-3c-0.1-1.7,1.4-3.3,3.1-3.2c1.8,0.1,3.1,1.3,3.1,3C84.6,94.8,83.5,96,81.4,96z"/>
	<path class="st1" d="M148.5,89.8c1.8,0,3.2,1.4,3.2,3.2c0,1.8-1.6,3.2-3.7,3.1c-1.3-0.1-2.7-1.4-2.7-3.2
		C145.3,91.1,146.6,89.8,148.5,89.8z"/>
</g>
</svg>
