<?xml version="1.0" encoding="utf-8"?>
<!-- Generator: Adobe Illustrator 27.7.0, SVG Export Plug-In . SVG Version: 6.00 Build 0)  -->
<svg version="1.1" id="Camada_1" xmlns="http://www.w3.org/2000/svg" xmlns:xlink="http://www.w3.org/1999/xlink" x="0px" y="0px"
	 viewBox="0 0 230 230" style="enable-background:new 0 0 230 230;" xml:space="preserve">
<style type="text/css">
	.st0{fill:#3A4A99;}
	.st1{fill:#FFFFFF;}
</style>
<circle class="st0" cx="115.1" cy="115.4" r="115"/>
<g>
	<path class="st1" d="M57.3,121.3c0.5-0.6,0.9-1.3,1.6-1.8c1.4-1.1,3.5-0.2,4.5,0.8c0.8,0.8,1.5,1.7,2.4,2.7
		c0.2-0.3,0.3-0.5,0.4-0.8c1.2-3.5,2.3-7.1,3.6-10.5c1.3-3.5,3.9-5.6,7.7-6c1-0.1,2-0.2,3-0.2c9.7,0,19.3,0,29,0
		c2,0,3.9,0.3,5.7,1.4c2.4,1.5,3.9,3.6,4.7,6.2c1,2.9,2,5.8,2.9,8.8c0.1,0.3,0.2,0.5,0.5,1.2c1-1.1,1.9-2.1,2.8-3.1
		c1.2-1.3,3.1-1.3,4.5-0.1c1.3,1.1,1.7,2.8,0.6,4.3c-1,1.3-2.2,2.5-3.4,3.7c2.6,2.2,4,5,4,8.6c0,8.7,0,17.4,0,26.1
		c0,1.8-0.3,3.5-1.1,5.1c-1.5,2.9-3.9,4.7-7.1,5.4c-0.1,0-0.2,0.1-0.3,0.2c-1.2,0-2.4,0-3.6,0c-0.1-0.1-0.2-0.2-0.3-0.2
		c-1.9-0.4-3.7-1.4-5-2.8c-2-2.1-3.1-4.7-2.8-7.7c0.1-0.9,0-1.8,0-2.7c-11.4,0-22.6,0-33.7,0c-0.1,1.5-0.2,3-0.3,4.4
		c-0.3,3.8-2.3,6.3-5.6,8c-0.9,0.4-1.9,0.7-2.8,1.1c-1.2,0-2.4,0-3.6,0c-0.1-0.1-0.2-0.2-0.3-0.2c-2.7-0.7-4.8-2.1-6.3-4.5
		c-0.6-1.1-1-2.3-1.5-3.4c0-10.3,0-20.6,0-30.9c0.7-2.3,1.7-4.5,3.7-6.1c-1.3-1.5-2.5-3-3.7-4.6C57.3,122.8,57.3,122,57.3,121.3z
		 M125,152.9c0-5.6,0.1-11.1,0-16.6c-0.1-2.7-1.4-3.6-3.9-3.6c-17.8,0-35.6,0-53.5,0c-2.2,0-3.5,1.4-3.5,3.5c0,5.4,0,10.8,0,16.1
		c0,0.2,0,0.4,0.1,0.6C84.4,152.9,104.7,152.9,125,152.9z M72.2,125.7c14.9,0,29.8,0,44.7,0c-1.3-3.8-2.5-7.5-3.8-11.3
		c-0.6-1.6-2-2.2-3.6-2.2c-10.1,0-20.2,0-30.2,0c-1.6,0-2.8,0.7-3.3,2.3C74.6,118.2,73.4,122,72.2,125.7z M64.1,159.7
		c0,1.2,0,2.3,0,3.4c0,0.1,0,0.2,0,0.3c0.1,1.5,1.4,2.8,2.8,3c1.4,0.2,3.4-0.9,3.6-2.2c0.3-1.5,0.3-3,0.4-4.5
		C68.6,159.7,66.4,159.7,64.1,159.7z M118.3,159.7c0,0.3,0,0.5,0,0.7c0,1,0,2,0,3c0.1,1.4,1.4,2.8,2.8,3c1.4,0.2,3.4-0.8,3.7-2.1
		c0.3-1.5,0.3-3.1,0.4-4.6C122.7,159.7,120.6,159.7,118.3,159.7z"/>
	<path class="st1" d="M141.3,173.2c-1.3-0.8-2.4-1.8-2.3-3.5c0.1-1.8,1.4-3.2,3.2-3.2c1.2,0,2.3,0,3.5,0c0-18.2,0-36.4,0-54.6
		c-0.4,0-0.8,0-1.1,0c-5.3,0-10.6,0-15.9,0c-1.8,0-3.2-1.4-3.2-3.2c0-15.9,0-31.8,0-47.7c0-1.8,1.3-3.1,3.1-3.2c0.3,0,0.6,0,0.9,0
		c13.1,0,26.3,0,39.4,0c2.6,0,4,1.4,4,4c0,15.4,0,30.8,0,46.3c0,2.3-1.8,4-4,4c-5.4-0.1-10.8,0-16.3,0c0,18.2,0,36.3,0,54.6
		c0.9,0,1.8,0,2.8,0c2.1,0,3.4,0.9,3.9,2.8c0.4,1.4-0.5,2.8-2.2,3.7c-0.1,0-0.1,0.1-0.2,0.2C151.7,173.2,146.5,173.2,141.3,173.2z
		 M132.3,64.4c0,13.6,0,27.1,0,40.5c11.3,0,22.5,0,33.7,0c0-13.5,0-27,0-40.5C154.8,64.4,143.6,64.4,132.3,64.4z"/>
	<path class="st1" d="M94.4,146.1c-2.3,0-4.5,0-6.8,0c-1.8,0-3.1-1.4-3.2-3.1c-0.2-2.1,1.4-3.7,3.1-3.7c4.7,0,9.3-0.1,14,0
		c2.2,0.1,3.2,1.8,3.3,3.4c0,1.8-1.6,3.3-3.4,3.3C99,146.1,96.7,146.1,94.4,146.1z"/>
	<path class="st1" d="M145.9,91.5c-0.1,1.6-0.1,3-0.4,4.4c-0.4,1.7-2.2,2.7-3.9,2.4c-1.3-0.3-2.6-1.8-2.6-3.3c0.1-6.8,0-13.7,0-20.5
		c0-1.8,1.4-3.2,3.2-3.2c2.3,0,4.6-0.1,6.9,0c4.7,0.2,8.6,2.8,9.8,7.6c0.8,3.1,0.3,6-1.7,8.6c-2.3,3-5.5,4.2-9.2,4.1
		C147.3,91.5,146.6,91.5,145.9,91.5z M145.8,77.8c0,1.3,0,2.4,0,3.5c0,1.1,0,2.2,0,3.5c1.6-0.1,3.1-0.1,4.5-0.4
		c1.3-0.3,2.3-2,2.2-3.2c-0.2-1.5-1.2-2.9-2.4-3C148.7,78,147.3,78,145.8,77.8z"/>
</g>
</svg>
