<?xml version="1.0" encoding="utf-8"?>
<!-- Generator: Adobe Illustrator 27.7.0, SVG Export Plug-In . SVG Version: 6.00 Build 0)  -->
<svg version="1.1" id="Camada_1" xmlns="http://www.w3.org/2000/svg" xmlns:xlink="http://www.w3.org/1999/xlink" x="0px" y="0px"
	 viewBox="0 0 230 230" style="enable-background:new 0 0 230 230;" xml:space="preserve">
<style type="text/css">
	.st0{fill:#989898;}
	.st1{fill:#EFEFF0;}
</style>
<circle class="st0" cx="115.1" cy="115.4" r="115"/>
<g>
	<path class="st1" d="M129.6,76.1c0-1.9,0-3.8,0-5.7c0-2.5,1.3-3.9,3.8-4c3-0.1,5.9-0.1,8.9,0c2.4,0.1,3.7,1.5,3.7,4
		c0,4.3,0,8.6,0,13c0,0.8,0.2,1.1,0.9,1.5c3.8,1.8,7.6,3.7,11.3,5.6c1.4,0.7,1.9,1.6,1.6,2.8c-0.3,1.3-1.6,2.1-2.9,1.7
		c-0.4-0.1-0.7-0.3-1-0.4c-4.2-2.1-8.5-4.2-12.7-6.2c-1.4-0.7-2-1.7-2-3.2c0-4.3,0-8.6,0-13c0-0.8-0.2-1.1-1-1
		c-1.7,0.1-3.4,0.1-5.1,0c-0.8,0-1,0.3-1,1c0,2.5,0,4.9,0,7.4c0,2.6-1.6,3.6-4,2.5c-4.8-2.3-9.7-4.7-14.5-7.1c-0.7-0.4-1.3-0.4-2,0
		c-13,6.4-26.1,12.8-39.2,19.2c-0.5,0.2-0.9,0.5-1.4,0.6c-1,0.3-2.1-0.1-2.6-1c-0.6-1-0.4-2.2,0.5-2.9c0.4-0.3,0.8-0.5,1.2-0.7
		c13.3-6.5,26.5-13,39.8-19.5c1.9-0.9,3.6-0.9,5.4,0c3.6,1.8,7.3,3.6,10.9,5.3C128.8,75.9,129.1,76.1,129.6,76.1z"/>
	<path class="st1" d="M115.3,164.5c-4,0-8,0-12.1,0c-3,0-4.7-1.6-4.7-4.7c0-3.4-0.2-6.9,0.2-10.3c0.6-5.4,5.3-9.7,10.8-9.9
		c3.9-0.1,7.9-0.1,11.9,0c5.8,0.2,10.5,5,10.7,10.9c0.1,3.3,0.1,6.5,0,9.8c0,2.5-1.8,4.2-4.3,4.2
		C123.6,164.5,119.4,164.5,115.3,164.5z M115.6,160.1c2.1,0,4.2,0,6.2,0c0.8,0,1-0.3,1-1c0-2.5,0-5,0-7.5c0-0.4,0-0.9,0.2-1.3
		c0.4-0.7,1-1.1,1.8-1c1,0.2,1.5,0.8,1.5,1.8c0,2.7,0,5.4,0,8.2c0,0.5,0,0.8,0.7,0.8c0.7,0,0.6-0.5,0.6-0.8c0-2.9,0-5.7,0-8.6
		c-0.1-3.8-3-6.5-6.8-6.6c-3.6,0-7.1,0-10.7,0c-4.1,0-7,3-7.1,7.1c0,2.6,0,5.2,0,7.9c0,0.7,0,1.1,0.9,1c0.8,0,1.1-0.2,1-1
		c-0.1-2.4,0-4.8,0-7.1c0-0.3,0-0.5,0-0.8c0.1-1.1,0.9-1.9,1.8-1.9c1,0,1.8,0.8,1.8,2c0,2.7,0,5.3,0,8c0,0.7,0.2,0.9,0.9,0.9
		C111.4,160,113.5,160.1,115.6,160.1z"/>
	<path class="st1" d="M97,112.6c3.1,0,5.6,0,8.1,0c2.9,0,5.6,0.8,8,2.3c1.2,0.8,1.6,2,0.9,3.1c-0.6,1.1-1.9,1.4-3.1,0.6
		c-2.2-1.4-4.5-1.8-7-1.7c-4.9,0.1-9.8,0-14.7,0.1c-4.8,0.1-9.1,4.4-9.5,9.2c-0.3,4.6-0.1,9.2-0.1,13.8c0,0.6,0.3,0.9,0.9,0.8
		c1.1-0.1,2.4,0.4,3.2-0.2c0.7-0.6,0.2-2,0.2-3c0-3.2,0-6.5,0-9.7c0-1.4,0.7-2.3,1.8-2.2c1.1,0,1.8,0.9,1.8,2.3c0,3.9,0,7.8,0,11.6
		c0,1,0.2,1.3,1.2,1.2c2.6-0.1,5.2-0.1,7.8,0c1.8,0,2.9,1.4,2.3,2.9c-0.3,0.9-1,1.4-2,1.4c-5.8,0-11.6,0.1-17.4,0
		c-2.2,0-4.2-2.1-4.2-4.3c0-4.9-0.2-9.9,0-14.8c0.3-6.5,6-12.5,12.4-13.4C91,112.4,94.3,112.8,97,112.6z"/>
	<path class="st1" d="M136.2,125.3c2.2,0,4.5,0,6.7,0c7.4,0,13.3,5.9,13.4,13.4c0,4,0,8,0,11.9c0,2.6-1.7,4.5-4.2,4.5
		c-4,0.1-8,0.1-11.9,0.1c-1.5,0-2.9,0-4.4-0.1c-1.1-0.1-1.9-1-1.9-2.1c0-1.1,0.9-2,2-2.1c0.3,0,0.6,0,0.9,0c2.7,0,5.4,0,8.1,0
		c0.8,0,1-0.2,1-1c0-3.4,0-6.7,0-10.1c0-1.7,0.6-2.6,1.8-2.6c1.2,0,1.8,0.9,1.8,2.6c0,3.4,0,6.8,0,10.2c0,0.7,0.2,0.9,0.9,0.9
		c1.7,0,1.7,0,1.7-1.7c0-3.8,0.1-7.6-0.1-11.4c-0.2-4-4-7.8-8-8c-5.1-0.2-10.1-0.1-15.2-0.1c-1,0-1.9-0.2-2.4-1.1
		c-0.4-0.7-0.4-1.5,0.1-2.2c0.5-0.8,1.2-1,2.1-1C131,125.3,133.6,125.3,136.2,125.3C136.2,125.3,136.2,125.3,136.2,125.3z"/>
	<path class="st1" d="M109,99c0,6.2-5.1,11.3-11.3,11.3c-6.1,0-11.3-5.1-11.3-11.2c0-6.2,5-11.3,11.2-11.4
		C103.8,87.7,109,92.8,109,99z M97.7,92.2c-3.8,0-6.8,3-6.8,6.8c0,3.8,3,6.9,6.8,6.9c3.8,0,6.9-3.1,6.9-6.9
		C104.6,95.3,101.5,92.2,97.7,92.2z"/>
	<path class="st1" d="M125.8,112.8c0-5.7,4.7-10.4,10.4-10.4c5.7,0,10.3,4.7,10.3,10.4c0,5.6-4.7,10.3-10.3,10.3
		C130.6,123.2,125.8,118.5,125.8,112.8z M136.2,106.9c-3.3,0-6,2.7-6,5.9c0,3.2,2.7,6,6,6c3.3,0,6-2.7,6-6
		C142.2,109.5,139.5,106.9,136.2,106.9z"/>
	<path class="st1" d="M115.5,138c-4.6,0-8.7-3.5-8.7-8.7c0-5.2,4.1-8.8,8.8-8.7c4.8,0,8.7,4,8.7,8.7
		C124.2,134.1,120.3,138,115.5,138z M119.8,129.3c0-2.4-1.9-4.4-4.3-4.3c-2.4,0-4.3,1.9-4.3,4.3c0,2.4,1.9,4.4,4.3,4.4
		C117.8,133.7,119.8,131.7,119.8,129.3z"/>
</g>
</svg>
