<?xml version="1.0" encoding="utf-8"?>
<!-- Generator: Adobe Illustrator 27.7.0, SVG Export Plug-In . SVG Version: 6.00 Build 0)  -->
<svg version="1.1" id="Camada_1" xmlns="http://www.w3.org/2000/svg" xmlns:xlink="http://www.w3.org/1999/xlink" x="0px" y="0px"
	 viewBox="0 0 230 230" style="enable-background:new 0 0 230 230;" xml:space="preserve">
<style type="text/css">
	.st0{fill:#989898;}
	.st1{fill:#FFFFFF;}
</style>
<circle class="st0" cx="115.1" cy="115.4" r="115"/>
<g>
	<path class="st1" d="M55.4,175.2c0-5.9,0-11.8,0-17.9c5.9,0,11.8,0,17.9,0c0-0.7,0-1.2,0-1.8c0-24.8,0-49.7,0-74.5
		c0-1.2,0.3-1.7,1.5-2c8.2-2.3,16.3-4.6,24.5-6.9c6.9-2,13.8-4,20.6-6c8.2-2.3,16.3-4.6,24.5-6.9c4.2-1.2,8.3-2.5,12.6-3.7
		c0,33.9,0,67.8,0,101.7c6,0,11.9,0,17.9,0c0,6.1,0,12,0,18C135,175.2,95.3,175.2,55.4,175.2z M97.1,85.6c-4,0-7.9,0-11.9,0
		c0,4,0,7.9,0,11.8c4,0,7.9,0,11.9,0C97.1,93.5,97.1,89.5,97.1,85.6z M133.1,97.4c4,0,7.9,0,11.8,0c0-4,0-7.9,0-11.9
		c-4,0-7.9,0-11.8,0C133.1,89.5,133.1,93.4,133.1,97.4z M97.1,145.4c0-4.1,0-8,0-11.9c-4,0-7.9,0-11.8,0c0,4,0,7.9,0,11.9
		C89.3,145.4,93.2,145.4,97.1,145.4z M133.1,133.5c0,4,0,7.9,0,11.8c4,0,7.9,0,11.8,0c0-4,0-7.9,0-11.8
		C141,133.5,137.1,133.5,133.1,133.5z M109.2,85.6c0,4,0,7.9,0,11.9c4,0,7.9,0,11.7,0c0-4,0-7.9,0-11.9
		C117,85.6,113.2,85.6,109.2,85.6z M85.3,121.3c4,0,7.9,0,11.8,0c0-4,0-7.9,0-11.8c-4,0-7.9,0-11.8,0
		C85.3,113.5,85.3,117.4,85.3,121.3z M133.1,121.3c4,0,7.9,0,11.8,0c0-4,0-7.9,0-11.8c-4,0-7.9,0-11.8,0
		C133.1,113.5,133.1,117.4,133.1,121.3z M109.2,145.3c4,0,7.8,0,11.8,0c0-4,0-7.9,0-11.9c-4,0-7.9,0-11.8,0
		C109.2,137.5,109.2,141.4,109.2,145.3z M121,121.4c0-4,0-7.9,0-11.8c-3.9,0-7.8,0-11.8,0c0,4,0,7.9,0,11.8
		C113.2,121.4,117.1,121.4,121,121.4z"/>
</g>
</svg>
