<?xml version="1.0" encoding="utf-8"?>
<!-- Generator: Adobe Illustrator 27.7.0, SVG Export Plug-In . SVG Version: 6.00 Build 0)  -->
<svg version="1.1" id="Camada_1" xmlns="http://www.w3.org/2000/svg" xmlns:xlink="http://www.w3.org/1999/xlink" x="0px" y="0px"
	 viewBox="0 0 230 230" style="enable-background:new 0 0 230 230;" xml:space="preserve">
<style type="text/css">
	.st0{fill:#3A4A99;}
	.st1{fill:#FFFFFF;}
</style>
<circle class="st0" cx="115.1" cy="115.4" r="115"/>
<g>
	<path class="st1" d="M77.8,73c0-2.7,1.9-4.7,4.4-5.1c2.8-0.4,4.9,1.4,5.8,5c3.3,0,6.7,0,10.1,0c0-1.5,0.5-2.8,1.7-3.7
		c0.8-0.6,1.9-1.2,3-1.3c2.8-0.3,4.5,1.2,5.7,5c4.4,0,8.9,0,13.4,0c0-1.5,0.5-2.8,1.6-3.7c0.8-0.6,1.9-1.2,3-1.3
		c2.9-0.3,4.5,1.3,5.7,5c3.3,0,6.7,0,10,0c0.2-3.1,2.1-4.7,4.5-5c2.8-0.3,4.7,1.3,5.8,5.1c1.6,0,3.2-0.1,4.8,0c2.1,0.1,3.9,1,4.7,3
		c0.3,0.7,0.5,1.5,0.5,2.3c0,24.1,0,48.3,0,72.4c0,3.1-2.1,5.1-4.8,5.4c-0.4,1.5-0.5,2.9-1.1,4.2c-0.8,1.7-2.3,2.5-4.2,2.5
		c-25,0-50,0-75,0c-2.4,0-4.6-2.3-4.7-4.7c0-0.7,0-1.3,0-2.1c-2.5-0.2-4.2-1.4-4.9-3.8c-0.1-0.3-0.1-0.7-0.1-1c0-24.5,0-49.1,0-73.6
		c0-2.5,2.2-4.7,4.8-4.8C74.2,73,76,73,77.8,73z M84.6,103.6c0,0.4,0,0.7,0,0.9c0,8.5,0,17,0,25.6c0,1.6,0.6,2.4,2.3,2.4
		c18.7,0,37.5,0,56.2,0c1.8,0,2.4-0.7,2.4-2.4c0-8.5,0-17,0-25.6c0-0.3,0-0.5-0.1-0.8C125.2,103.6,105,103.6,84.6,103.6z
		 M159.1,142.5c0-15.3,0-30.5,0-45.7c-1.1,0-2.2,0-3.3,0c0,1.9-0.1,3.8-1.6,5.2c-1.5,1.4-3.3,1.6-5.2,1.5c0,0.5,0,0.8,0,1.2
		c0,8.5,0,17,0,25.6c0,3.4-2.6,5.6-5.5,5.6c-18.9,0-37.9-0.1-56.8,0c-3,0-5.5-2.4-5.5-5.5c0.1-8.5,0.1-17,0.1-25.6
		c0-0.4,0-0.8,0-1.2c-2,0.2-3.9,0.1-5.3-1.4c-1.5-1.5-1.6-3.4-1.4-5.3c-1.2,0-2.3,0-3.3,0c0,15.3,0,30.5,0,45.7
		C100.5,142.5,129.7,142.5,159.1,142.5z M159.1,93.3c0-4.8,0-9.6,0-14.3c0-2-0.6-2.7-2.7-2.7c-20.3,0-40.7,0-61,0
		c-7.4,0-14.7,0-22.1,0c-1.7,0-2.2,0.5-2.2,2.2c0,4.6,0,9.2,0,13.8c0,0.3,0,0.6,0,0.9C100.5,93.3,129.7,93.3,159.1,93.3z M71.1,146
		c0,1.5,0.1,2.9,0,4.3c-0.1,1.7,0.5,2.5,2.5,2.5c27.7,0,55.4,0,83,0c0.2,0,0.4,0,0.6,0c0.9-0.1,1.6-0.4,1.7-1.3
		c0.2-1.8,0.2-3.6,0.3-5.4C129.7,146,100.5,146,71.1,146z M76.2,156.2c-0.2,2.6-0.1,3.4,3,3.4c24.1,0,48.1,0,72.2,0
		c0.3,0,0.7,0.1,0.9,0c0.5-0.3,1.2-0.7,1.5-1.2c0.3-0.6,0.2-1.4,0.3-2.1C128,156.2,102.2,156.2,76.2,156.2z M152.4,96.8
		c-25,0-49.8,0-74.5,0c-0.2,2.6-0.1,3.4,3,3.4c22.9-0.1,45.8,0,68.7,0c0.3,0,0.6,0,0.8,0c0.9-0.1,1.5-0.4,1.7-1.3
		C152.3,98.2,152.3,97.5,152.4,96.8z M145.6,73c1.1,0,2.2,0,3.3,0c-0.1-1.1-0.8-1.6-1.7-1.6C146.3,71.4,145.6,71.9,145.6,73z
		 M128.5,73c-0.2-1.1-0.9-1.8-1.8-1.7c-0.9,0.1-1.4,0.7-1.3,1.7C126.4,73,127.5,73,128.5,73z M104.8,73c-0.3-1.1-0.9-1.7-1.8-1.7
		c-0.9,0.1-1.4,0.6-1.4,1.7C102.7,73,103.7,73,104.8,73z M84.5,73c-0.2-1.1-0.9-1.8-1.7-1.6c-0.9,0.1-1.5,0.6-1.5,1.6
		C82.4,73,83.4,73,84.5,73z"/>
	<path class="st1" d="M84.5,73c-1.1,0-2.1,0-3.2,0"/>
	<path class="st1" d="M81.1,90c-2.6,0.2-5-2.4-5-5.1c0-2.7,2.2-5.1,4.9-5.1c3.2,0.1,5.2,2.2,5.2,5.1C86.3,87.8,84,90,81.1,90z
		 M79.6,84.8c0,1,0.6,1.7,1.5,1.8c0.9,0,1.9-0.9,1.9-1.7c0-0.8-0.9-1.6-1.7-1.7C80.3,83.1,79.6,83.9,79.6,84.8z"/>
	<path class="st1" d="M94.6,90c-2.5,0.1-5-2.3-4.9-5.2c0.1-2.7,2.2-5.1,4.9-5c3.2,0.1,5.2,2.1,5.3,5.1C99.9,87.7,97.5,90,94.6,90z
		 M93.1,84.8c0,1,0.6,1.7,1.5,1.7c0.8,0,1.8-0.8,1.8-1.6c0-0.8-0.9-1.7-1.7-1.7C93.9,83.2,93.1,83.9,93.1,84.8z"/>
	<path class="st1" d="M103.3,84.8c-0.1-2.7,2.2-5.1,4.9-5c3.2,0.1,5.2,2.1,5.3,5.1c0.1,2.9-2.3,5.1-5.2,5.1
		C105.7,90,103,87.6,103.3,84.8z M106.6,84.8c0,1,0.6,1.7,1.5,1.8c0.8,0,1.8-0.8,1.9-1.6c0.1-0.8-0.9-1.7-1.7-1.8
		C107.4,83.1,106.7,83.9,106.6,84.8z"/>
	<path class="st1" d="M116.8,84.9c-0.1-2.7,2.2-5.1,4.9-5.1c3.2,0.1,5.2,2.2,5.2,5.1c0,2.9-2.3,5-5.1,5.1
		C119.2,90.1,116.6,87.6,116.8,84.9z M121.7,86.6c0.8,0,1.8-0.9,1.8-1.7c0-0.8-0.9-1.7-1.8-1.7c-0.9,0-1.6,0.7-1.6,1.7
		C120.2,85.8,120.8,86.6,121.7,86.6z"/>
	<path class="st1" d="M143.9,84.9c-0.2-2.8,2.2-5.2,4.9-5.1c3.2,0.1,5.2,2.1,5.2,5.1c0,2.9-2.3,5-5.1,5.1
		C146.3,90.1,143.7,87.6,143.9,84.9z M147.3,84.9c0,1,0.7,1.7,1.5,1.7c0.8,0,1.8-0.9,1.8-1.7c0-0.8-0.9-1.8-1.8-1.7
		C147.9,83.3,147.3,83.8,147.3,84.9z"/>
	<path class="st1" d="M130.3,84.8c-0.1-2.7,2.2-5.1,4.8-5c3.2,0.1,5.2,2.1,5.3,5c0.1,2.9-2.3,5.1-5.2,5.1
		C132.8,90.1,130.1,87.6,130.3,84.8z M133.7,84.8c0,1,0.6,1.7,1.5,1.7c0.8,0,1.8-0.8,1.9-1.6c0.1-0.8-0.9-1.7-1.7-1.7
		C134.5,83.1,133.8,83.9,133.7,84.8z"/>
</g>
</svg>
