<?xml version="1.0" encoding="utf-8"?>
<!-- Generator: Adobe Illustrator 27.7.0, SVG Export Plug-In . SVG Version: 6.00 Build 0)  -->
<svg version="1.1" id="Camada_1" xmlns="http://www.w3.org/2000/svg" xmlns:xlink="http://www.w3.org/1999/xlink" x="0px" y="0px"
	 viewBox="0 0 230 230" style="enable-background:new 0 0 230 230;" xml:space="preserve">
<style type="text/css">
	.st0{fill:#989898;}
	.st1{fill:#EFEFF0;}
</style>
<circle class="st0" cx="115.1" cy="115.4" r="115"/>
<g>
	<path class="st1" d="M125.4,145.9c3.4-0.8,5.8-3.6,5.8-7c0.1-4,0.1-8,0-12c-0.1-5.6-4.6-10-10.2-10.1c-3.9-0.1-7.8-0.1-11.7,0
		c-5.8,0.1-10.2,4.5-10.3,10.3c-0.1,3.9,0,7.8,0,11.6c0,3.6,2.6,6.6,5.9,7.1c0-0.3,0-0.7,0-1c0-7.1,0-14.2,0-21.3c0-0.7,0.1-1,0.9-1
		c2,0.1,2,0,2,2c0,11.2,0,22.5,0,33.7c0,0.8-0.2,1-1,1c-1.9-0.1-1.9,0-1.9-2c0-2.5,0-5,0-7.5c0-0.6-0.1-1-0.8-1.1
		c-1.2-0.2-2.4-0.8-3.5-1.5c-0.2,0.3-0.1,0.6-0.1,0.9c0,3.4,0,6.8,0,10.2c0,0.7-0.1,1-0.9,0.9c-2.1,0-2.1,0-2.1-2.1
		c0-4.1,0-8.2,0-12.3c0-0.5-0.1-1-0.3-1.5c-0.8-1.5-1.1-3-1.1-4.7c0-3.8,0-7.7,0-11.5c0-1.4,0.2-2.7,0.6-4c0.1-0.4,0.1-0.6-0.4-0.6
		c-4.4,0.1-8.9-0.3-13.3,0.2c-5,0.5-8.8,4.8-8.9,10c-0.1,3,0,6,0,9c0.1,3.5,2.5,6.5,5.9,7c0-0.3,0-0.7,0-1c0-6.1,0-12.2,0-18.3
		c0-0.7,0.1-1,0.9-1c2,0.1,2,0,2,2.1c0,9.3,0,18.5,0,27.8c0,0.8-0.2,1-1,1c-2-0.1-2,0-2-2c0-1.6,0-3.2,0-4.8c0-0.5,0-0.7-0.6-0.9
		c-4.8-1-8.2-5.2-8.2-10.1c0-3,0-6,0-9c0-7,5.9-12.9,12.9-13c4.2,0,8.3-0.1,12.5,0.1c1.3,0,2-0.3,2.7-1.3c2.6-3.1,6-4.7,10.1-4.7
		c3.9,0,7.9,0,11.8,0c4.2,0,7.7,1.8,10.3,5.1c0.5,0.6,0.9,1,1.7,0.7c0.3-0.1,0.7,0,1.1,0c3.9,0,7.9,0,11.8,0
		c7.2,0,13.1,5.9,13.1,13.1c0,3,0,5.9,0,8.9c0,4.8-3.4,9-8.1,10c-0.7,0.1-0.7,0.4-0.7,1c0,2,0,3.9,0,5.9c0,0.6-0.2,0.8-0.8,0.8
		c-2.2,0-2.2,0-2.2-2.2c0-9.2,0-18.5,0-27.7c0-0.7,0.1-1,0.9-1c2,0.1,2,0,2,2.1c0,5.7,0,11.5,0,17.2c0,0.3,0,0.7,0,1
		c3.1-0.5,5.6-3.1,5.8-6.5c0.2-3.6,0.3-7.2-0.1-10.7c-0.6-5-4.7-8.8-9.7-8.9c-4-0.1-8.1,0-12.1,0c-0.7,0-0.7,0.3-0.5,0.8
		c0.4,1.2,0.5,2.4,0.5,3.7c0,3.9,0,7.8,0,11.6c0,1.7-0.4,3.2-1.1,4.7c-0.2,0.5-0.3,0.9-0.3,1.4c0,4.5,0,9,0,13.6
		c0,0.7-0.1,1-0.9,0.9c-2.1,0-2.1,0-2.1-2.1c0-3.3,0-6.5,0-9.9c-1.1,0.6-2.2,1.3-3.4,1.4c-0.9,0.1-1.1,0.5-1,1.4
		c0.1,2.8,0,5.6,0,8.3c0,0.6-0.1,0.9-0.8,0.9c-2.1,0-2.1,0-2.1-2.2c0-11.2,0-22.4,0-33.5c0-0.8,0.2-1,1-1c2,0.1,2,0,2,1.9
		c0,6.8,0,13.5,0,20.3C125.4,145.2,125.4,145.5,125.4,145.9z"/>
	<path class="st1" d="M115.1,71.3c4.9,0,8.8,3.9,8.8,8.8c0,4.9-3.9,8.8-8.8,8.8c-4.9,0-8.8-3.9-8.8-8.8
		C106.3,75.2,110.2,71.3,115.1,71.3z M115.1,74.3c-3.2,0-5.8,2.7-5.8,5.8c0,3.2,2.7,5.9,5.9,5.9c3.2,0,5.8-2.7,5.8-5.8
		C121,77,118.3,74.3,115.1,74.3z"/>
	<path class="st1" d="M107.8,91.9c0,4.9-3.9,8.8-8.9,8.8c-4.8,0-8.7-4-8.7-8.8c0-4.9,3.9-8.8,8.9-8.8
		C103.9,83.1,107.8,87,107.8,91.9z M93.1,91.8c0,3.2,2.6,5.8,5.8,5.9c3.2,0.1,5.9-2.6,6-5.8c0-3.2-2.6-5.8-5.8-5.9
		C95.9,85.9,93.2,88.6,93.1,91.8z"/>
	<path class="st1" d="M122.4,91.9c0-4.9,3.9-8.8,8.8-8.8c4.9,0,8.8,3.9,8.8,8.8c0,4.9-3.9,8.8-8.8,8.8
		C126.3,100.7,122.4,96.7,122.4,91.9z M137.1,91.9c0-3.2-2.6-5.8-5.8-5.9c-3.2,0-5.9,2.7-5.9,5.9c0,3.2,2.6,5.8,5.8,5.9
		C134.4,97.8,137.1,95.1,137.1,91.9z"/>
	<path class="st1" d="M106.3,103.6c0-4.9,3.9-8.8,8.8-8.8c4.9,0,8.7,3.9,8.7,8.8c0,4.9-3.9,8.8-8.8,8.8
		C110.2,112.4,106.3,108.5,106.3,103.6z M115.1,109.5c3.2,0,5.8-2.6,5.9-5.8c0-3.2-2.6-5.9-5.8-5.9c-3.2,0-5.8,2.6-5.9,5.8
		C109.2,106.7,111.9,109.5,115.1,109.5z"/>
	<path class="st1" d="M81.4,109.5c0-4.9,3.9-8.8,8.8-8.8c4.9,0,8.8,3.9,8.8,8.8c0,4.9-3.9,8.8-8.8,8.8
		C85.3,118.3,81.4,114.3,81.4,109.5z M84.3,109.4c0,3.2,2.6,5.8,5.8,5.9c3.2,0.1,5.9-2.6,6-5.8c0-3.2-2.6-5.8-5.8-5.9
		C87.1,103.5,84.3,106.2,84.3,109.4z"/>
	<path class="st1" d="M140,100.7c4.9,0,8.8,3.9,8.8,8.8c0,4.9-3.9,8.8-8.8,8.8c-4.9,0-8.8-3.9-8.8-8.8
		C131.2,104.6,135.2,100.7,140,100.7z M145.9,109.6c0.1-3.1-2.5-5.8-5.7-5.9c-3.2-0.1-5.9,2.6-6,5.8c-0.1,3.2,2.6,5.9,5.8,5.9
		C143.2,115.4,145.8,112.7,145.9,109.6z"/>
	<path class="st1" d="M113.6,153.4c0-1.7,0-3.4,0-5.1c0-0.6,0.2-0.7,0.7-0.7c2.2,0,2.2,0,2.2,2.2c0,2.9,0,5.9,0,8.8
		c0,0.6-0.2,0.8-0.8,0.8c-2.2,0-2.2,0-2.2-2.2C113.6,155.9,113.6,154.7,113.6,153.4z"/>
	<path class="st1" d="M91.6,156.5c0,0.2,0,0.5,0,0.7c0,2.4-0.1,2.4-2.5,2.1c-0.4,0-0.5-0.2-0.4-0.5c0-1.6,0-3.2,0-4.8
		c0-0.4,0.1-0.5,0.5-0.5c2.4-0.2,2.4-0.2,2.4,2.2C91.6,155.9,91.6,156.2,91.6,156.5z"/>
	<path class="st1" d="M141.5,156.5c0,0.8,0,1.5,0,2.3c0,0.5-0.2,0.6-0.6,0.6c-2.3,0.1-2.3,0.1-2.3-2.2c0-1,0-2,0-3
		c0-0.5,0.2-0.6,0.7-0.7c2.3,0,2.3-0.1,2.3,2.2C141.5,155.9,141.5,156.2,141.5,156.5z"/>
</g>
</svg>
