<?xml version="1.0" encoding="utf-8"?>
<!-- Generator: Adobe Illustrator 27.7.0, SVG Export Plug-In . SVG Version: 6.00 Build 0)  -->
<svg version="1.1" id="Camada_1" xmlns="http://www.w3.org/2000/svg" xmlns:xlink="http://www.w3.org/1999/xlink" x="0px" y="0px"
	 viewBox="0 0 230 230" style="enable-background:new 0 0 230 230;" xml:space="preserve">
<style type="text/css">
	.st0{fill:#989898;}
	.st1{fill:#FFFFFF;}
</style>
<circle class="st0" cx="115.1" cy="115.4" r="115"/>
<g>
	<path class="st1" d="M82.3,178c0-29.9,0-59.9,0-89.8c0-0.5,0-1,0-1.5c21.8,0,43.6,0,65.5,0c0,30.4,0,60.9,0,91.3c-7,0-14,0-21,0
		c0-0.1,0-0.2-0.1-0.2c0-6.6,0-13.2,0-19.9c-7.8,0-15.6,0-23.4,0c0,6.7,0,13.3,0,19.9c0,0.1,0,0.2-0.1,0.3
		C96.4,178,89.4,178,82.3,178z M100.2,94.4c-2.4,0-4.7,0-7.1,0c-0.1,0.1-0.2,0.1-0.3,0.2c0,2.5,0,5,0,7.5c2.6,0,5.1,0,7.6,0
		c0-2.6,0-5,0-7.5C100.4,94.6,100.3,94.5,100.2,94.4z M137.1,94.4c-2.5,0-4.9,0-7.4,0c0,2.6,0,5.2,0,7.7c2.6,0,5.1,0,7.6,0
		c0-2.6,0-5,0-7.5C137.3,94.6,137.2,94.5,137.1,94.4z M137.4,110.1c-2.6,0-5.2,0-7.7,0c0,2.6,0,5.1,0,7.6c2.6,0,5.1,0,7.7,0
		C137.4,115.1,137.4,112.7,137.4,110.1z M92.8,117.8c2.6,0,5.1,0,7.6,0c0-2.6,0-5.1,0-7.7c-2.6,0-5.1,0-7.6,0
		C92.8,112.7,92.8,115.2,92.8,117.8z M92.8,125.7c0,2.6,0,5.1,0,7.7c2.6,0,5.1,0,7.6,0c0-2.6,0-5.1,0-7.7
		C97.9,125.7,95.4,125.7,92.8,125.7z M129.7,148.9c2.6,0,5.1,0,7.6,0c0-2.6,0-5.1,0-7.6c-2.6,0-5.1,0-7.6,0
		C129.7,143.8,129.7,146.3,129.7,148.9z M92.8,141.2c0,2.6,0,5.1,0,7.6c2.6,0,5.1,0,7.7,0c0-2.6,0-5.1,0-7.6
		C97.9,141.2,95.4,141.2,92.8,141.2z M137.4,125.7c-2.6,0-5.2,0-7.7,0c0,2.6,0,5.1,0,7.6c2.6,0,5.1,0,7.7,0
		C137.4,130.7,137.4,128.3,137.4,125.7z"/>
	<path class="st1" d="M54.5,125.5c3.7-0.9,7.3-1.8,11-2.7c3-0.7,6-1.5,9.1-2.3c0,0.5,0,1,0,1.4c0,18.2,0,36.3,0,54.5
		c0,0.4,0,0.9,0,1.3c0,0.1,0,0.2-0.1,0.3c-6.8,0-13.5,0-20.3,0c0-17,0-34,0-51c0-0.4,0-0.9,0-1.3C54.3,125.6,54.4,125.5,54.5,125.5z
		"/>
	<path class="st1" d="M155.6,177.7c0-12.1,0-24.1,0-36.2c0-0.4,0-0.9,0-1.5c1.3,0.2,2.5,0.4,3.7,0.6c2.3,0.4,4.6,0.8,6.9,1.2
		c3,0.5,6,1,9,1.5c0.2,0,0.3,0,0.5,0c0.1,0.1,0.1,0.2,0.2,0.2c0,8.5,0,17,0,25.6c0,3,0,5.9,0,8.9c-6.8,0-13.5,0-20.3,0
		C155.7,177.9,155.6,177.8,155.6,177.7z"/>
	<path class="st1" d="M107.8,81.1c-2.4,0-4.9,0-7.5,0c0-0.5,0-0.9,0-1.3c0-8.6,0-17.1,0-25.7c0-0.4-0.1-0.9-0.1-1.3
		c2.6,0,5.2,0,7.8,0c0,3,0,6,0,9c4.3,0,8.5,0,12.7,0c0-3,0-6,0-9c2.6,0,5.2,0,7.8,0c0,0.1,0,0.2,0.1,0.2c0,8.8,0,17.6,0,26.4
		c0,0.5,0,1,0,1.5c-0.1,0.1-0.1,0.1-0.2,0.2c-2.5,0-4.9,0-7.6,0c0-3.8,0-7.5,0-11.2c-0.1-0.1-0.2-0.1-0.2-0.2c-4.1,0-8.2,0-12.5,0
		c0,3.8,0,7.5,0,11.2C107.9,81,107.8,81.1,107.8,81.1z"/>
	<path class="st1" d="M111.2,178c0-4.1,0-8.2,0-12.4c2.6,0,5.1,0,7.8,0c0,4.1,0,8.2,0,12.4C116.4,178,113.8,178,111.2,178z"/>
	<path class="st1" d="M128.6,53.1c0-0.1,0-0.2-0.1-0.2c0.1,0,0.2,0,0.2,0C128.7,52.9,128.7,53,128.6,53.1z"/>
	<path class="st1" d="M74.5,178c0-0.1,0-0.2,0.1-0.3c0.1,0.1,0.1,0.2,0.2,0.3C74.7,178,74.6,178,74.5,178z"/>
	<path class="st1" d="M103.4,177.7c0.1,0.1,0.1,0.2,0.2,0.3c-0.1,0-0.2,0-0.2,0C103.4,177.9,103.4,177.8,103.4,177.7z"/>
	<path class="st1" d="M126.6,178c0.1-0.1,0.1-0.2,0.2-0.2c0,0.1,0,0.2,0.1,0.2C126.8,178,126.7,178,126.6,178z"/>
	<path class="st1" d="M155.6,177.7c0,0.1,0,0.2,0.1,0.3c-0.1,0-0.2,0-0.2,0C155.5,177.9,155.6,177.8,155.6,177.7z"/>
	<path class="st1" d="M128.3,81.1c0.1-0.1,0.1-0.1,0.2-0.2C128.5,81,128.4,81.1,128.3,81.1z"/>
	<path class="st1" d="M54.5,125.5c-0.1,0.1-0.1,0.1-0.2,0.2C54.3,125.6,54.4,125.5,54.5,125.5z"/>
	<path class="st1" d="M107.8,81.1c0.1-0.1,0.2-0.1,0.2-0.2C107.9,81,107.8,81.1,107.8,81.1z"/>
	<path class="st1" d="M175.9,143.5c-0.1-0.1-0.1-0.2-0.2-0.2C175.8,143.4,175.9,143.4,175.9,143.5z"/>
	<path class="st1" d="M120.5,69.7c0.1,0.1,0.2,0.1,0.2,0.2C120.6,69.9,120.6,69.8,120.5,69.7z"/>
	<path class="st1" d="M100.5,94.6c-0.1-0.1-0.2-0.1-0.3-0.2C100.3,94.5,100.4,94.6,100.5,94.6z"/>
	<path class="st1" d="M137.4,94.6c-0.1-0.1-0.2-0.1-0.3-0.2C137.2,94.5,137.3,94.6,137.4,94.6z"/>
	<path class="st1" d="M93.1,94.4c-0.1,0.1-0.2,0.1-0.3,0.2C92.9,94.6,93,94.5,93.1,94.4z"/>
</g>
</svg>
