<?xml version="1.0" encoding="utf-8"?>
<!-- Generator: Adobe Illustrator 27.7.0, SVG Export Plug-In . SVG Version: 6.00 Build 0)  -->
<svg version="1.1" id="Camada_1" xmlns="http://www.w3.org/2000/svg" xmlns:xlink="http://www.w3.org/1999/xlink" x="0px" y="0px"
	 viewBox="0 0 230 230" style="enable-background:new 0 0 230 230;" xml:space="preserve">
<style type="text/css">
	.st0{fill:#989898;}
	.st1{fill:#FFFFFF;}
</style>
<circle class="st0" cx="115.1" cy="115.4" r="115"/>
<g>
	<path class="st1" d="M156.4,169.7c-27.6,0-55.3,0-82.9,0c-0.1-0.1-0.1-0.2-0.2-0.2c-2.2-0.5-4.5-3.3-4.3-5.8c0.1-1.4,0-2.8,0-4.2
		c0-30.7,0-61.3,0-92c0-0.7,0-1.3,0.2-1.9c0.6-2.4,2.3-3.6,4.5-4.4c27.6,0,55.3,0,82.9,0c0.1,0.1,0.2,0.2,0.3,0.2
		c2.9,1,4.4,3.2,4.4,6.2c0,31.9,0,63.9,0,95.8c0,0.9-0.2,1.9-0.5,2.7C160,168.1,158.3,169,156.4,169.7z M157.6,86.6
		c-0.4,0-0.8,0-1.3,0c-24,0-47.9,0-71.9,0c-0.4,0-0.8,0-1.3,0c-0.9-0.1-1.5-0.8-1.5-1.7c0-0.9,0.6-1.6,1.5-1.7c0.4,0,0.8,0,1.2,0
		c24.1,0,48.2,0,72.2,0c0.4,0,0.8,0,1.3,0c0-5.2,0-10.2,0-15.2c0-2.5-0.9-3.4-3.4-3.4c-26.4,0-52.7,0-79.1,0c-1.7,0-3.1,1.3-3,3
		c0.1,4.9,0,9.9,0,14.8c0,0.3,0,0.5,0.1,0.8c1.4,0,2.8-0.1,4.1,0c1.5,0.1,1.8,0.9,1.8,1.7c0,1-0.7,1.6-1.9,1.6c-1.3,0-2.7,0-4.1,0
		c0,0.4,0,0.8,0,1.1c0,25,0,50.1,0,75.1c0,2.3,1.2,3.5,3.4,3.5c26.2-0.1,52.3,0,78.5,0c2.4,0,3.6-0.8,3.6-3.6c0-24.9,0-49.8,0-74.7
		c0-0.4,0-0.8,0-1.2C157.8,86.7,157.7,86.7,157.6,86.6z"/>
	<path class="st1" d="M157.8,86.8c-0.1-0.1-0.1-0.1-0.2-0.2C157.7,86.7,157.8,86.7,157.8,86.8z"/>
	<path class="st1" d="M117.3,94.1c6-0.2,13.4,2.8,19.6,8.5c5.9,5.5,9.4,12.3,10.1,20.4c0.9,9.2-1.7,17.5-7.8,24.4
		c-6.1,6.9-13.8,10.7-23.2,11c-9.8,0.3-18-3.2-24.6-10.3c-5.1-5.4-8-11.9-8.5-19.4c-0.6-9.3,2.1-17.5,8.5-24.4
		C97.8,97.6,105.5,94.2,117.3,94.1z M115,97.6c-15.3-0.5-29.5,13-28.6,30.3c0.7,14.1,12.6,27.2,28.7,27.1c8.7-0.1,16-3.5,21.7-10
		c5.4-6.1,7.5-13.4,6.9-21.5C142.7,110.5,131.2,97.3,115,97.6z"/>
	<path class="st1" d="M91.7,78.9c-4.7,0-9.4,0-14.2,0c-1.2,0-1.8-0.6-1.8-1.8c0-2.3,0-4.5,0-6.8c0-1,0.6-1.6,1.6-1.6
		c9.5,0,19.1,0,28.6,0c1.1,0,1.9,0.8,1.9,1.9c0,2.1,0,4.2,0,6.2c0,1.3-0.8,2-2.1,2C101.1,78.9,96.4,78.9,91.7,78.9z M79.2,75.5
		c8.5,0,16.9,0,25.3,0c0-1.1,0-2.2,0-3.3c-8.5,0-16.9,0-25.3,0C79.2,73.3,79.2,74.4,79.2,75.5z"/>
	<path class="st1" d="M137.3,73.9c0.6,3.3-3.2,6.8-6.6,6.8c-3.9,0-6.9-3.2-6.8-6.9c0.1-3.7,2.9-6.7,6.8-6.8
		C134.2,67,137.9,70.4,137.3,73.9z M134,73.9c0.3-1.7-1.5-3.4-3.4-3.4c-1.6,0-3.1,1.6-3.2,3.3c-0.1,1.7,1.6,3.5,3.2,3.5
		C132.3,77.2,134.3,75.6,134,73.9z"/>
	<path class="st1" d="M154.3,73.9c0.6,3.3-3.2,6.8-6.6,6.8c-3.9,0-6.9-3.2-6.9-6.8c0-3.7,2.8-6.7,6.8-6.8
		C151.1,67,154.8,70.4,154.3,73.9z M150.9,73.9c0.3-1.7-1.5-3.4-3.4-3.4c-1.6,0-3.1,1.6-3.2,3.3c-0.1,1.7,1.6,3.5,3.2,3.5
		C149.3,77.2,151.2,75.6,150.9,73.9z"/>
	<path class="st1" d="M113.6,72.2c1.8,0,3.5,0,5.3,0c0.1,0.1,0.2,0.1,0.2,0.2c0.9,0.2,1.3,0.9,1.2,1.7c-0.1,1-0.7,1.5-1.7,1.5
		c-1.5,0-3.1,0-4.6,0c-0.9,0-1.7-0.3-1.9-1.3c-0.3-1.1,0-1.6,1.2-2.1C113.5,72.2,113.6,72.2,113.6,72.2z"/>
	<path class="st1" d="M113.6,72.2c-0.1,0-0.1,0-0.2,0C113.5,72.2,113.6,72.2,113.6,72.2z"/>
	<path class="st1" d="M119.2,72.4c-0.1-0.1-0.2-0.1-0.2-0.2C119,72.3,119.1,72.3,119.2,72.4z"/>
	<path class="st1" d="M92.9,127.4c4.3-1.5,8.3-2.1,12.5-1.8c4.3,0.3,8.5,1.5,12.6,3c2.9,1,5.8,1.8,8.9,2.1c3.2,0.4,6.2-0.2,9.3-0.7
		c0.3-0.1,0.8-0.7,0.8-1.1c0.4-4.8-0.2-9.4-2.7-13.5c-0.6-1-1.3-2-2.1-3c-0.8-1-0.8-2.1-0.1-2.8c0.7-0.6,1.8-0.5,2.6,0.5
		c2,2.4,3.4,5,4.5,8c0.9,2.8,1.4,5.6,1.4,8.4c-0.1,5.7-1.8,11-5.5,15.5c-3.6,4.4-8.1,7.4-13.6,8.9c-3.1,0.8-6.2,1.1-9.3,0.7
		c-5.1-0.5-9.6-2.6-13.5-5.9c-4.8-4-7.6-9.2-8.6-15.2c-1.1-6.3,0.1-12.4,3.6-17.9c3.7-5.7,8.9-9.6,15.5-11.1c6-1.3,12-0.7,17.6,2.2
		c0.7,0.4,1.4,0.8,2,1.2c0.9,0.6,1.2,1.6,0.7,2.5c-0.5,0.8-1.5,1-2.4,0.4c-2.4-1.3-4.8-2.5-7.5-3c-3.5-0.7-7.1-0.7-10.5,0.3
		c-8.3,2.5-13.5,8.2-15.5,16.6C93.2,123.5,93.2,125.4,92.9,127.4z M99,141.3c8.8,9.4,23.1,9,31.3,0.7c-0.4-0.2-0.8-0.3-1.2-0.5
		c-4.6-1.6-9.2-2.8-14.1-3.2c-3.3-0.3-6.6-0.4-9.8,0.7C103.2,139.6,101.2,140.5,99,141.3z M135.7,133.7c-0.2-0.1-0.3-0.1-0.4-0.1
		c-3,0.6-5.9,0.8-9,0.5c-3.4-0.3-6.6-1.2-9.7-2.3c-3.8-1.3-7.7-2.5-11.8-2.8c-2.5-0.2-5,0.1-7.4,0.7c-1.3,0.4-2.6,0.7-3.8,1.1
		c0.7,2.9,1.7,5.5,3.4,7.8c0.9-0.4,1.8-0.8,2.7-1.2c2.7-1.2,5.6-2.3,8.6-2.6c3.8-0.3,7.6-0.1,11.4,0.6c4.4,0.8,8.6,2,12.8,3.6
		c0.2,0.1,0.6,0.1,0.7-0.1C134.2,137.3,135.1,135.6,135.7,133.7z"/>
</g>
</svg>
