<?xml version="1.0" encoding="utf-8"?>
<!-- Generator: Adobe Illustrator 27.7.0, SVG Export Plug-In . SVG Version: 6.00 Build 0)  -->
<svg version="1.1" id="Camada_1" xmlns="http://www.w3.org/2000/svg" xmlns:xlink="http://www.w3.org/1999/xlink" x="0px" y="0px"
	 viewBox="0 0 230 230" style="enable-background:new 0 0 230 230;" xml:space="preserve">
<style type="text/css">
	.st0{fill:#3A4A99;}
	.st1{fill:#EFEFF0;}
</style>
<circle class="st0" cx="115.1" cy="115.4" r="115"/>
<g>
	<path class="st1" d="M115.1,82.1c13.4,0,24.7,9.9,26.2,22.9c0.6,4.7-0.1,9.2-1.9,13.5c-0.3,0.7-0.3,1.1,0.5,1.4
		c1.1,0.5,2,1.3,2.7,2.2c3.4,4.3,7.7,5.1,12.8,3.7c2.7-0.8,5.2-2,7.6-3.6c1.2-0.8,2.1-0.7,2.8,0.2c0.7,0.9,0.4,1.9-0.7,2.7
		c-4.2,2.8-8.7,4.8-14,4.8c-4.3-0.1-7.8-1.7-10.6-4.9c-0.2-0.2-0.4-0.5-0.7-0.7c-1.9-2.1-3.5-2.5-6.2-1.5c-1.9,0.7-3.6,1.8-5.3,2.8
		c-1.2,0.7-2.5,1.4-3.8,1.9c-4,1.5-7.6,0.7-10.4-2.5c-0.2-0.3-0.5-0.6-0.7-0.8c-1.8-2-3.4-2.4-6-1.5c-2,0.8-3.8,2-5.7,3
		c-1.5,0.9-3.1,1.7-4.8,2.2c-3.1,0.9-5.8,0.2-8.2-1.8c-0.4-0.4-0.9-0.8-1.2-1.2c-3.4-4.2-7.8-5-12.8-3.6c-2.7,0.8-5.2,2-7.5,3.5
		c-1.2,0.8-2.1,0.7-2.8-0.2c-0.7-0.9-0.4-1.9,0.7-2.7c4.3-2.9,8.9-4.9,14.3-4.7c3.9,0.1,7.2,1.6,9.9,4.4c0.6,0.7,1.2,1.3,1.9,2
		c0.7,0.7,1.6,1.1,2.6,1.2c0.2,0,0.6,0.1,0.7-0.1c0.2-0.3-0.1-0.5-0.3-0.6c-2-2.7-3.4-5.7-4.3-8.9c-4-14.8,5.6-29.9,20.7-32.6
		C112.3,82.2,113.8,82,115.1,82.1z M138,107.9c-0.1-0.8-0.1-1.9-0.2-3c-1.9-13.2-15.2-22-28.1-18.5c-9.1,2.4-15.5,9.7-16.7,19.3
		c-0.8,6.4,1,12,5,17.1c0.5,0.6,0.8,0.7,1.5,0.3c1.5-0.9,3-1.8,4.6-2.6c1.6-0.9,3.3-1.5,5.1-1.6c3.1-0.2,5.5,1.3,7.5,3.6
		c2.3,2.7,4,3.1,7.2,1.6c1.7-0.8,3.3-1.8,5-2.8c1.7-1,3.5-1.9,5.4-2.3c0.6-0.1,1-0.4,1.3-1C137.2,115,138,111.7,138,107.9z"/>
	<path class="st1" d="M78.6,134.6c4.6,0,8.2,1.6,11.1,4.9c0.3,0.3,0.5,0.6,0.8,0.9c1.7,1.9,3.7,2.3,6,1.4c1.9-0.7,3.6-1.8,5.3-2.8
		c1.3-0.8,2.7-1.5,4.1-2.1c3.8-1.4,7.2-0.6,10,2.3c0.3,0.3,0.6,0.7,0.9,1.1c1.9,2.1,3.5,2.5,6.1,1.5c1.9-0.7,3.5-1.8,5.2-2.8
		c1.3-0.8,2.6-1.5,4-2c4-1.5,7.6-0.8,10.3,2.5c2.5,2.9,5.4,4.6,9.3,4.4c1.1,0,1.8,0.7,1.9,1.7c0,1-0.7,1.7-1.8,1.8
		c-4.5,0.2-8.2-1.4-11.2-4.7c-0.3-0.3-0.6-0.7-0.9-1c-1.9-2.1-3.5-2.5-6.1-1.5c-1.8,0.7-3.5,1.7-5.1,2.7c-1.5,0.9-3,1.7-4.7,2.3
		c-3.5,1.2-6.5,0.3-9.2-2.2c-0.6-0.5-1-1.1-1.6-1.7c-1.5-1.6-3.2-2.1-5.3-1.4c-1.9,0.6-3.5,1.6-5.2,2.6c-1.9,1.1-3.7,2.2-5.8,2.8
		c-3.1,0.9-5.8,0.1-8.1-1.9c-0.7-0.6-1.2-1.2-1.8-1.9c-2.7-3-6-4-9.9-3.4c-0.3,0-0.6,0.1-0.9,0.1c-1-0.1-1.5-0.7-1.6-1.6
		c-0.1-0.9,0.3-1.5,1.2-1.8C76.8,134.6,77.8,134.7,78.6,134.6z"/>
	<path class="st1" d="M121,163.5c-2.8-0.1-4.9-1.2-6.7-3.1c-0.3-0.3-0.5-0.6-0.8-0.9c-2-2.2-3.6-2.6-6.4-1.5
		c-1.9,0.8-3.6,1.9-5.4,2.9c-1.8,1.1-3.7,2-5.8,2.4c-3.2,0.6-6.9-1-8.7-3.7c-0.5-0.8-0.4-1.7,0.3-2.4c0.7-0.6,1.6-0.6,2.4,0.1
		c0.2,0.2,0.4,0.4,0.6,0.6c2,2.1,3.5,2.5,6.2,1.4c2-0.8,3.8-1.9,5.6-3c1.2-0.7,2.5-1.4,3.8-1.9c3.7-1.3,7.1-0.5,9.8,2.3
		c0.5,0.5,0.9,1,1.4,1.5c1.4,1.5,3.1,1.9,5.1,1.3c2-0.7,3.8-1.8,5.6-2.9c2.1-1.2,4.1-2.3,6.5-2.8c3-0.6,7,1.2,8.5,3.9
		c0.5,0.8,0.3,1.6-0.4,2.2c-0.7,0.6-1.5,0.7-2.3,0.1c-0.4-0.3-0.7-0.7-1.1-1.1c-1.4-1.5-3.1-1.9-5.1-1.3c-2.2,0.7-4.1,2-6.1,3.1
		c-1.9,1.1-3.8,2.2-6,2.5C121.8,163.4,121.3,163.4,121,163.5z"/>
	<path class="st1" d="M80.3,110.1c-1.3,0-2.6,0-3.8,0c-1.1,0-1.8-0.7-1.8-1.8c0-1.1,0.6-1.7,1.7-1.7c2.6,0,5.1-0.1,7.7-0.1
		c1.4,0,2.1,0.6,2.1,1.8c0,1.2-0.7,1.7-2.1,1.8c-0.6,0-1.2,0-1.9,0S80.9,110.1,80.3,110.1C80.3,110.1,80.3,110.1,80.3,110.1z"/>
	<path class="st1" d="M92.2,87.4c-0.5,0-0.9-0.2-1.3-0.6c-1.8-1.8-3.5-3.5-5.3-5.3c-0.8-0.8-0.9-1.9-0.2-2.6
		c0.7-0.8,1.8-0.8,2.6,0.1c1.8,1.8,3.6,3.6,5.4,5.4c0.5,0.5,0.7,1.2,0.3,1.9C93.5,87,92.9,87.3,92.2,87.4z"/>
	<path class="st1" d="M138.3,87.4c-1.1,0-1.6-0.4-2-1.1c-0.4-0.7-0.2-1.3,0.3-1.8c1.8-1.9,3.6-3.7,5.5-5.5c0.7-0.7,1.8-0.6,2.5,0
		c0.7,0.7,0.8,1.7,0,2.5c-1.8,1.9-3.7,3.7-5.5,5.5C138.8,87.2,138.4,87.4,138.3,87.4z"/>
	<path class="st1" d="M150.3,106.9c1.1,0,2.2,0,3.3,0c1.3,0,2,0.7,2.1,1.8c0,1-0.7,1.8-1.9,1.8c-2.3,0-4.7,0-7,0
		c-1.2,0-1.9-0.8-1.9-1.8c0-1,0.8-1.7,2-1.7C148,106.9,149.1,106.9,150.3,106.9z"/>
	<path class="st1" d="M116.8,72.7c0,1.2,0,2.3,0,3.5c0,1.1-0.7,1.8-1.8,1.7c-1,0-1.7-0.6-1.7-1.7c0-2.3,0-4.7,0-7
		c0-1.1,0.7-1.8,1.7-1.8c1,0,1.7,0.7,1.8,1.8C116.9,70.3,116.8,71.5,116.8,72.7z"/>
	<path class="st1" d="M99,72.6c1.1,0,1.6,0.4,1.9,1c0.7,1.5,1.4,2.9,2,4.4c0.4,1,0.1,1.9-0.9,2.3c-0.9,0.4-1.8,0.1-2.3-0.9
		c-0.7-1.4-1.4-2.9-2-4.4C97.1,73.8,98,72.6,99,72.6z"/>
	<path class="st1" d="M129.1,80.5c-1.4,0-2.3-1.2-1.9-2.4c0.6-1.6,1.3-3.1,2.1-4.6c0.4-0.9,1.4-1.2,2.2-0.8c0.8,0.4,1.3,1.3,1,2.2
		c-0.7,1.6-1.4,3.2-2.2,4.8C130.1,80.2,129.6,80.4,129.1,80.5z"/>
	<path class="st1" d="M85.9,96.9c-1.7-0.8-3.6-1.4-5.3-2.5c-0.7-0.5-0.8-1.3-0.4-2.1c0.4-0.8,1.1-1.2,1.9-0.9
		c1.8,0.6,3.5,1.4,5.1,2.3c0.8,0.4,0.8,1.3,0.5,2.1C87.5,96.5,86.9,96.9,85.9,96.9z"/>
	<path class="st1" d="M145,96.3c-1.1,0-1.7-0.4-1.9-1.2c-0.3-0.8-0.2-1.6,0.6-2c1.6-0.8,3.2-1.6,4.9-2.2c0.7-0.3,1.5,0.1,1.9,0.8
		c0.4,0.7,0.5,1.5-0.1,2C148.6,95,146.6,95.6,145,96.3z"/>
	<path class="st1" d="M100.4,105.5c-1.4,0-2.1-1.1-1.7-2.5c0.6-2,1.6-3.8,2.9-5.5c1.6-2,3.5-3.6,5.8-4.8c1.1-0.6,2.1-0.3,2.6,0.6
		c0.5,1,0.2,1.9-1,2.5c-3.4,1.8-5.7,4.5-6.9,8.2C101.8,104.9,101.4,105.6,100.4,105.5z"/>
</g>
</svg>
