<?xml version="1.0" encoding="utf-8"?>
<!-- Generator: Adobe Illustrator 27.7.0, SVG Export Plug-In . SVG Version: 6.00 Build 0)  -->
<svg version="1.1" id="Camada_1" xmlns="http://www.w3.org/2000/svg" xmlns:xlink="http://www.w3.org/1999/xlink" x="0px" y="0px"
	 viewBox="0 0 230 230" style="enable-background:new 0 0 230 230;" xml:space="preserve">
<style type="text/css">
	.st0{fill:#3A4A99;}
	.st1{fill:#FFFFFF;}
</style>
<circle class="st0" cx="115.1" cy="115.4" r="115"/>
<g>
	<path class="st1" d="M80.5,73.8c-1.4,0-2.8,0-4.1,0c-1.7,0.1-3.4-1.1-3.4-3.2c0.1-2.7,0.1-5.4,0-8c0-1.7,1-2.8,2.9-3
		c0.3,0,0.7,0,1,0c25.5,0,50.9,0,76.4,0c3.1,0,4.2,1.2,4.1,4.1c-0.1,2.2-0.1,4.4,0,6.6c0.1,1.8-1.3,3.5-3.6,3.6c-1.3,0-2.6,0-3.9,0
		c0,29.6,0,59.1,0,88.8c2.2,0,4.4,0,6.6,0c2,0,3.8,1.2,4.4,2.8c1.1,3.2-1.3,5.9-4.2,5.9c-27.8,0-55.5,0-83.3,0c-0.3,0-0.7-0.1-1-0.1
		c-2.1-0.6-3.5-2.8-3.2-4.8c0.4-2.1,2-3.8,4.5-3.8c2.2,0,4.5,0,6.7,0c0,0,0.1,0,0.2-0.1C80.5,133,80.5,103.4,80.5,73.8z M126,162.5
		c0.1-0.1,0.1-0.1,0.2-0.2c-0.1-6.9-0.1-13.8-0.2-20.7c0-2.9-1.4-5.1-3.3-7.1c-3.3-3.4-9.7-4-13.6-1.3c-3.2,2.2-5,5.1-5,9.1
		c0,6.6,0,13.2,0,19.8c0,0.2,0.1,0.3,0.1,0.5C111.5,162.5,118.8,162.5,126,162.5z M96.2,130.1C96.2,130.1,96.2,130.1,96.2,130.1
		c1,0,1.9,0,2.9,0c1.2,0,2-0.7,2-2c0-1.9,0-3.7,0-5.6c0-1.1-0.7-1.8-1.8-1.8c-2,0-4.1,0-6.1,0c-0.9,0-1.5,0.5-1.5,1.4
		c0,2.2,0,4.4,0,6.6c0,0.9,0.5,1.4,1.5,1.4C94.2,130.1,95.2,130.1,96.2,130.1z M134,111.3C134,111.3,134,111.3,134,111.3
		c1,0,1.9,0,2.9,0c1.2,0,1.9-0.7,1.9-1.9c0-1.9,0-3.7,0-5.6c0-1.1-0.7-1.8-1.7-1.9c-2.1-0.1-4.1,0-6.2,0c-0.8,0-1.4,0.4-1.4,1.2
		c0,2.3,0,4.6,0.1,7c0,0.8,0.6,1.2,1.4,1.2C131.9,111.3,132.9,111.3,134,111.3z M96.2,111.3C96.2,111.3,96.2,111.3,96.2,111.3
		c0.9,0,1.8,0,2.8,0c1.3,0,2.1-0.7,2.1-2c0-1.8,0-3.6,0-5.4c0-0.9-0.6-1.9-1.8-1.9c-2-0.1-4.1,0-6.1,0c-0.8,0-1.5,0.5-1.5,1.4
		c0,2.2,0,4.4,0,6.7c0,0.8,0.5,1.3,1.4,1.3C94.1,111.3,95.2,111.3,96.2,111.3z M133.9,130.1C133.9,130.1,133.9,130.1,133.9,130.1
		c1,0,2,0,3,0c1.1,0,1.9-0.8,1.9-1.8c0-1.9,0-3.8,0-5.7c0-1.1-0.7-1.8-1.8-1.8c-2,0-4.1,0-6.1,0c-0.7,0-1.4,0.4-1.4,1.2
		c0,2.3,0,4.7,0.1,7c0,0.8,0.6,1.2,1.4,1.2C131.9,130.1,132.9,130.1,133.9,130.1z M134,92.5C134,92.5,134,92.5,134,92.5
		c0.9,0,1.8,0,2.8,0c1.2,0,2-0.8,2-2c0-1.8,0-3.6,0-5.4c0-1.3-0.6-2-1.9-2c-2-0.1-3.9,0-5.9,0c-0.7,0-1.5,0.2-1.5,1.2
		c0,2.3-0.1,4.5,0,6.8c0,0.9,0.6,1.4,1.6,1.4C132,92.5,133,92.5,134,92.5z M96.2,92.5C96.2,92.5,96.2,92.5,96.2,92.5
		c0.9,0,1.8,0,2.8,0c1.2,0,2.1-0.8,2.1-1.9c0-1.9,0-3.8,0-5.6c0-1.1-0.7-1.8-1.8-1.8c-2-0.1-4,0-6,0c-0.9,0-1.6,0.4-1.6,1.5
		c0,2.1,0,4.3,0,6.4c0,0.9,0.6,1.4,1.5,1.5C94.2,92.5,95.2,92.5,96.2,92.5z M115.1,111.3C115.1,111.3,115.1,111.3,115.1,111.3
		c1,0,1.9,0,2.9,0c1.2,0,1.9-0.7,2-1.9c0-1.9,0-3.8,0-5.6c0-1.1-0.7-1.8-1.7-1.9c-2.1-0.1-4.1,0-6.2,0c-0.8,0-1.4,0.5-1.4,1.3
		c0,2.3-0.1,4.5,0.1,6.8c0,0.4,0.8,1.1,1.3,1.2C113,111.4,114,111.3,115.1,111.3z M115.1,92.4C115.1,92.5,115.1,92.5,115.1,92.4
		c0.9,0,1.8,0,2.8,0c1.2,0,2-0.8,2-2c0-1.8,0-3.7,0-5.5c0-1.2-0.7-1.9-1.8-1.9c-2-0.1-4,0-6,0c-0.9,0-1.6,0.4-1.6,1.4
		c0,2.2,0,4.4,0,6.6c0,0.8,0.6,1.3,1.4,1.3C113.1,92.5,114.1,92.4,115.1,92.4z"/>
	<path class="st1" d="M126,162.5c0.1-0.1,0.1-0.1,0.2-0.2C126.2,162.4,126.1,162.4,126,162.5z"/>
</g>
</svg>
