<?xml version="1.0" encoding="utf-8"?>
<!-- Generator: Adobe Illustrator 27.7.0, SVG Export Plug-In . SVG Version: 6.00 Build 0)  -->
<svg version="1.1" id="Camada_1" xmlns="http://www.w3.org/2000/svg" xmlns:xlink="http://www.w3.org/1999/xlink" x="0px" y="0px"
	 viewBox="0 0 230 230" style="enable-background:new 0 0 230 230;" xml:space="preserve">
<style type="text/css">
	.st0{fill:#3A4A99;}
	.st1{fill:#FFFFFF;}
</style>
<circle class="st0" cx="115.1" cy="115.4" r="115"/>
<g>
	<path class="st1" d="M75.1,117.7c-2.1-0.2-4.2-0.8-5.9-2.1c-2.7-2-4.4-4.7-4.4-8.1c0-9.6,0-19.2,0-28.8c0-1.8,2.2-4.1,4-4.1
		c0.5,0,0.9-0.1,1.4-0.1c30,0,60.1,0,90.1,0c2.1,0,3.9,0.6,4.8,2.7c0.3,0.7,0.5,1.5,0.5,2.2c0,9.1,0.1,18.3,0,27.4
		c-0.1,5.6-3.5,9.4-8.9,10.7c-0.8,0.2-1.7,0.1-2.5,0.1c-26.2,0-52.5,0-78.7,0C75.3,117.6,75.2,117.7,75.1,117.7z M151.1,114.3
		c0.1-0.1,0.1-0.1,0.2-0.2c0-1,0-2,0-2.9c0.2-2.4-1.2-3.7-3.4-4.1c-0.1,0-0.1,0-0.2,0c-0.2,0-0.5,0-0.7,0c-21.2,0-42.4,0-63.7,0
		c-0.2,0-0.5,0-0.7,0c-0.1,0-0.1,0-0.2,0c-1.7,0.1-3,1-3.3,2.7c-0.3,1.4-0.2,2.9-0.2,4.3c0.1,0.1,0.1,0.1,0.2,0.2c0.2,0,0.5,0,0.7,0
		c23.5,0,47.1,0,70.6,0C150.6,114.3,150.8,114.3,151.1,114.3z M75.5,78c-0.1-0.1-0.1-0.1-0.2-0.2c-1.9,0-3.8,0-5.8,0
		c-0.7,0-1.3,0.2-1.5,1c0,0.1,0,0.2-0.1,0.3c0,4.5,0,9.1,0,13.6c0,4.8,0,9.6,0,14.5c0,0.1,0,0.2,0.1,0.3c-0.1,0.2-0.2,0.3-0.2,0.5
		c0.4,2.1,1.4,3.9,3.1,5.1c1,0.7,2.2,1,3.3,1.4c0.7,0.2,1.2,0,1.1-1c-0.1-1.1-0.1-2.2,0-3.3c0.1-1.8,0.9-3.2,2.2-4.5
		c1.1-1.1,2.5-1.5,3.9-1.8c0.1,0,0.1,0,0.2,0c0.4,0,0.7,0,1.1,0c21.4,0,42.8,0,64.2,0c0.3,0,0.6,0,0.9,0c0.1,0,0.2,0.1,0.2,0.1
		c3.6,0.2,6.1,3,6.3,6.8c0.1,1.2,0,2.4,0,3.6c3.9-0.2,7.2-3,7.4-7c0-0.1,0-0.2,0.1-0.3c0-2.9,0-5.8,0-8.7c0-6.5,0-12.9,0-19.4
		c0-0.1,0-0.2-0.1-0.3c-0.3-0.8-1-1-1.7-1c-1.8,0-3.7,0-5.5,0c-0.1,0.1-0.1,0.1-0.2,0.2c0,0.4,0,0.8,0,1.3c0,3.7,0,7.3,0,11
		c-0.1,0.1-0.1,0.2-0.2,0.2c0,0.4,0.1,0.8,0,1.2c-0.9,4.1-4.2,7.2-8.6,7.2c-20.7,0.1-41.4,0-62.1,0c-0.2,0-0.5,0-0.7,0
		c-4.1-1-6.7-3.5-7.4-7.8c0,0,0.1,0,0.1-0.1c0-0.1,0-0.1-0.1-0.2c0-0.5-0.1-1-0.1-1.5C75.5,85.6,75.5,81.8,75.5,78z M84.2,95.6
		c20.6,0,41.2,0,61.7,0c0.2,0,0.3,0,0.5,0c2.7-0.6,4.3-2.2,4.9-4.9c0-0.2,0-0.4,0-0.7c0-4,0-7.9,0-11.9c-24.2,0-48.3,0-72.5,0
		c0,4,0,7.9,0,11.9c0,0.2,0,0.4,0,0.7c0.2,2.4,2.4,4.7,4.9,4.9C83.9,95.6,84.1,95.6,84.2,95.6z"/>
	<path class="st1" d="M89.1,128.6c1,0.3,2,0.5,2.9,0.8c1,0.4,1.3,1.2,1,2.1c-0.4,0.9-1.1,1.1-2.2,0.9c-1-0.2-2.2-0.4-3.1,0
		c-1.6,0.7-2.1,2.4-1.5,4c0.7,1.6,2.4,2.3,4.1,2.1c4-0.7,5.9-3.6,7.4-6.9c1-2.2,1.5-4.6,2.2-6.9c0.3-0.9,1.1-1.5,2-1.3
		c0.9,0.2,1.3,0.8,1.2,1.9c-0.7,4.7-2.4,9.1-5.5,12.8c-1.5,1.8-3.4,3.1-5.7,3.6c-2.6,0.6-5,0.2-7.1-1.6c-1.8-1.6-2.5-4.8-1.6-7.2
		C84.1,130.3,86.6,128.6,89.1,128.6z"/>
	<path class="st1" d="M140.1,141.6c-3.5,0.1-6-1.7-8.1-4.3c-2.8-3.5-4-7.6-5-11.8c-0.3-1.1,0.4-2.1,1.3-2.3c0.9-0.2,1.9,0.6,2.1,1.7
		c0.7,3.9,2,7.6,4.5,10.7c1.4,1.8,4,3.5,6.8,2.7c1.6-0.5,2.7-1.9,2.5-3.7c-0.2-1.3-1.6-2.5-3.1-2.5c-0.6,0-1.2,0.1-1.7,0.2
		c-0.9,0.2-1.7,0-2.1-0.8c-0.4-0.7-0.1-1.6,0.7-2.1c1.2-0.8,2.7-0.9,4-0.7c2.7,0.4,4.6,2,5.3,4.6c1.1,4.4-1.9,8.2-6.1,8.3
		C140.7,141.6,140.4,141.6,140.1,141.6z"/>
	<path class="st1" d="M136.7,156.3c-2.6-0.3-4.7-1.5-6.7-2.9c-5.2-3.8-8.1-9.2-9.9-15.2c-1-3.2-1.5-6.5-2.2-9.7
		c-0.2-1.1-0.4-2.2-0.4-3.3c-0.1-1.1,0.6-1.8,1.6-1.8c1.1,0,1.7,0.5,1.8,1.7c0.5,6.5,2,12.7,5.1,18.4c1.8,3.5,4.3,6.3,7.8,8.2
		c1.1,0.6,2.4,0.8,3.5,1.3c0.5,0.2,1.1,0.7,1.3,1.1c0.2,0.6,0.3,1.4-0.5,1.8C137.6,156.2,137.1,156.2,136.7,156.3z"/>
	<path class="st1" d="M112.7,125.5c-0.4,2.5-0.6,5.1-1.3,7.5c-0.9,3.5-1.9,6.9-3.4,10.2c-2.2,5-5.5,9.2-10.6,11.6
		c-1.4,0.7-3,1-4.5,1.4c-1,0.2-1.5-0.5-1.6-1.4c-0.1-0.8,0.3-1.5,1.1-1.8c2.1-0.5,4-1.3,5.7-2.6c2.4-1.8,4.3-4.1,5.8-6.7
		c2.3-4.2,3.7-8.6,4.5-13.3c0.3-1.8,0.6-3.7,0.8-5.5c0.2-1.3,0.8-1.9,1.7-1.8c1,0.1,1.5,0.8,1.4,2c0,0.1,0,0.1,0,0.2
		C112.6,125.5,112.7,125.5,112.7,125.5z"/>
	<path class="st1" d="M75.1,117.7c0.1,0,0.2-0.1,0.3-0.1C75.3,117.6,75.2,117.7,75.1,117.7z"/>
	<path class="st1" d="M78.9,90c0,0.2,0,0.4,0,0.7C78.9,90.4,78.9,90.2,78.9,90z"/>
	<path class="st1" d="M151.3,90.7c0-0.2,0-0.4,0-0.7C151.3,90.2,151.3,90.4,151.3,90.7z"/>
	<path class="st1" d="M83.8,95.5c0.2,0,0.3,0,0.5,0C84.1,95.6,83.9,95.6,83.8,95.5z"/>
	<path class="st1" d="M146,95.6c0.2,0,0.3,0,0.5,0C146.3,95.6,146.1,95.6,146,95.6z"/>
	<path class="st1" d="M75.5,78c-0.1-0.1-0.1-0.1-0.2-0.2C75.4,77.8,75.4,77.9,75.5,78z"/>
	<path class="st1" d="M81.7,103.8c0.1,0,0.1,0,0.2,0C81.8,103.8,81.7,103.8,81.7,103.8z"/>
	<path class="st1" d="M148.1,103.8c0.1,0,0.2,0.1,0.2,0.1C148.3,103.9,148.2,103.9,148.1,103.8z"/>
	<path class="st1" d="M82.5,107.1c-0.1,0-0.1,0-0.2,0C82.4,107.1,82.4,107.1,82.5,107.1z"/>
	<path class="st1" d="M147.9,107.1c-0.1,0-0.1,0-0.2,0C147.7,107.1,147.8,107.1,147.9,107.1z"/>
	<path class="st1" d="M68,107.1c0,0.1,0.1,0.1,0.1,0.2c0,0,0,0.1,0,0.1C68.1,107.3,68.1,107.2,68,107.1z"/>
	<path class="st1" d="M75.6,91.1c0-0.1,0-0.1,0-0.2C75.6,90.9,75.6,91,75.6,91.1C75.6,91,75.6,91.1,75.6,91.1z"/>
	<path class="st1" d="M162.1,107.4c0-0.1,0-0.2,0.1-0.3C162.1,107.2,162.1,107.3,162.1,107.4z"/>
	<path class="st1" d="M151.1,114.3c0.1-0.1,0.1-0.1,0.2-0.2C151.2,114.2,151.1,114.2,151.1,114.3z"/>
	<path class="st1" d="M154.6,90.2c-0.1,0.1-0.1,0.2-0.2,0.2C154.5,90.4,154.6,90.3,154.6,90.2z"/>
	<path class="st1" d="M154.9,77.8c-0.1,0.1-0.1,0.1-0.2,0.2C154.8,77.9,154.8,77.8,154.9,77.8z"/>
	<path class="st1" d="M162.2,79c0-0.1,0-0.2-0.1-0.3C162.1,78.9,162.1,79,162.2,79z"/>
	<path class="st1" d="M68.1,78.8c0,0.1,0,0.2-0.1,0.3C68.1,79,68.1,78.9,68.1,78.8z"/>
	<path class="st1" d="M78.7,114.1c0.1,0.1,0.1,0.1,0.2,0.2C78.9,114.2,78.8,114.2,78.7,114.1z"/>
	<path class="st1" d="M97.1,91.9c-3.5,0-7.1,0-10.6,0c-0.1,0-0.1,0-0.2,0c-0.9-0.2-1.3-1-1.2-1.7c0.1-0.5,0.8-1,1.2-1.5
		c3.7,0,7.4,0,11.1,0c0.9,0.2,1.1,0.8,1,1.7c0,0.7-0.4,1.2-1.1,1.3C97.3,91.8,97.2,91.8,97.1,91.9z"/>
	<path class="st1" d="M102.6,91.9c-0.8-0.3-1.3-0.7-1.3-1.6c0.1-0.7,0.2-1.4,1-1.5c2.5,0,5.1,0,7.6,0c0.8,0.2,1.2,0.8,1.2,1.5
		c0,0.7-0.2,1.3-1,1.4c-0.1,0-0.1,0.1-0.2,0.1c-2.4,0-4.8,0-7.2,0C102.8,91.9,102.7,91.9,102.6,91.9z"/>
	<path class="st1" d="M97.3,88.7c-3.7,0-7.4,0-11.1,0c0.2-0.1,0.4-0.2,0.7-0.2c3.2,0,6.5,0,9.7,0C96.9,88.5,97.1,88.7,97.3,88.7z"/>
	<path class="st1" d="M110,88.7c-2.5,0-5.1,0-7.6,0c0.3-0.1,0.7-0.2,1-0.2c1.9,0,3.9,0,5.8,0C109.5,88.5,109.7,88.7,110,88.7z"/>
	<path class="st1" d="M102.6,91.9c0.1,0,0.1,0,0.2,0C102.8,91.9,102.7,91.9,102.6,91.9z"/>
	<path class="st1" d="M97.1,91.9c0.1-0.1,0.2-0.1,0.2-0.2C97.3,91.8,97.2,91.8,97.1,91.9z"/>
	<path class="st1" d="M86.3,91.9c0.1,0,0.1,0,0.2,0C86.5,91.9,86.4,91.9,86.3,91.9z"/>
	<path class="st1" d="M110,91.9c0.1,0,0.1-0.1,0.2-0.1C110.2,91.8,110.1,91.8,110,91.9z"/>
</g>
</svg>
