<?xml version="1.0" encoding="utf-8"?>
<!-- Generator: Adobe Illustrator 27.7.0, SVG Export Plug-In . SVG Version: 6.00 Build 0)  -->
<svg version="1.1" id="Camada_1" xmlns="http://www.w3.org/2000/svg" xmlns:xlink="http://www.w3.org/1999/xlink" x="0px" y="0px"
	 viewBox="0 0 230 230" style="enable-background:new 0 0 230 230;" xml:space="preserve">
<style type="text/css">
	.st0{fill:#989898;}
	.st1{fill:#EFEFF0;}
</style>
<circle class="st0" cx="115.1" cy="115.4" r="115"/>
<g>
	<path class="st1" d="M87.2,160c-0.4,0-0.8,0-1.2,0c-1.2-0.9-1.4-1.8-0.7-3c0.6-1,1.2-1.9,1.8-2.9c1.3-2.1,2.7-4.2,4-6.3
		c-0.1,0-0.2,0-0.3,0c-5.8-2.3-11.8-3.5-18-3.5c-1,0-1.8-0.4-2.3-1.2c0-0.5,0-0.9,0-1.4c0.5-0.8,1.3-0.9,2.2-0.9
		c3.2,0,6.4,0.3,9.5,0.9c3.6,0.7,7,1.7,10.3,3c0.6,0.2,0.9,0.1,1.3-0.3c1.7-1.9,3.3-3.9,5.1-5.7c0.6-0.6,1.3-1.1,1.9-1.6
		c-0.1-0.1-0.1-0.2-0.2-0.4c-2.4-0.9-4.7-2-7.2-2.8c-4-1.4-8.1-2.5-12.3-2.9c-2.8-0.3-5.5-0.5-8.3-0.7c-1.1-0.1-1.8-0.3-2.4-1.3
		c0-0.4,0-0.8,0-1.2c0.5-0.8,1.1-1.2,2.1-1.1c1,0.1,2,0.2,3,0.2c2.8,0,5.5,0.3,8.2,0.9c2.7,0.6,5.4,1.1,8.1,1.9
		c4,1.1,7.8,2.6,11.4,4.5c2.8-2.2,5.5-4.3,8.3-6.5c-2.4-1.2-4.6-2.4-6.9-3.4c-5.7-2.6-11.6-4.5-17.7-5.6c-2.8-0.5-5.5-0.9-8.3-1.2
		c-1.9-0.2-3.8-0.2-5.7-0.2c-1,0-1.9-0.3-2.5-1.2c0-0.5,0-0.9,0-1.4c0.5-0.6,1-1.1,1.8-1c1.2,0,2.3,0.1,3.5,0.2
		c1.3,0.1,2.7,0.1,4.1,0.2c0-1.7,0-3.3,0-4.9c0-0.6-0.1-1-0.5-1.4c-2.8-2.6-5-5.7-6.1-9.5c-1-3.2-1.1-6.5-0.3-9.6
		c1.1-4.3,3.5-7.8,6.8-10.7c1.3-1.2,1.9-1.4,3.1-0.3c1.6,1.5,3.2,3.1,4.5,4.9c2.7,3.7,3.7,8,3.2,12.6c-0.2,2-0.7,3.8-1.5,5.6
		c-1.2,2.7-2.9,5-5.1,6.9c-0.2,0.2-0.5,0.5-0.5,0.7c0,2,0,4.1,0,6.1c1,0.2,2,0.3,2.9,0.5c0.6,0.1,0.8,0,0.8-0.6c0-1.2,0.1-2.4,0-3.7
		c-0.2-2.1,0.2-3.8,2-5.1c0.3-0.2,0.4-0.5,0.7-0.8c2.4-2.4,4.9-4.9,7.3-7.3c0.3-0.3,0.8-0.4,1.2-0.6c0.1,0,0.1-0.1,0.2-0.1
		c6.7,0,13.3,0,20,0c0.1,0,0.1,0.1,0.2,0.1c0.3,0.1,0.6,0.1,0.8,0.3c0.9,0.8,1.7,1.7,2.6,2.5c2.4,2.4,4.7,4.7,7.1,7.1
		c0.7,0.6,0.9,1.3,0.9,2.2c0,3.1,0,6.2,0,9.3c0,0,0,0.1-0.1,0.1c0.1,0,0.1,0,0.2,0c0.9-0.3,1.8-0.7,2.8-0.9c2.2-0.6,4.5-1.2,6.7-1.8
		c0-0.1,0-0.1,0.1-0.2c0-1.4,0-2.8,0-4.2c0-0.1,0-0.1-0.1-0.2c-2.3-2.1-4.5-4.4-6.1-7.1c-2.3-3.8-3.5-7.9-3.6-12.3
		c0-0.8,0.1-1.7,0.2-2.5c0.2-1.3,0.3-2.6,0.6-3.9c0.8-3,2.1-5.7,3.9-8.2c1.8-2.4,3.8-4.6,6.3-6.4c0.3,0,0.7,0,1,0
		c0.5,0.4,0.9,0.7,1.4,1.1c2.9,2.3,5.1,5.1,6.8,8.4c1.5,2.8,2.3,5.7,2.6,8.9c0.3,2.8,0.1,5.5-0.6,8.2c-0.7,2.9-2,5.7-3.8,8.1
		c-1.2,1.6-2.7,3-4,4.5c-0.4,0.5-1.1,1-1.2,1.6c-0.2,1.1-0.1,2.2-0.1,3.3c0.3,0,0.6,0,0.8,0c1.9-0.3,3.9-0.7,5.8-0.8
		c2.5-0.2,5-0.2,7.5-0.4c1.1-0.1,1.9,0.3,2.5,1.2c0,0.4,0,0.8,0,1.2c-0.8,1.1-2,1.1-3.2,1.2c-2.3,0.2-4.6,0.2-6.9,0.4
		c-1.5,0.1-3.1,0.2-4.6,0.5c-2.3,0.4-4.6,1-6.8,1.5c-4.9,1.2-9.7,3-14.2,5.2c-2.4,1.1-4.7,2.5-6.9,3.8c-4.4,2.6-8.6,5.7-12.3,9.2
		c-2.7,2.5-5.2,5.4-7.6,8.1c-2.9,3.2-5.1,6.9-7.4,10.5C89,157.7,88.5,159.1,87.2,160z M93.2,106.6c0,0-0.1,0-0.1,0
		C93.1,106.6,93.2,106.6,93.2,106.6c3.5,0,7.1,0,10.6,0c0.1,0,0.1,0,0.2-0.1c-0.1-0.1-0.1-0.1-0.2-0.2c-1.6-1.6-3.2-3.1-4.7-4.7
		c-0.4-0.4-0.7-0.5-1.1,0c-1.4,1.5-2.9,2.9-4.3,4.3C93.5,106.1,93.4,106.4,93.2,106.6z M102.2,112.5c0.1,0,0.3,0.1,0.4,0.1
		c0.8,0.1,1.3,0.5,1.4,1.2c0.1,1.3,0.2,2.6,0.2,3.9c0,2.4,0,2.4,2.2,3.3c0,0,0.1,0,0.2,0c0-3.6,0-7.3,0-10.9c-0.1,0-0.1,0-0.2-0.1
		c-5.2,0-10.4,0-15.7,0c-0.1,0-0.1,0-0.2,0.1c0,1.6,0,3.3,0,4.9c0,0.3,0.1,0.7,0.3,0.7c0.7,0.2,1.4,0.3,2.2,0.4c0-0.8,0-1.5,0-2.2
		c0.1-0.8,0.5-1.4,1.4-1.5c0.2,0,0.4-0.1,0.6-0.1C97.3,112.5,99.8,112.5,102.2,112.5z M123.8,106.6c0,0,0.1,0,0.1,0
		C123.9,106.6,123.8,106.6,123.8,106.6c-1.9-2.1-3.9-4.1-5.8-6c-0.2-0.2-0.5-0.2-0.7-0.2c-4.7,0-9.5,0-14.2,0c0,0-0.1,0-0.1,0
		c0,0,0.1,0,0.1,0c0.1,0.1,0.1,0.3,0.2,0.4c1.8,1.8,3.7,3.7,5.5,5.5c0.2,0.2,0.6,0.3,0.9,0.3C114.3,106.6,119,106.6,123.8,106.6z
		 M110.1,110.2c0,4,0,8.1,0,12.1c0,0.3,0.3,0.7,0.5,0.8c1.4,0.8,2.8,1.6,4.2,2.4c0.2,0.1,0.5,0,0.7-0.1c1.7-0.9,3.3-1.9,5-2.7
		c2-1,4-1.9,6-2.9c0-3.2,0-6.4,0-9.7c-5.4,0-10.8,0-16.2,0C110.2,110.2,110.1,110.2,110.1,110.2z M143.3,106.2
		c0.7-0.8,1.4-1.7,2.1-2.6c2.4-3.3,3.7-7,4-11c0.1-1.9-0.1-3.8-0.5-5.6c-1-4.9-3.7-8.8-7.4-12.1c-10.3,8.9-10.3,22.7-1.7,31.3
		c0-4.4,0-8.7,0-12.9c0-0.2,0.1-0.4,0.1-0.6c0.2-0.9,0.8-1.4,1.5-1.4c1,0,1.6,0.6,1.9,1.7c0,0.1,0,0.2,0,0.2c0,0.5,0,0.9,0,1.4
		C143.3,98.5,143.3,102.4,143.3,106.2c-0.1,0-0.1,0-0.1,0c0,0,0,0,0,0.1C143.3,106.3,143.3,106.2,143.3,106.2z M79.9,103.2
		c0-0.4,0-0.7,0-1c0-3.5,0-7,0-10.5c0-1.2,0.9-1.9,2-1.6c1.1,0.3,1.5,0.8,1.5,2c0,2,0,3.9,0,5.9c0,1.6,0,3.3,0,5.2
		c0.3-0.5,0.5-0.7,0.7-0.9c2.6-3.4,3.6-7.3,3-11.5c-0.6-3.6-2.4-6.6-5-9.2c-0.4-0.4-0.7-0.4-1,0.1c-1.1,1.4-2.3,2.8-3.2,4.3
		c-1.7,3.1-2.4,6.5-1.6,10.1C76.9,98.6,78,101,79.9,103.2z M96.2,116.1c0.3,0.6,0.4,1.2,0.7,1.3c1.2,0.5,2.4,0.9,3.7,1.3
		c0-0.9,0-1.8,0-2.6C99.2,116.1,97.9,116.1,96.2,116.1z"/>
	<path class="st1" d="M159.7,143.1c-1,1.4-2.6,1.2-3.9,1.2c-4.3,0.1-8.4,0.8-12.5,2c-5.1,1.5-9.8,3.7-14.2,6.7
		c-2.6,1.7-5,3.7-7.2,5.9c-0.4,0.4-0.9,0.7-1.4,1.1c-0.4,0-0.8,0-1.2,0c-0.2-0.2-0.5-0.4-0.7-0.7c-0.5-0.8-0.7-1.5,0.4-2.6
		c1.5-1.4,3-2.8,4.6-4.1c3.1-2.5,6.5-4.6,10.1-6.4c4.1-2,8.3-3.5,12.7-4.4c1.9-0.4,3.9-0.6,5.9-0.9c1.6-0.2,3.2-0.2,4.9-0.4
		c1.1-0.1,1.9,0.3,2.5,1.2C159.7,142.3,159.7,142.7,159.7,143.1z"/>
	<path class="st1" d="M101.3,160c-1.3-1-1.6-1.7-0.5-3.3c2.1-2.9,4.3-5.7,6.7-8.3c3.3-3.5,6.9-6.6,10.8-9.3c0.5-0.4,1-0.7,1.8-0.7
		c0.8,0,1.4,0.4,1.6,1.1c0.2,0.7,0.1,1.4-0.6,1.9c-1.7,1.3-3.5,2.4-5.1,3.8c-2.4,2.1-4.7,4.3-6.9,6.6c-1.3,1.4-2.5,2.9-3.7,4.4
		c-0.7,0.8-1.2,1.8-1.9,2.6c-0.4,0.4-0.8,0.8-1.3,1.2C102,160,101.7,160,101.3,160z"/>
	<path class="st1" d="M159.7,129c-0.8,1.1-1.9,1.3-3.1,1.2c-3.1,0-6.1,0.4-9.1,0.8c-3.7,0.6-7.3,1.5-10.9,2.7
		c-0.5,0.2-1.2,0.2-1.7,0.1c-0.9-0.2-1-1-0.9-1.8c0-0.8,0.5-1.2,1.1-1.4c3.4-1.2,6.9-2.2,10.6-2.8c2.4-0.4,4.8-0.6,7.2-0.9
		c1.5-0.1,3-0.1,4.6-0.2c1.1-0.1,1.9,0.2,2.3,1.2C159.7,128.3,159.7,128.6,159.7,129z"/>
	<path class="st1" d="M139.7,93.3c0-0.2,0.1-0.4,0.1-0.6C139.8,92.9,139.7,93.1,139.7,93.3z"/>
	<path class="st1" d="M94.4,112.6c0.2,0,0.4-0.1,0.6-0.1C94.7,112.5,94.5,112.6,94.4,112.6z"/>
	<path class="st1" d="M103.8,106.6c0-0.1,0-0.2,0-0.2c0.1,0.1,0.1,0.1,0.2,0.2C103.9,106.6,103.8,106.6,103.8,106.6z"/>
	<path class="st1" d="M102.2,112.5c0.1,0,0.3,0.1,0.4,0.1C102.5,112.6,102.3,112.5,102.2,112.5z"/>
	<path class="st1" d="M139.7,111.4c0-0.1,0-0.1-0.1-0.2C139.7,111.3,139.7,111.4,139.7,111.4z"/>
	<path class="st1" d="M139.6,115.7c0-0.1,0-0.1,0.1-0.2C139.7,115.6,139.7,115.7,139.6,115.7z"/>
	<path class="st1" d="M106.6,110.2c-0.1,0-0.1,0-0.2-0.1C106.4,110.2,106.5,110.2,106.6,110.2z"/>
	<path class="st1" d="M90.7,110.1c-0.1,0-0.1,0-0.2,0.1C90.6,110.2,90.7,110.2,90.7,110.1z"/>
	<path class="st1" d="M130,118.3c0,0.1,0.1,0.1,0.1,0.2c-0.1,0-0.1,0-0.2,0C130,118.4,130,118.4,130,118.3z"/>
	<path class="st1" d="M123.8,106.6C123.8,106.6,123.8,106.5,123.8,106.6c0.1,0,0.1,0,0.1,0C123.9,106.6,123.8,106.6,123.8,106.6z"/>
	<path class="st1" d="M93.2,106.6C93.2,106.6,93.2,106.6,93.2,106.6c0,0-0.1,0-0.1,0C93.1,106.6,93.2,106.6,93.2,106.6z"/>
	<path class="st1" d="M143.3,106.2c0,0-0.1,0.1-0.1,0.1c0,0,0,0,0-0.1C143.2,106.2,143.3,106.2,143.3,106.2
		C143.3,106.2,143.3,106.2,143.3,106.2z"/>
	<path class="st1" d="M103,100.4C103,100.4,103,100.4,103,100.4c0,0-0.1,0-0.1,0C102.9,100.4,102.9,100.4,103,100.4z"/>
	<path class="st1" d="M118.4,96.8c0.1,0,0.1,0.1,0.2,0.1C118.5,96.9,118.5,96.9,118.4,96.8z"/>
	<path class="st1" d="M98.2,96.9c0.1,0,0.1-0.1,0.2-0.1C98.3,96.9,98.3,96.9,98.2,96.9z"/>
	<path class="st1" d="M143.2,93.1c0,0.1,0,0.2,0,0.2C143.2,93.2,143.2,93.1,143.2,93.1z"/>
	<path class="st1" d="M110.2,110.1c-0.1,0-0.1,0-0.2,0.1C110.1,110.2,110.2,110.2,110.2,110.1z"/>
	<path class="st1" d="M127.6,134c1,0,1.6,0.6,1.6,1.6c0,1.1-0.7,1.8-1.7,1.8c-0.9,0-1.8-0.9-1.8-1.7
		C125.7,134.7,126.5,134,127.6,134z"/>
	<path class="st1" d="M143.2,86.6c0,1-0.9,1.6-1.9,1.7c-0.7,0-1.5-1-1.6-1.8c0-0.9,0.9-1.8,1.7-1.7
		C142.5,84.9,143.2,85.4,143.2,86.6z"/>
</g>
</svg>
