<?xml version="1.0" encoding="utf-8"?>
<!-- Generator: Adobe Illustrator 27.7.0, SVG Export Plug-In . SVG Version: 6.00 Build 0)  -->
<svg version="1.1" id="Camada_1" xmlns="http://www.w3.org/2000/svg" xmlns:xlink="http://www.w3.org/1999/xlink" x="0px" y="0px"
	 viewBox="0 0 230 230" style="enable-background:new 0 0 230 230;" xml:space="preserve">
<style type="text/css">
	.st0{fill:#989898;}
	.st1{fill:#FFFFFF;}
</style>
<circle class="st0" cx="115.1" cy="115.4" r="115"/>
<g>
	<path class="st1" d="M49.1,115.1c1.9-1.7,3.7-3.5,5.6-5.1c1.8-1.6,3.6-3,5.4-4.5c2.9-2.4,5.8-4.8,8.7-7.2c2.2-1.9,4.4-3.8,6.7-5.6
		c2.4-2,4.9-4,7.3-6c2.3-1.9,4.6-3.9,6.9-5.8c2.8-2.4,5.7-4.7,8.6-7.1c2.3-1.9,4.5-3.9,6.8-5.7c2.3-1.8,4.3-4.2,7.4-4.8
		c3.4-0.7,6.5-0.2,9.2,2c3,2.5,6,4.9,9,7.4c2.4,2,4.7,4,7.1,6c1.1,1,2.3,1.9,3.7,3c0-3.2,0-6.1,0-9c0-2.2,0-4.5,0-6.7
		c0-2.1,0.8-2.9,2.8-3c5.1-0.1,10.1-0.1,15.2,0c2.1,0,3,1.2,3,3.7c0,10.1,0.1,20.2-0.1,30.3c0,1.9,0.8,2.9,2,3.8
		c2.3,1.9,4.7,3.8,7,5.8c2.8,2.3,5.6,4.7,8.4,6.9c1.5,1.2,1.8,2.9,0.6,4.3c-1.6,1.9-3,3.9-4.7,5.7c-1.1,1.1-2.6,1.7-4.2,0.3
		c-3.3-2.9-6.8-5.6-10.1-8.4c-2.9-2.4-5.7-4.8-8.5-7.2c-3.3-2.8-6.7-5.5-10.1-8.3c-2.9-2.4-5.7-4.8-8.5-7.2c-3.3-2.8-6.7-5.5-10-8.3
		c-2.3-1.9-4.6-3.9-7-5.9c-0.6-0.5-1.3-1.1-2.1-1.7c-0.8,0.6-1.6,1.2-2.5,1.9c-3.9,3.2-7.7,6.5-11.6,9.7c-3.8,3.2-7.7,6.3-11.5,9.5
		c-3.4,2.8-6.7,5.7-10.1,8.5c-4.4,3.6-8.8,7.2-13.2,10.9c-2.3,1.9-4.6,4-7,5.9c-2.7,2.1-3.5,1.8-5.2-0.2c-1.7-2-3.3-4.1-5-6.2
		C49.1,116.3,49.1,115.7,49.1,115.1z"/>
	<path class="st1" d="M125.7,136.5c-7.1,0-14,0-21,0c0,10.4,0,20.8,0,31.4c-0.5,0-1,0-1.4,0c-10.2,0-20.3,0-30.5,0
		c-2.3,0-4.8-2.5-4.8-4.8c0-13.2,0-26.3,0-39.5c0-0.6,0.5-1.3,1-1.7c3.9-3.3,7.8-6.5,11.7-9.7c4.1-3.4,8.3-6.7,12.4-10.1
		c3.2-2.6,6.3-5.3,9.5-8c3.7-3,7.4-6,11.1-9c0.3-0.2,0.5-0.5,0.7-0.7c0.5-0.6,0.8-0.5,1.4,0c3.8,3.1,7.6,6.2,11.3,9.3
		c3.2,2.6,6.3,5.3,9.5,8c3.2,2.6,6.4,5.1,9.5,7.7c2.7,2.2,5.3,4.5,8,6.7c2.5,2.1,5.1,4.2,7.6,6.3c0.4,0.3,0.7,0.9,0.7,1.3
		c0,12.7,0.1,25.5,0,38.2c0,3.8-2.6,5.9-6.1,5.9c-9.7-0.1-19.4,0-29.2,0c-0.4,0-0.8,0-1.4,0C125.7,157.4,125.7,147,125.7,136.5z"/>
</g>
</svg>
