<?xml version="1.0" encoding="utf-8"?>
<!-- Generator: Adobe Illustrator 27.7.0, SVG Export Plug-In . SVG Version: 6.00 Build 0)  -->
<svg version="1.1" id="Camada_1" xmlns="http://www.w3.org/2000/svg" xmlns:xlink="http://www.w3.org/1999/xlink" x="0px" y="0px"
	 viewBox="0 0 230 230" style="enable-background:new 0 0 230 230;" xml:space="preserve">
<style type="text/css">
	.st0{fill:#3A4A99;}
	.st1{fill:#EFEFF0;}
</style>
<circle class="st0" cx="115.1" cy="115.4" r="115"/>
<g>
	<path class="st1" d="M65.5,150.4c0.6-1.1,1.1-2.3,1.8-3.4c0.7-1.1,1.8-1.8,3.1-2.2c3.9-1.2,7.9-2.3,11.5-4.3c0.9-0.5,1.7-1,2.4-1.6
		c0.4-0.3,0.6-0.9,0.7-1.4c0.5-1.9-0.6-3.2-1.6-4.6c-2-2.7-3.4-5.7-4.1-9c-0.5-2.2-0.8-4.4-0.3-6.6c0-0.2,0-0.4,0-0.7
		c-1-0.4-2-0.8-3.3-1.3c1.5-3.7,2.9-7.3,4.5-10.8c0.7-1.6,1.8-3.1,2.9-4.4c1.7-1.9,4-2.8,6.4-3.6c1.9-0.6,3.8-0.9,5.9-1
		c3.8-0.1,7.4,0.3,10.7,2.2c2,1.1,3.4,2.8,4.7,4.6c2,2.8,3.1,5.9,3.5,9.4c0.3,2.8,0.2,5.6-0.4,8.3c-0.3,1.6-0.3,3.2-0.6,4.8
		c-0.8,3.4-2.3,6.5-4.6,9.2c-1.1,1.3-1.2,2.7-0.9,4c0.2,0.8,1.3,1.5,2.1,2c3.6,2.3,7.7,3.4,11.8,4.6c0.2,0.1,0.5,0.1,0.7,0.2
		c1.1,0.6,2.1,0.8,3.1-0.1c-4-0.9-8.1-1.8-11.1-5.2c0.4-0.3,0.8-0.7,1.3-1c1.6-1.3,2.4-3.1,2.7-5c0.5-3.1,0.8-6.3,1.2-9.4
		c0.6-4.4,1.1-8.7,3.3-12.7c2.2-3.9,5.4-6.4,9.7-7.5c2.2-0.5,4.5-0.9,6.8-0.8c3.8,0.2,7.6,0.7,10.9,3.1c2.7,1.9,4.5,4.4,5.7,7.4
		c1.1,2.8,1.6,5.7,1.9,8.7c0.3,2.4,0.4,4.7,0.8,7.1c0.4,2.7,0.5,5.5,2.3,7.8c0.7,0.9,1.6,1.6,2.4,2.4c-3,3.3-7.1,4.3-11.3,5.3
		c2,0.7,4,1.4,6,2.1c1.7,0.6,3.6,0.8,4.7,2.3c0.7,0.9,1.1,2,1.7,3.1c0,2.8,0,5.5,0,8.3c-0.1,0-0.1,0.1-0.2,0.1c-0.3,0-0.5,0-0.8,0
		c-32.4,0-64.8,0-97.2,0c-0.3,0-0.5,0-0.8,0c-0.1,0-0.1-0.1-0.2-0.1C65.5,157.2,65.5,153.8,65.5,150.4z M69.8,151.5
		c0,0.1,0,0.2,0,0.2c0,1.6,0,3.1,0,4.8c17.9,0,35.7,0,53.6,0c0-1.6,0-3.2,0-4.8c0-0.1,0-0.2,0-0.2c-0.2-1.5-1.1-2.4-2.5-2.9
		c-3.2-1.1-6.4-2.1-9.5-3.3c-3.1-1.3-6.2-2.7-7.6-6.3c-4.8,4.1-9.6,4.1-14.4,0.1c-0.8,1.9-2.1,3.1-3.7,4.1c-3.8,2.4-8.1,3.8-12.4,5
		C71.2,148.8,69.9,149.4,69.8,151.5z M83,117.7c0.1,1.7,0,3.5,0.4,5.3c1.4,5.8,4.7,10.4,9.6,13.8c2,1.4,4.1,1.7,6.3,0.3
		c1.9-1.2,3.7-2.5,5.1-4.3c1.3-1.8,2.6-3.7,3.7-5.6c1.1-1.9,1.5-4,1.7-6.2c0.1-1.1,0.3-2.3-0.4-3.3c-0.8-1.1-1.7-2.2-2.5-3.3
		c-0.5-0.8-1.2-1.1-2.1-1.2c-2-0.1-3.7,0.8-5.4,1.6c-4.5,2.1-9.2,3.3-14.2,3.1C84.6,117.7,83.9,117.7,83,117.7z M128.6,126.3
		c0.1,2,0.4,3.9,1.2,5.7c1.4,3.3,3.5,6.1,6.6,8.2c1.4,0.9,2.9,1.7,4.5,0.4c1.2-1,2.6-1.8,3.7-2.9c3.9-4,5.7-8.7,4.4-14.3
		c-0.1-0.5-0.4-1.1-0.8-1.3c-2-1.2-4.1-2.3-6.2-3.4c-0.2-0.1-0.7-0.1-0.9,0c-1,0.7-2,1.6-3,2.3C135.3,123.2,132.2,125,128.6,126.3z
		 M133.7,143.3c-1.4,3-4.2,4.1-6.6,5.3c0.2,2.7,0.3,5.3,0.4,7.8c10.9,0,21.8,0,32.8,0c0-1,0-2,0-3c0-1-0.5-1.6-1.4-2
		c-1.8-0.6-3.6-1.1-5.3-1.8c-3.6-1.4-7.3-2.6-9.3-6.4C140.8,146,137.3,146,133.7,143.3z M81,112.7c0.4,0.2,0.5,0.3,0.6,0.3
		c2.1,0.3,4.2,0.9,6.4,0.4c1.9-0.4,3.9-0.5,5.7-1.1c2.7-0.8,5.3-2.1,7.9-3c2.3-0.8,4.5-0.8,6.7,0.5c0.6,0.3,1.1,0.8,1.6,1.3
		c0-0.2,0.1-0.3,0.1-0.3c-0.6-3-2-5.7-4.1-8c-2.2-2.3-5.1-2.8-8.1-3.1c-2.8-0.3-5.6,0.3-8.3,1.3c-2,0.8-3.8,1.9-4.8,3.9
		C83.6,107.5,82.3,110.1,81,112.7z M124,123.3c9.4-2.3,15.7-8.3,21.5-15.2c-3.7-1.1-7.4-1.2-11.1-0.5c-2.1,0.4-4,1.3-5.6,2.9
		c-2.1,2-3.1,4.6-3.8,7.4C124.6,119.6,124.4,121.3,124,123.3z M153.3,123.5c0,0.1-0.1,0.2-0.1,0.3c0,2.2,0.3,4.5-0.1,6.6
		c-0.5,2.9-1.9,5.6-3.7,7.9c-0.5,0.7-1.4,1.3-1,2.4c1.8,0.1,7.1-1.1,8.7-2c-2.5-4.7-2.4-10-3.1-15.1
		C153.9,123.7,153.6,123.6,153.3,123.5z M129.9,140.9c-0.3-0.8-0.4-1.5-0.8-2c-2.2-2.9-3.8-6-4.3-9.6c-0.1-0.6-0.2-1.1-0.3-1.7
		c-0.2,0-0.3,0-0.5,0c-0.1,0-0.2,0-0.3,0.1c-0.7,3.8-0.7,7.8-2.8,11.3C123.7,140,126.6,140.7,129.9,140.9z M149.1,110.3
		c-1.5,1.7-2.9,3.4-4.4,5.1c2.8,1.7,5.5,3.3,8.8,3.9C152.8,115.9,151.7,112.8,149.1,110.3z"/>
	<path class="st1" d="M65.7,160.7c-0.1,0-0.1,0-0.2,0.1c0-0.1,0-0.1,0-0.2C65.6,160.6,65.7,160.7,65.7,160.7z"/>
	<path class="st1" d="M164.7,160.8c-0.1,0-0.1,0-0.2-0.1c0.1,0,0.1-0.1,0.2-0.1C164.7,160.7,164.7,160.7,164.7,160.8z"/>
	<path class="st1" d="M119.2,72.4c1.9-2.1,4.4-2.6,6.9-2.2c2.9,0.4,5,2.1,6,4.9c1.2,3.4,0.2,6.5-1.7,9.3c-2.7,4.3-6.7,7.2-10.8,10
		c-0.2,0.2-0.8,0.2-1,0c-2.5-1.9-5.1-3.7-7.4-5.9c-2.1-2-3.8-4.3-4.9-7.1c-1.9-4.8,0.3-10,5.3-11.2C114.4,69.6,117,70.3,119.2,72.4z
		 M119.1,78.5c-1.2-1.3-2.2-2.5-3.4-3.6c-1.1-1-3.1-1-4-0.2c-1.5,1.2-2.1,2.2-1.6,4.2c0.6,2.5,2,4.5,3.8,6.3c1.5,1.4,3.1,2.7,4.6,4
		c0.5,0.5,0.9,0.4,1.5,0c2.2-1.7,4.4-3.5,6.1-5.7c1.4-1.7,2.5-3.5,2.5-5.8c0-1.2-1-2.8-2.2-3.2c-1.3-0.4-2.6-0.5-3.7,0.6
		C121.4,76.1,120.4,77.2,119.1,78.5z"/>
	<path class="st1" d="M69.8,151.5c0,0.1,0,0.2,0,0.2C69.7,151.7,69.7,151.6,69.8,151.5z"/>
	<path class="st1" d="M123.3,151.7c0-0.1,0-0.1-0.1-0.2c0,0,0-0.1,0-0.1C123.3,151.6,123.3,151.7,123.3,151.7z"/>
</g>
</svg>
