<?xml version="1.0" encoding="utf-8"?>
<!-- Generator: Adobe Illustrator 27.7.0, SVG Export Plug-In . SVG Version: 6.00 Build 0)  -->
<svg version="1.1" id="Camada_1" xmlns="http://www.w3.org/2000/svg" xmlns:xlink="http://www.w3.org/1999/xlink" x="0px" y="0px"
	 viewBox="0 0 230 230" style="enable-background:new 0 0 230 230;" xml:space="preserve">
<style type="text/css">
	.st0{fill:#989898;}
	.st1{fill:#EFEFF0;}
</style>
<circle class="st0" cx="115.1" cy="115.4" r="115"/>
<g>
	<path class="st1" d="M121,108.6c-3.8,0-7.5,0-11.3,0c-0.5,0-0.8,0.2-1,0.6c-1.5,2.7-3,5.3-4.5,8c-0.4,0.7-0.9,1-1.7,1
		c-8.9,0-17.7,0-26.6,0c-0.7,0-1.3-0.2-1.7-0.8c0-12.2,0-24.4,0-36.6c0.3-0.2,0.5-0.5,0.8-0.7c2.8-1.9,5.6-3.7,8.3-5.5
		c8.5,0,17,0,25.4,0c0.3,0.3,0.5,0.6,0.8,0.9c0,0.1,0.1,0.1,0.1,0.2c0,0.3,0,0.6,0,1c0,9.5,0,18.9,0,28.4c0,0.3,0,0.6,0,0.9
		c3.7,0,7.2,0,10.9,0c0-0.3,0-0.6,0-0.9c0-9.5,0-18.9,0-28.4c0-0.3,0-0.6,0-1c0-0.1,0.1-0.2,0.1-0.3c0.2-0.3,0.4-0.5,0.6-0.8
		c8.5,0,17,0,25.4,0c2,1.3,4,2.5,6,3.9c1.1,0.8,2.2,1.7,3.3,2.5c0,12.2,0,24.3,0,36.5c-0.6,0.7-1.5,0.8-2.4,0.8
		c-8.6,0-17.2,0-25.7,0c-1,0-1.6-0.3-2.1-1.2c-1.5-2.8-3.1-5.5-4.6-8.2C121.1,108.7,121.1,108.6,121,108.6z M87.9,115.4
		c0.8,0,1.7,0,2.5,0c0-0.1,0-0.1,0.1-0.2c0-2.2,0-4.3,0-6.5c-0.9,0-1.8,0-2.6,0c0,0.1-0.1,0.1-0.1,0.2c0,2.1,0,4.2,0,6.3
		C87.9,115.3,87.9,115.3,87.9,115.4z M142.3,108.7c-0.8,0-1.7,0-2.6,0c0,2.2,0,4.4,0,6.5c0,0.1,0,0.1,0.1,0.2c0.8,0,1.7,0,2.5,0
		c0-0.1,0.1-0.1,0.1-0.2c0-2.1,0-4.2,0-6.3C142.3,108.8,142.3,108.8,142.3,108.7z M80.2,79.7c0,0,0,0.1,0,0.1c7.2,0,14.3,0,21.5,0
		c0.2,0,0.5,0,0.6-0.1c0.8-0.8,1.6-1.5,2.5-2.3c-0.3-0.2-0.5-0.3-0.6-0.3c-6.5,0-13,0-19.6,0c-0.3,0-0.7,0.2-0.9,0.3
		C82.5,78.2,81.4,79,80.2,79.7z M125.7,77.2c-0.1,0-0.2,0-0.3,0c0,0.1,0.1,0.1,0.1,0.2c0.7,0.7,1.3,1.4,2,2c0.3,0.2,0.7,0.4,1,0.4
		c6.9,0,13.8,0,20.8,0c0.2,0,0.4,0,0.6-0.1c-1.3-0.8-2.5-1.6-3.7-2.4c-0.2-0.1-0.5-0.3-0.7-0.3C139,77.2,132.3,77.2,125.7,77.2z
		 M126,82c0-0.1,0-0.1-0.1-0.2c-0.8-0.8-1.6-1.6-2.4-2.4c-0.1-0.1-0.1-0.1-0.2-0.2c0,0.1,0,0.1,0,0.2c0,9,0,18,0,26.9
		c0,0.3,0.1,0.7,0.3,1c0.4,0.7,0.8,1.4,1.3,2.2c0.3,0.6,0.7,1.2,1,1.7c0.1-5.9,0.1-11.6,0.1-17.4C126,89.9,126,85.9,126,82z
		 M104.2,82c0,0.3,0,0.6,0,0.9c0,9.2,0,18.4,0,27.6c0,0.3,0,0.6,0,1c0.9-1.5,1.7-2.8,2.4-4.2c0.2-0.3,0.3-0.7,0.3-1.1
		c0-8.8,0-17.5,0-26.3c0-0.2,0-0.4,0-0.6c-0.9,0.8-1.8,1.7-2.7,2.5c0,0-0.1,0-0.1,0C104.2,81.9,104.2,81.9,104.2,82z M153.3,82.8
		c0,0-0.1-0.1-0.1-0.1c-8.1,0-16.2,0-24.3,0c0,0-0.1,0.1-0.1,0.1c0,0.3,0,0.6,0,1c0,10.5,0,21,0,31.5c0,0.1,0.1,0.1,0.1,0.2
		c2.7,0,5.3,0,8,0c0-0.1,0-0.1,0.1-0.2c0-2.3,0-4.7,0-7c0-0.1,0-0.1,0.1-0.2c0.3-1.3,1.1-2.1,2.4-2.1c1.1,0,2.2,0,3.3,0
		c1.3,0,2.3,0.9,2.4,2.2c0,0.1,0.1,0.1,0.1,0.2c0,2.3,0,4.6,0,6.9c0,0.1,0,0.1,0.1,0.2c2.7,0,5.3,0,8,0c0,0,0.1-0.1,0.1-0.1
		c0-0.3,0-0.6,0-0.9c0-9.6,0-19.1,0-28.7C153.3,84.7,153.3,83.7,153.3,82.8z M85.1,108c0.4-1.3,1.3-2.3,2.9-2.1c0.9,0.1,1.7,0,2.6,0
		c1.5,0,2.3,0.7,2.6,2.2c0,0.1,0,0.1,0.1,0.2c0,2.3,0,4.6,0,6.8c0,0.1,0,0.1,0.1,0.2c2.7,0,5.3,0,8,0c0-0.1,0.1-0.1,0.1-0.2
		c0-4.6,0-9.1,0-13.7c0-6.3,0-12.5,0-18.8c0,0-0.1-0.1-0.1-0.1c-8.1,0-16.2,0-24.3,0c0,0-0.1,0.1-0.1,0.1c0,0.3,0,0.6,0,0.9
		c0,7.9,0,15.8,0,23.7c0,2.6,0,5.2,0,7.8c0,0,0.1,0.1,0.1,0.1c2.7,0,5.3,0,8,0c0-0.1,0-0.1,0.1-0.2c0-2.3,0-4.6,0-6.9
		C85.1,108.3,85.1,108.2,85.1,108z M104.8,77.2C104.8,77.2,104.7,77.2,104.8,77.2c0,0.1,0,0.1,0,0.1
		C104.8,77.3,104.8,77.3,104.8,77.2C104.8,77.3,104.8,77.2,104.8,77.2z"/>
	<path class="st1" d="M83.6,153.6c0.2,0,0.4,0,0.6,0c20.6,0,41.2,0,61.7,0c0.2,0,0.4,0,0.6,0c0.1,0,0.1-0.1,0.2-0.1
		c-0.1-0.1-0.1-0.2-0.2-0.2c-4.1-7.1-8.1-14.1-12.1-21.2c-0.3-0.5-0.5-1.1-0.6-1.6c-0.1-0.7,0.2-1.2,0.9-1.3c0.1,0,0.1-0.1,0.2-0.1
		c3.8,0,7.5,0,11.3,0c2.9,0,5.7,0,8.6,0c0.1,0,0.1,0.1,0.2,0.1c0.4,0.3,0.7,0.5,1.1,0.8c0,0.3,0,0.6,0,1c-0.5,0.8-1.4,0.9-2.3,0.9
		c-5.1,0-10.2,0-15.3,0c-0.3,0-0.6,0-1,0c0.5,0.9,0.9,1.7,1.4,2.5c1.8,3.1,3.5,6.1,5.3,9.2c1.7,2.9,3.4,5.9,5,8.9
		c0.6,1.1,0.3,2.5-0.6,3.3c-0.3,0.3-0.7,0.5-1.1,0.7c-21.7,0-43.4,0-65.1,0c-0.4-0.3-0.9-0.6-1.3-1c-1.1-1.2-0.6-2.5,0.1-3.7
		c1.4-2.5,2.8-4.9,4.3-7.4c1.6-2.8,3.2-5.6,4.8-8.4c0.7-1.3,1.4-2.6,2.2-3.9c-0.4,0-0.7,0-1,0c-5.2,0-10.3,0-15.5,0
		c-0.8,0-1.5-0.2-1.9-0.9c0-0.4,0-0.7,0-1.1c0.3-0.2,0.6-0.4,0.9-0.7c0.1,0,0.2-0.1,0.4-0.1c5.1,0,10.2,0,15.3,0c1.5,0,2.9,0,4.4,0
		c0.1,0,0.1,0.1,0.2,0.1c1,0.2,1.4,1.1,0.8,2.1c-2.8,4.9-5.7,9.9-8.5,14.8c-1.3,2.3-2.6,4.6-3.9,7c0,0.1-0.1,0.2-0.1,0.3
		c-0.1,0.1-0.1,0.2-0.2,0.2C83.5,153.6,83.5,153.6,83.6,153.6z"/>
	<path class="st1" d="M155,134.6c0.4,0.3,0.7,0.5,1.1,0.8c0,0.4,0,0.7,0,1.1c-0.4,0.2-0.7,0.4-1.1,0.7c-1.8,0-3.6,0-5.3,0
		c-0.5,0-1,0.1-1.6,0.1c-0.6,0.1-0.2,0.3-0.1,0.5c1.3,2,2.5,4,3.8,6c1.4,2.2,2.9,4.5,4.3,6.7c0,0.3,0,0.6,0,1
		c-0.7,1.1-2.1,1.1-2.8-0.1c-3-4.8-6.1-9.6-9.2-14.4c-0.6-1-0.4-1.8,0.6-2.3C148.1,134.6,151.5,134.6,155,134.6z"/>
	<path class="st1" d="M74.2,135.2c0.3-0.2,0.6-0.4,0.9-0.7c3.4,0,6.8,0,10.3,0c1,0.4,1.3,1.2,0.7,2.2c-1,1.6-2,3.1-3,4.7
		c-2,3.2-4.1,6.5-6.1,9.7c-0.7,1.2-2,1.5-2.8,0.2c0-0.4,0-0.7,0-1.1c1.2-1.9,2.5-3.8,3.7-5.7c1.5-2.3,2.9-4.6,4.4-6.9
		c0-0.1-0.1-0.2-0.1-0.3c-0.2,0-0.4-0.1-0.5-0.1c-2.2,0-4.4,0-6.5,0c-0.3-0.2-0.6-0.4-0.9-0.7C74.2,136.1,74.2,135.7,74.2,135.2z"/>
	<path class="st1" d="M113.8,142.3c0.2-0.6,0.6-1,1.3-0.9c0.6,0.1,1.2,0.3,1.3,1.1c0,2.5,0,4.9,0,7.4c-0.1,0.8-0.7,1-1.3,1.1
		c-0.6,0.1-1.1-0.3-1.3-0.9c0-0.2-0.1-0.3-0.1-0.5c0-2.2,0-4.5,0-6.7C113.7,142.6,113.8,142.4,113.8,142.3z"/>
	<path class="st1" d="M113.7,135.9c0-1.8,0-3.6,0-5.4c0-0.2,0.1-0.3,0.1-0.5c0.2-0.8,0.8-0.8,1.5-0.8c0.6,0,1,0.3,1.1,1
		c0,2,0,4.1,0,6.1c-0.3,0.9-1,1.1-1.7,0.9c-0.3-0.1-0.6-0.6-0.9-0.9C113.8,136.1,113.7,136,113.7,135.9z"/>
	<path class="st1" d="M134.3,125c-1.4,0-2.9,0-4.3,0c-0.1,0-0.1,0-0.2,0c-0.9-0.4-1.2-0.9-1.1-1.7c0.1-0.7,0.7-1.1,1.6-1.1
		c1.3,0,2.6,0,3.8,0c0.8,0,1.4,0.5,1.4,1.3c0,0.7-0.3,1.2-0.9,1.4C134.5,124.9,134.4,124.9,134.3,125z"/>
	<path class="st1" d="M90.6,125c-1.4,0-2.9,0-4.3,0c-0.1,0-0.1,0-0.2,0c-1.2-0.3-1.5-1.7-0.7-2.4c0.2-0.2,0.6-0.3,0.9-0.4
		c1.4,0,2.8-0.1,4.2,0c0.8,0,1.3,0.6,1.4,1.3c0.1,0.7-0.4,1.2-1.1,1.4C90.7,124.9,90.7,124.9,90.6,125z"/>
	<path class="st1" d="M153.5,125c-1.4,0-2.9,0-4.3,0c-0.1,0-0.2,0-0.3,0c-0.8-0.2-1.2-0.8-1.1-1.5c0.1-0.8,0.6-1.3,1.5-1.3
		c1.3,0,2.6,0,4,0c0.1,0,0.1,0,0.2,0.1c0.7,0.2,1.1,0.6,1.1,1.4c0,0.7-0.3,1.1-1,1.2C153.6,124.9,153.6,124.9,153.5,125z"/>
	<path class="st1" d="M95.6,125c-1.2-0.8-1.4-1.7-0.4-2.5c0.2-0.2,0.5-0.3,0.7-0.3c1.4,0,2.9,0,4.3,0c0.6,0,1.1,0.4,1.2,1
		c0.1,1-0.1,1.3-0.9,1.6c-0.1,0-0.1,0.1-0.2,0.1c-1.4,0-2.9,0-4.3,0C95.8,125,95.7,125,95.6,125z"/>
	<path class="st1" d="M143.9,125c-1.4,0-2.9,0-4.3,0c-0.1,0-0.2-0.1-0.4-0.1c-0.8-0.2-1-0.8-0.9-1.5c0.1-0.7,0.5-1.1,1.3-1.2
		c1.4,0,2.8,0,4.2,0c0.6,0,1.1,0.4,1.2,1c0.1,1-0.1,1.3-0.9,1.6C144,124.9,144,124.9,143.9,125z"/>
	<path class="st1" d="M81,125c-1.4,0-2.9,0-4.3,0c-0.1,0-0.1,0-0.2,0c-0.7-0.3-1.2-1-1.1-1.6c0.2-0.8,0.7-1.2,1.6-1.2
		c1.3,0,2.6,0,3.8,0c0.7,0,1.3,0.4,1.4,1.1c0.1,0.7-0.2,1.3-0.9,1.5C81.3,124.9,81.1,124.9,81,125z"/>
	<path class="st1" d="M113.8,120.5c0-0.6,0.4-0.9,1-0.9c0.8-0.1,1.4,0.1,1.6,0.9c0,1.6,0,3.2,0,4.8c-0.2,0.7-0.8,1-1.5,0.9
		c-0.6,0-1-0.3-1.1-0.9c0-0.2-0.1-0.3-0.1-0.5c0-1.3,0-2.5,0-3.8C113.7,120.8,113.8,120.7,113.8,120.5z"/>
	<path class="st1" d="M116.4,114.1c0,0.4,0,0.8,0,1.3c0,0.7-0.5,1.4-1.2,1.5c-0.7,0-1.3-0.2-1.4-1c-0.1-1.2-0.1-2.5,0-3.7
		c0.1-0.7,0.7-1,1.6-0.7c0.6,0.1,0.9,0.5,0.9,1.2C116.4,113.1,116.4,113.6,116.4,114.1z"/>
	<path class="st1" d="M116.4,149.8c0-2.5,0-4.9,0-7.4c0,0.1,0.1,0.3,0.1,0.4c0,2.2,0,4.4,0,6.5C116.5,149.5,116.4,149.7,116.4,149.8
		z"/>
	<path class="st1" d="M116.4,136.2c0-2,0-4.1,0-6.1c0.1,0.2,0.1,0.3,0.1,0.5c0,1.7,0,3.4,0,5.1C116.5,135.9,116.5,136.1,116.4,136.2
		z"/>
	<path class="st1" d="M116.4,125.3c0-1.6,0-3.2,0-4.8c0,1.2,0.1,2.3,0.1,3.5C116.5,124.4,116.4,124.9,116.4,125.3z"/>
	<path class="st1" d="M113.8,130c0,0.2-0.1,0.3-0.1,0.5C113.7,130.3,113.8,130.1,113.8,130z"/>
	<path class="st1" d="M113.7,124.8c0,0.2,0.1,0.3,0.1,0.5C113.8,125.2,113.7,125,113.7,124.8z"/>
	<path class="st1" d="M113.8,142.3c0,0.2-0.1,0.3-0.1,0.5C113.7,142.6,113.8,142.4,113.8,142.3z"/>
	<path class="st1" d="M113.7,149.5c0,0.2,0.1,0.3,0.1,0.5C113.8,149.8,113.7,149.6,113.7,149.5z"/>
	<path class="st1" d="M113.8,120.5c0,0.2-0.1,0.3-0.1,0.5C113.7,120.8,113.8,120.7,113.8,120.5z"/>
	<path class="st1" d="M146.6,153.3c0.1,0.1,0.1,0.2,0.2,0.2c-0.1,0-0.1,0.1-0.2,0.1C146.6,153.5,146.6,153.4,146.6,153.3z"/>
	<path class="st1" d="M81,125c0.1,0,0.2-0.1,0.3-0.1C81.3,124.9,81.1,124.9,81,125z"/>
	<path class="st1" d="M83.6,153.6c-0.1,0-0.1-0.1-0.2-0.1c0.1-0.1,0.1-0.2,0.2-0.2C83.6,153.4,83.6,153.5,83.6,153.6z"/>
	<path class="st1" d="M113.7,135.9c0,0.1,0.1,0.2,0.1,0.4C113.8,136.1,113.7,136,113.7,135.9z"/>
	<path class="st1" d="M75.4,129c-0.1,0-0.2,0.1-0.4,0.1C75.2,129.1,75.3,129.1,75.4,129z"/>
	<path class="st1" d="M148.9,125c0.1,0,0.2,0,0.3,0C149.1,125,149,125,148.9,125z"/>
	<path class="st1" d="M139.2,124.9c0.1,0,0.2,0.1,0.4,0.1C139.5,124.9,139.3,124.9,139.2,124.9z"/>
	<path class="st1" d="M134.3,125c0.1,0,0.2-0.1,0.3-0.1C134.5,124.9,134.4,124.9,134.3,125z"/>
	<path class="st1" d="M95.6,125c0.1,0,0.2,0,0.3,0C95.8,125,95.7,125,95.6,125z"/>
	<path class="st1" d="M86.1,125c0.1,0,0.1,0,0.2,0C86.3,125,86.2,125,86.1,125z"/>
	<path class="st1" d="M90.6,125c0.1,0,0.1-0.1,0.2-0.1C90.7,124.9,90.7,124.9,90.6,125z"/>
	<path class="st1" d="M100.2,125c0.1,0,0.1-0.1,0.2-0.1C100.3,124.9,100.3,124.9,100.2,125z"/>
	<path class="st1" d="M129.8,125c0.1,0,0.1,0,0.2,0C129.9,125,129.9,125,129.8,125z"/>
	<path class="st1" d="M153.5,122.3c-0.1,0-0.1,0-0.2-0.1C153.4,122.2,153.4,122.2,153.5,122.3z"/>
	<path class="st1" d="M143.9,125c0.1,0,0.1-0.1,0.2-0.1C144,124.9,144,124.9,143.9,125z"/>
	<path class="st1" d="M153.5,125c0.1,0,0.1-0.1,0.2-0.1C153.6,124.9,153.6,124.9,153.5,125z"/>
	<path class="st1" d="M95.3,129.2c-0.1,0-0.1-0.1-0.2-0.1C95.2,129.1,95.2,129.1,95.3,129.2z"/>
	<path class="st1" d="M134.9,129c-0.1,0-0.1,0.1-0.2,0.1C134.8,129.1,134.9,129.1,134.9,129z"/>
	<path class="st1" d="M155,129.2c-0.1,0-0.1-0.1-0.2-0.1C154.8,129.1,154.9,129.1,155,129.2z"/>
	<path class="st1" d="M121,108.6c0.1,0,0.1,0.1,0.2,0.1C121.1,108.7,121.1,108.6,121,108.6z"/>
	<path class="st1" d="M76.6,125c0.1,0,0.1,0,0.2,0C76.7,125,76.6,125,76.6,125z"/>
	<path class="st1" d="M120.6,75.6c0-0.1,0.1-0.2,0.1-0.3C120.7,75.4,120.6,75.5,120.6,75.6z"/>
	<path class="st1" d="M125.7,77.2c0,0.1-0.1,0.2-0.1,0.2c0-0.1-0.1-0.1-0.1-0.2C125.5,77.2,125.6,77.2,125.7,77.2z"/>
	<path class="st1" d="M123.5,79.4c-0.1,0-0.2,0-0.2,0c0-0.1,0-0.1,0-0.2C123.4,79.3,123.5,79.4,123.5,79.4z"/>
	<path class="st1" d="M85.1,108.4c0-0.1,0-0.2,0-0.3C85.1,108.2,85.1,108.3,85.1,108.4z"/>
	<path class="st1" d="M153.2,115.4c0,0,0.1-0.1,0.1-0.1C153.3,115.3,153.2,115.3,153.2,115.4z"/>
	<path class="st1" d="M128.8,115.2c0,0.1,0.1,0.1,0.1,0.2C128.8,115.3,128.8,115.3,128.8,115.2z"/>
	<path class="st1" d="M76.9,115.2c0,0,0.1,0.1,0.1,0.1C77,115.3,76.9,115.3,76.9,115.2z"/>
	<path class="st1" d="M142.4,108.9c0-0.1-0.1-0.1-0.1-0.2C142.3,108.8,142.3,108.8,142.4,108.9z"/>
	<path class="st1" d="M85,115.4c0-0.1,0-0.1,0.1-0.2C85,115.3,85,115.3,85,115.4z"/>
	<path class="st1" d="M87.8,115.2c0,0.1,0.1,0.1,0.1,0.2C87.9,115.3,87.9,115.3,87.8,115.2z"/>
	<path class="st1" d="M90.5,115.4c0-0.1,0-0.1,0.1-0.2C90.5,115.3,90.5,115.3,90.5,115.4z"/>
	<path class="st1" d="M87.9,108.7c0,0.1-0.1,0.1-0.1,0.2C87.9,108.8,87.9,108.8,87.9,108.7z"/>
	<path class="st1" d="M145,108.2c0,0.1,0.1,0.1,0.1,0.2C145.1,108.3,145.1,108.3,145,108.2z"/>
	<path class="st1" d="M93.2,108.2c0,0.1,0,0.1,0.1,0.2C93.3,108.3,93.2,108.3,93.2,108.2z"/>
	<path class="st1" d="M136.9,108.2c0-0.1,0-0.1,0.1-0.2C137,108.1,137,108.2,136.9,108.2z"/>
	<path class="st1" d="M93.3,115.2c0,0.1,0,0.1,0.1,0.2C93.3,115.3,93.3,115.3,93.3,115.2z"/>
	<path class="st1" d="M153.3,82.8c0,0-0.1-0.1-0.1-0.1C153.2,82.7,153.3,82.7,153.3,82.8z"/>
	<path class="st1" d="M128.9,82.7c0,0-0.1,0.1-0.1,0.1C128.8,82.8,128.9,82.7,128.9,82.7z"/>
	<path class="st1" d="M101.4,82.8c0,0-0.1-0.1-0.1-0.1C101.3,82.7,101.4,82.8,101.4,82.8z"/>
	<path class="st1" d="M101.3,115.4c0-0.1,0.1-0.1,0.1-0.2C101.4,115.3,101.4,115.3,101.3,115.4z"/>
	<path class="st1" d="M77,82.7c0,0-0.1,0.1-0.1,0.1C77,82.7,77,82.7,77,82.7z"/>
	<path class="st1" d="M126,82c0-0.1,0-0.1-0.1-0.2C126,81.9,126,81.9,126,82z"/>
	<path class="st1" d="M104.2,81.8c0,0.1,0,0.1,0,0.2C104.2,81.9,104.2,81.9,104.2,81.8C104.1,81.8,104.2,81.8,104.2,81.8z"/>
	<path class="st1" d="M80.2,79.7c0,0,0,0.1,0,0.1C80.2,79.8,80.2,79.8,80.2,79.7z"/>
	<path class="st1" d="M136.8,115.4c0-0.1,0-0.1,0.1-0.2C136.9,115.3,136.9,115.3,136.8,115.4z"/>
	<path class="st1" d="M139.7,115.2c0,0.1,0,0.1,0.1,0.2C139.7,115.3,139.7,115.3,139.7,115.2z"/>
	<path class="st1" d="M104.8,77.2C104.8,77.2,104.8,77.3,104.8,77.2c0,0.1,0,0.1,0,0.1C104.8,77.3,104.7,77.3,104.8,77.2
		C104.7,77.2,104.8,77.2,104.8,77.2z"/>
	<path class="st1" d="M109.5,75.4c0,0.1,0.1,0.1,0.1,0.2C109.6,75.5,109.5,75.5,109.5,75.4z"/>
	<path class="st1" d="M142.3,115.4c0-0.1,0.1-0.1,0.1-0.2C142.3,115.3,142.3,115.3,142.3,115.4z"/>
	<path class="st1" d="M145.1,115.2c0,0.1,0,0.1,0.1,0.2C145.2,115.3,145.2,115.3,145.1,115.2z"/>
	<path class="st1" d="M155,134.6c-3.4,0-6.8,0-10.3,0c0.2-0.1,0.4-0.1,0.6-0.1c3.1,0,6.1,0,9.2,0C154.6,134.4,154.8,134.5,155,134.6
		z"/>
	<path class="st1" d="M85.4,134.6c-3.4,0-6.8,0-10.3,0c0.2,0,0.4-0.1,0.6-0.1c3.1,0,6.1,0,9.2,0C85,134.4,85.2,134.5,85.4,134.6z"/>
	<path class="st1" d="M155,137.2c-0.1,0-0.2,0.1-0.3,0.1c-2.2,0-4.4,0-6.6,0c0.5,0,1-0.1,1.6-0.1C151.4,137.2,153.2,137.2,155,137.2
		z"/>
	<path class="st1" d="M82.2,137.3c-2.3,0-4.5,0-6.8,0c-0.1,0-0.2-0.1-0.3-0.1c2.2,0,4.4,0,6.5,0C81.8,137.2,82,137.2,82.2,137.3z"/>
	<path class="st1" d="M83.6,96.4c0.5,0,1.1,0,1.6,0c1.4,0,2.5,1.1,2.5,2.5c0,0.9-0.1,1.8,0,2.7c0.2,1.3-0.9,2.7-2.2,2.9
		c-1.3,0.2-2.8,0.1-4.1-0.1c-1.2-0.2-1.8-1.3-1.8-2.5c0-1,0-1.9,0-2.9c0-1.5,1.1-2.6,2.6-2.5C82.7,96.4,83.2,96.4,83.6,96.4z
		 M85,101.6c0-0.9,0-1.7,0-2.5c-0.9,0-1.8,0-2.6,0c0,0.9,0,1.7,0,2.5C83.3,101.6,84.1,101.6,85,101.6z"/>
	<path class="st1" d="M94.6,96.4c0.5,0,1,0,1.4,0c1.6,0,2.6,1.1,2.6,2.7c0,0.8-0.1,1.7,0,2.5c0.1,1.4-0.5,2.7-2.3,2.9
		c-1.4,0.2-2.8,0.1-4.1-0.1c-0.9-0.1-1.8-1.5-1.8-2.4c0-1,0-2,0-3c0.1-1.4,1.2-2.8,2.6-2.6C93.6,96.4,94.1,96.4,94.6,96.4z
		 M93.2,101.6c1,0,1.8,0,2.7,0c0-0.8,0-1.6,0-2.4c-0.9,0-1.8,0-2.7,0C93.2,100,93.2,100.8,93.2,101.6z"/>
	<path class="st1" d="M94.5,85.5c0.6,0,1.2,0,1.8,0c1.2,0,2.2,1,2.3,2.2c0,1.2,0,2.4,0,3.6c0,0.9-1.1,2.2-2.3,2.3
		c-1.3,0.1-2.6,0.1-3.8-0.1c-1.2-0.2-2-1.4-2-2.7c0-1.2-0.1-2.3,0.2-3.5c0.3-1.3,1.1-1.8,2.4-1.8C93.6,85.5,94,85.5,94.5,85.5z
		 M93.2,88.2c0,0.9,0,1.7,0,2.5c0.9,0,1.8,0,2.6,0c0-0.9,0-1.7,0-2.5C95,88.2,94.1,88.2,93.2,88.2z"/>
	<path class="st1" d="M79.6,89.4c0-1.1-0.2-2.2,0.7-3c0.4-0.4,1-0.7,1.5-0.8c1.2-0.1,2.3,0,3.5-0.1c1.2-0.1,2.4,1.1,2.4,2
		c0.1,1.3,0.2,2.7,0,4.1c-0.2,1.3-1.3,2-2.5,2.1c-1.1,0.1-2.2,0.2-3.3,0c-1.5-0.3-2.5-1.4-2.3-3C79.6,90.2,79.6,89.8,79.6,89.4z
		 M85,90.7c0-0.9,0-1.7,0-2.5c-0.9,0-1.8,0-2.6,0c0,0.9,0,1.7,0,2.5C83.3,90.7,84.1,90.7,85,90.7z"/>
	<path class="st1" d="M146.4,96.4c0.7,0,1.3,0,2,0c1.1,0.1,2.1,1.1,2.2,2.5c0.1,1.1,0,2.3-0.1,3.5c-0.2,1.5-1.3,2.1-2.8,2.2
		c-0.8,0.1-1.6,0-2.4,0c-1.7,0-2.8-1.1-3-2.7c-0.1-1.2,0-2.4,0.2-3.5c0.1-1,1.3-2.1,2.4-1.9C145.4,96.4,145.9,96.4,146.4,96.4
		C146.4,96.4,146.4,96.4,146.4,96.4z M147.7,101.6c0-0.9,0-1.7,0-2.5c-0.9,0-1.8,0-2.6,0c0,0.9,0,1.7,0,2.5
		C146,101.6,146.8,101.6,147.7,101.6z"/>
	<path class="st1" d="M146.5,85.5c0.4,0,0.7,0,1.1,0c1.7-0.2,2.7,0.7,2.9,2.3c0.2,1.1,0.1,2.3,0,3.4c-0.1,1.3-1,2.2-2.3,2.3
		c-1.3,0.1-2.6,0.1-3.8,0c-1.3-0.2-2-1.2-2.1-2.4c-0.1-1.2,0-2.5,0.2-3.7c0.2-1.1,1.3-2,2.4-1.8C145.4,85.5,146,85.5,146.5,85.5z
		 M145.1,88.2c0,0.9,0,1.7,0,2.5c0.9,0,1.8,0,2.6,0c0-0.9,0-1.7,0-2.5C146.8,88.2,145.9,88.2,145.1,88.2z"/>
	<path class="st1" d="M135.5,96.4c0.5,0,1,0,1.4,0c1.6,0,2.7,1,2.7,2.7c0,0.8-0.1,1.6,0,2.4c0.1,1.5-0.6,2.7-2.3,3
		c-1.3,0.2-2.7,0.1-4-0.1c-1.1-0.2-1.7-1.1-1.8-2.1c-0.2-1.2-0.2-2.5,0-3.7c0.2-1.4,1.2-2.4,2.7-2.2C134.6,96.4,135,96.4,135.5,96.4
		z M136.8,99.1c-0.9,0-1.8,0-2.7,0c0,0.9,0,1.7,0,2.5c0.9,0,1.8,0,2.7,0C136.8,100.8,136.8,100,136.8,99.1z"/>
	<path class="st1" d="M135.5,85.5c0.6,0,1.2,0,1.8,0c1.2,0,2.3,1,2.3,2.2c0,1.2,0,2.4,0,3.7c0,0.9-1.1,2.1-2.3,2.2
		c-1.3,0.1-2.6,0.1-3.8-0.1c-1.3-0.2-2-1.4-2-2.7c0-1.2,0-2.3,0.2-3.5c0.2-1.2,1.1-1.8,2.4-1.8C134.5,85.5,135,85.5,135.5,85.5z
		 M134.2,88.2c0,0.9,0,1.7,0,2.5c0.9,0,1.8,0,2.6,0c0-0.9,0-1.7,0-2.5C135.9,88.2,135.1,88.2,134.2,88.2z"/>
</g>
</svg>
