<?xml version="1.0" encoding="utf-8"?>
<!-- Generator: Adobe Illustrator 27.7.0, SVG Export Plug-In . SVG Version: 6.00 Build 0)  -->
<svg version="1.1" id="Camada_1" xmlns="http://www.w3.org/2000/svg" xmlns:xlink="http://www.w3.org/1999/xlink" x="0px" y="0px"
	 viewBox="0 0 230 230" style="enable-background:new 0 0 230 230;" xml:space="preserve">
<style type="text/css">
	.st0{fill:#989898;}
	.st1{fill:#FFFFFF;}
</style>
<circle class="st0" cx="115.1" cy="115.4" r="115"/>
<g>
	<path class="st1" d="M182.6,181.6c-1.1,1.2-2.5,1.4-4,1.3c-2.4-0.1-4.7,0-7.1,0c-1.6,0-2.3-0.7-2.4-2.3c0-0.4,0-0.9,0-1.3
		c0-16.3,0-32.5,0-48.8c0-0.5,0-1-0.1-1.4c-0.1-0.1-0.1-0.1-0.2-0.2c-0.3,0-0.6-0.1-0.9-0.1c-18.8,0-37.6,0-56.4,0
		c-0.2,0-0.4,0-0.7,0c-0.1,0.1-0.2,0.1-0.2,0.2c0,2.1,0,4.2,0,6.3c0.1,0.1,0.2,0.1,0.2,0.2c2.5,0,5,0,7.5,0c3.6,0.1,6.5,2.1,7.5,5.3
		c1.2,4-0.4,8.8-5.4,10.1c-0.6,0.1-1.1,0.3-1.7,0.4c-0.3-0.1-0.7-0.2-1-0.2c-5.7,0-11.4,0-17,0c-0.3,0-0.7,0.1-1,0.2
		c-0.1,0.2-0.4,0.5-0.4,0.7c0,4.2,0,8.3,0,12.5c0.1,0.1,0.1,0.1,0.2,0.2c3.5,0,6.9,0,10.4,0.1c4.4,0,7.9,2.4,9.1,6.1
		c1.6,4.9-0.9,10-5.9,11.4c-3.9,1.2-7.5,0-9.9-3.2c-0.3-0.4-0.9-0.7-1.4-0.7c-6.2,0-12.5,0-18.7,0c-0.4,0-1,0.3-1.3,0.7
		c-2.3,2.9-5.3,4.2-8.8,3.7c-3.5-0.6-6-2.7-7.1-6.3c-1.5-5,1.3-10.2,6.7-11.6c0.5-0.1,1,0,1.6-0.1c0.1,0,0.2,0,0.3-0.1
		c3.7,0,7.3,0,11,0c0.1-0.1,0.2-0.1,0.3-0.2c0-4.4,0-8.8,0-13.1c-0.4-0.1-0.8-0.3-1.2-0.3c-2.1,0-4.3,0-6.4,0
		c-0.6,0-1.3,0.1-1.9,0.2c-5.3-0.4-9.8-4.2-10.5-9.4c-0.1-0.5-0.1-0.9-0.2-1.4c0-0.2,0-0.4,0-0.5c0-1.9,0-3.8,0-5.6
		c0-1.8,0-3.7,0-5.6c-1.4,0-2.8,0-4.2,0c-0.1,0.1-0.1,0.1-0.2,0.2c0,0.5-0.1,1-0.1,1.4c0,16.2,0,32.4,0,48.7c0,3.1-0.6,3.7-3.7,3.7
		c-2.5,0-4.9,0-7.4,0c-1.6,0-2.4-0.7-2.4-2.3c0-20.9,0-41.9,0-62.8c0-1.7,0.7-2.4,2.5-2.4c5.1,0,10.3,0,15.4,0
		c0-0.1,0.1-0.2,0.1-0.3c0-3,0-6,0-9c0-0.3,0-0.5,0-0.8c0.7-5,3.3-8.4,8.3-9.8c0.7-0.2,1.5-0.3,2.2-0.4c0.2,0,0.4,0,0.5,0
		c7.7,0,15.3,0,23,0c0.1,0.1,0.2,0.1,0.3,0.2c5.3-0.1,9.6,4.1,10.5,8.8c0.5,2.6,0.2,5.4,0.3,8.1c0,1,0,2,0,3.1c7.7,0,15.2,0,22.9,0
		c1-3.9,2-7.9,3-11.9c0.1-0.2,0.2-0.5,0.3-0.7c0,0,0.1-0.1,0.1-0.1c0-0.1,0-0.1-0.1-0.2c-0.4-0.2-0.8-0.5-1.2-0.5
		c-4.9,0-9.9,0-14.8,0c-0.5,0-1,0-1.4-0.1c-0.2,0-0.3,0-0.5,0c-3.3-0.2-6.5-2.4-7.6-5.9c-0.3-1-0.5-2-0.5-3c0-12.2,0-24.3,0-36.5
		c0-3.5,2.6-7,5.9-8.1c0.4-0.1,0.8-0.4,1.2-0.5c19.2,0,38.3,0,57.5,0c1.5,0.9,3.3,1.5,4.5,2.7c1.3,1.3,1.9,3.1,2.9,4.7
		c0,13.2,0,26.4,0,39.6c-0.2,0.3-0.4,0.6-0.5,1c-1.2,3.4-4.4,5.9-7.9,6.1c-0.1,0-0.2,0-0.3,0c-5.9,0-11.7,0-17.7,0
		c1.1,4.6,2.2,9,3.3,13.5c6.6,0,13.3,0,19.9,0c1.4,0,2.5,0.4,3.2,1.6C182.6,138.5,182.6,160,182.6,181.6z M52.1,124.1
		c0.1,0.1,0.1,0.2,0.2,0.2c4.4,0,8.8,0,13.1,0c0-1.5,0-2.8,0-4.2c-0.1-0.1-0.1-0.1-0.2-0.2c-4.3,0-8.6,0-12.9,0
		c-0.1,0.1-0.1,0.1-0.2,0.2C52.1,121.4,52.1,122.8,52.1,124.1z M101.4,173.8c0.1-0.1,0.1-0.1,0.2-0.2c0.3-1.4,0.6-2.8,0.9-4.2
		c-1.5,0-3.2,0-4.8,0c-1.4,0-2.4-0.4-2.8-1.9c0,0,0.1-0.1,0.1-0.1c0-0.1-0.1-0.1-0.1-0.2c0-5.3,0-10.5,0-15.8c-1.6,0-2.9,0-4.3,0
		c-0.1,0.1-0.1,0.2-0.2,0.2c0,4.9,0,9.8,0,14.6c0,2.1-0.9,3-3.1,3c-1.6,0-3.1,0-4.6,0c0.3,1.5,0.5,2.8,0.8,4.2
		c0.1,0.1,0.2,0.1,0.2,0.2C89.6,173.9,95.5,173.9,101.4,173.8z M52.3,129.1c-0.1,0.1-0.1,0.1-0.2,0.2c0,0.5,0,1,0,1.4
		c0,14.8,0,29.6,0,44.5c0,1,0,1.9,0,2.9c0.1,0.1,0.1,0.1,0.2,0.2c1.3,0,2.6,0,4,0c0.1-0.1,0.2-0.1,0.2-0.2c0-0.2,0-0.4,0-0.7
		c0-15.9,0-31.8,0-47.6c0-0.2,0-0.5-0.1-0.7C55,129.1,53.7,129.1,52.3,129.1z M177.9,129.1c-1.4,0-2.8,0-4.2,0c0,0.6,0,1,0,1.5
		c0,12.4,0,24.8,0,37.2c0,3.4,0,6.8,0,10.3c0.1,0.1,0.2,0.1,0.2,0.2c1.3,0,2.6,0,4,0c0.1-0.1,0.1-0.1,0.2-0.2c0-7.4,0-14.8,0-22.2
		c0-8.9,0-17.7,0-26.6C178,129.3,178,129.2,177.9,129.1z M110.9,119.9c-0.1,0.1-0.1,0.1-0.2,0.2c0,1.4,0,2.8,0,4.2c0.4,0,0.7,0,1,0
		c21.8,0,43.5,0,65.3,0c0.3,0,0.6,0,0.9,0c0.1-0.1,0.1-0.2,0.2-0.2c0-1.3,0-2.6,0-4c-0.1-0.1-0.1-0.1-0.2-0.2c-0.5,0-1,0-1.4,0
		c-20.9,0-41.8,0-62.7,0C112.8,119.9,111.9,119.9,110.9,119.9z M173.9,97.3c0.1,0,0.2-0.1,0.3-0.1c2.2-0.4,3.9-2.2,3.7-4.3
		c-0.1-0.7,0.1-1.4,0.2-2c-0.1-0.1-0.1-0.1-0.2-0.2c-0.5,0-1,0-1.4,0c-15.3,0-30.6,0-45.9,0c-5.1,0-10.1,0-15.2,0
		c-0.1,0.1-0.2,0.1-0.2,0.2c0,0.5,0,1,0,1.6c-0.3,2.6,1.7,4.5,3.9,5c0.1,0,0.2-0.1,0.3-0.1c18.1,0,36.3,0,54.4,0
		C173.8,97.3,173.9,97.3,173.9,97.3z M99.6,99.8c-0.1,0-0.2-0.1-0.3-0.1c-7.5,0-15.1,0-22.6,0c-0.1,0-0.2,0.1-0.3,0.1
		c-1.2,0.4-2.4,0.6-3.4,1.1c-1.5,0.8-3.1,3.7-2.6,5.2c0,0.1-0.1,0.2-0.1,0.3c0,11.2,0,22.4,0,33.7c0,0.1,0.1,0.2,0.1,0.3
		c-0.1,0.2-0.2,0.4-0.2,0.6c0.9,3.2,2.9,5.7,6.5,5.8c0.4,0.1,0.8,0.2,1.3,0.2c13.3,0,26.6,0,39.8,0c0.5,0,0.9-0.1,1.4-0.2
		c2.1-0.8,2.9-2.1,2.6-3.9c-0.3-1.7-1.8-2.8-4-2.8c-2.9,0-5.7-0.1-8.6,0c-2.6,0.1-3.1-1.1-3.1-3.1c0-9.1,0-18.1,0-27.2
		c0-1.4-0.2-2.9-0.2-4.3C105.9,102.8,102.8,99.6,99.6,99.8z M177.9,86.1c0.1-0.1,0.1-0.1,0.2-0.2c0-9.5,0-19,0-28.5
		c0-0.7-0.2-1.5-0.5-2.2c-0.8-2.3-2.9-2.7-5-2.7c-17.5,0-35,0-52.5,0c-3.2,0-5.2,2.4-5.1,5.2c0.1,9.2,0,18.4,0.1,27.6
		c0,0.3,0,0.7,0.1,1.1c0.3,0,0.6,0,0.9,0c20.4,0,40.7,0,61.1,0C177.4,86.1,177.6,86.1,177.9,86.1z M141.6,101.9
		c-1.1,4.5-2.2,8.9-3.4,13.4c5.7,0,11.1,0,16.6,0c-1-4.2-2-8.4-3.1-12.6c-0.1-0.3-0.6-0.8-0.9-0.8
		C147.8,101.9,144.7,101.9,141.6,101.9z M79,174c0-2.5-2-4.5-4.4-4.5c-2.6-0.1-4.5,2.2-4.5,4.4c0,2.5,2.2,4.6,4.2,4.5
		C76.9,178.3,79,176.5,79,174z M106.1,173.7c-0.1,2.9,2.1,4.6,4.1,4.7c2.7,0.1,4.9-2.1,4.8-4.5c0-2.3-2.2-4.5-4.6-4.5
		C107.9,169.5,106.2,171.5,106.1,173.7z"/>
	<path class="st1" d="M162.6,147c1.2,0.2,1.9,0.7,1.8,2c-0.3,3.9-0.5,7.7-0.8,11.6c-0.1,1.3-0.2,2.7-0.3,4c-0.2,3.2-0.3,6.4-0.5,9.6
		c-0.1,2.2-0.3,4.3-0.5,6.5c-0.1,1.2-1,2.2-2.3,2.2c-7.6,0-15.1,0-22.7,0c-1.2,0-2.1-0.8-2.2-2.8c-0.2-3-0.3-6.1-0.5-9.1
		c-0.2-3.8-0.5-7.5-0.8-11.3c-0.3-3.5-0.6-7-0.8-10.5c-0.1-1.2,0.5-2.1,1.8-2.3C144.1,147,153.4,147,162.6,147z M159.9,151.6
		c-0.3-0.1-0.7-0.3-1-0.3c-6.7,0-13.3,0-20,0c-0.4,0-0.7,0.2-1,0.3c0.1,1.3,0.2,2.6,0.2,3.9c0.3,3.5,0.5,7.1,0.8,10.6
		c0.3,4,0.6,8,0.8,12.1c0.1,0.1,0.1,0.1,0.2,0.2c5.9,0,11.8,0,17.7,0c0.1-0.1,0.1-0.1,0.2-0.2c0.2-1.7,0.4-3.3,0.6-5
		c0.3-3.7,0.6-7.3,0.8-11c0.2-3.2,0.4-6.5,0.5-9.7C159.7,152.1,159.9,151.8,159.9,151.6z"/>
	<path class="st1" d="M162.6,147c-9.3,0-18.5,0-27.8,0c0.4-0.1,0.7-0.2,1.1-0.2c8.5,0,17.1,0,25.6,0
		C161.9,146.8,162.3,146.9,162.6,147z"/>
	<path class="st1" d="M99.8,151.4c0.3-0.1,0.7-0.2,1-0.2c5.7,0,11.4,0,17,0c0.3,0,0.7,0.1,1,0.2C112.5,151.5,106.1,151.4,99.8,151.4
		z"/>
	<path class="st1" d="M76.3,151.5c0.6-0.1,1.3-0.2,1.9-0.2c2.1,0,4.3,0,6.4,0c0.4,0,0.8,0.2,1.2,0.3
		C82.6,151.5,79.5,151.5,76.3,151.5z"/>
	<path class="st1" d="M65.6,105.4c0,0.3,0,0.5,0,0.8C65.6,105.9,65.6,105.6,65.6,105.4z"/>
	<path class="st1" d="M76.6,95.1c-0.2,0-0.4,0-0.5,0C76.2,95.1,76.4,95.1,76.6,95.1z"/>
	<path class="st1" d="M118.8,101.9c0.2,0,0.3,0,0.5,0C119.1,101.9,119,101.9,118.8,101.9z"/>
	<path class="st1" d="M65.6,140.2c0,0.2,0,0.4,0,0.5C65.6,140.5,65.6,140.3,65.6,140.2z"/>
	<path class="st1" d="M110.7,129.1c0.1-0.1,0.2-0.1,0.2-0.2C110.8,129,110.7,129,110.7,129.1z"/>
	<path class="st1" d="M168.9,128.9c0.1,0.1,0.1,0.1,0.2,0.2C169,129.1,169,129,168.9,128.9z"/>
	<path class="st1" d="M65.6,115.1c0,0.1-0.1,0.2-0.1,0.3C65.5,115.3,65.5,115.2,65.6,115.1z"/>
	<path class="st1" d="M110.9,135.6c-0.1-0.1-0.2-0.1-0.2-0.2C110.7,135.5,110.8,135.5,110.9,135.6z"/>
	<path class="st1" d="M136.8,102.5c0,0.1,0.1,0.1,0.1,0.2c0,0-0.1,0-0.1,0.1C136.8,102.6,136.8,102.5,136.8,102.5z"/>
	<path class="st1" d="M99.8,95.3c-0.1-0.1-0.2-0.1-0.3-0.2C99.6,95.2,99.7,95.3,99.8,95.3z"/>
	<path class="st1" d="M61.1,129.1c0.1-0.1,0.1-0.1,0.2-0.2C61.3,129,61.2,129.1,61.1,129.1z"/>
	<path class="st1" d="M74.5,164.9c-0.1,0-0.2,0-0.3,0.1C74.3,164.9,74.4,164.9,74.5,164.9z"/>
	<path class="st1" d="M85.8,164.7c-0.1,0.1-0.2,0.1-0.3,0.2C85.6,164.8,85.7,164.7,85.8,164.7z"/>
	<path class="st1" d="M99.6,164.8c-0.1-0.1-0.1-0.1-0.2-0.2C99.5,164.7,99.5,164.8,99.6,164.8z"/>
	<path class="st1" d="M76.6,146.8c0.9,0,1.8-0.1,2.6-0.1c13.3,0,26.6,0,39.9,0c-0.5,0.1-0.9,0.2-1.4,0.2c-13.3,0-26.6,0-39.8,0
		C77.4,147,77,146.9,76.6,146.8z"/>
	<path class="st1" d="M99.6,99.8c-0.1,0-0.2-0.1-0.3-0.1C99.3,99.7,99.5,99.7,99.6,99.8z"/>
	<path class="st1" d="M52.1,124.1c0.1,0.1,0.1,0.2,0.2,0.2C52.2,124.2,52.2,124.2,52.1,124.1z"/>
	<path class="st1" d="M177.9,124.3c0.1-0.1,0.1-0.2,0.2-0.2C178,124.2,178,124.2,177.9,124.3z"/>
	<path class="st1" d="M110.9,119.9c-0.1,0.1-0.1,0.1-0.2,0.2C110.7,120.1,110.8,120,110.9,119.9z"/>
	<path class="st1" d="M65.5,120.1c-0.1-0.1-0.1-0.1-0.2-0.2C65.3,120,65.4,120.1,65.5,120.1z"/>
	<path class="st1" d="M52.3,129.1c-0.1,0.1-0.1,0.1-0.2,0.2C52.2,129.3,52.2,129.2,52.3,129.1z"/>
	<path class="st1" d="M52.3,119.9c-0.1,0.1-0.1,0.1-0.2,0.2C52.2,120.1,52.3,120,52.3,119.9z"/>
	<path class="st1" d="M178.1,129.4c-0.1-0.1-0.1-0.1-0.2-0.2C178,129.2,178,129.3,178.1,129.4z"/>
	<path class="st1" d="M70.2,106.1c0,0.1-0.1,0.2-0.1,0.3C70.2,106.3,70.2,106.2,70.2,106.1z"/>
	<path class="st1" d="M70.1,140.1c0,0.1,0.1,0.2,0.1,0.3C70.2,140.3,70.2,140.2,70.1,140.1z"/>
	<path class="st1" d="M174.2,101.9c-0.1,0-0.2,0-0.3,0C174,101.9,174.1,101.9,174.2,101.9z"/>
	<path class="st1" d="M76.6,99.7c-0.1,0-0.2,0.1-0.3,0.1C76.4,99.8,76.5,99.7,76.6,99.7z"/>
	<path class="st1" d="M173.9,97.3c0.1,0,0.2-0.1,0.3-0.1C174.1,97.2,174,97.3,173.9,97.3z"/>
	<path class="st1" d="M119,97.4c0.1,0,0.2-0.1,0.3-0.1C119.3,97.3,119.1,97.4,119,97.4z"/>
	<path class="st1" d="M90.6,151.6c-0.1,0.1-0.1,0.2-0.2,0.2C90.4,151.7,90.5,151.6,90.6,151.6z"/>
	<path class="st1" d="M178.1,90.9c-0.1-0.1-0.1-0.1-0.2-0.2C178,90.7,178,90.8,178.1,90.9z"/>
	<path class="st1" d="M94.8,167.6c0-0.1,0-0.2,0-0.3C94.9,167.4,94.9,167.5,94.8,167.6C94.9,167.6,94.9,167.6,94.8,167.6z"/>
	<path class="st1" d="M115.4,90.7c-0.1,0.1-0.2,0.1-0.2,0.2C115.2,90.8,115.3,90.7,115.4,90.7z"/>
	<path class="st1" d="M177.9,86.1c0.1-0.1,0.1-0.1,0.2-0.2C178,85.9,178,86,177.9,86.1z"/>
	<path class="st1" d="M83.5,173.7c0.1,0.1,0.2,0.1,0.2,0.2C83.6,173.8,83.6,173.7,83.5,173.7z"/>
	<path class="st1" d="M101.4,173.8c0.1-0.1,0.1-0.1,0.2-0.2C101.5,173.7,101.4,173.8,101.4,173.8z"/>
	<path class="st1" d="M52.1,178.2c0.1,0.1,0.1,0.1,0.2,0.2C52.2,178.3,52.2,178.2,52.1,178.2z"/>
	<path class="st1" d="M56.3,178.4c0.1-0.1,0.2-0.1,0.2-0.2C56.4,178.2,56.3,178.3,56.3,178.4z"/>
	<path class="st1" d="M173.7,178.2c0.1,0.1,0.2,0.1,0.2,0.2C173.9,178.3,173.8,178.2,173.7,178.2z"/>
	<path class="st1" d="M177.9,178.4c0.1-0.1,0.1-0.1,0.2-0.2C178,178.2,178,178.3,177.9,178.4z"/>
	<path class="st1" d="M178.1,120.1c-0.1-0.1-0.1-0.1-0.2-0.2C178,120,178,120.1,178.1,120.1z"/>
	<path class="st1" d="M159.9,151.6c-7.4,0-14.7,0-22.1,0c0.3-0.1,0.7-0.3,1-0.3c6.7,0,13.3,0,20,0
		C159.2,151.3,159.6,151.5,159.9,151.6z"/>
	<path class="st1" d="M139.7,178.2c0.1,0.1,0.1,0.1,0.2,0.2C139.8,178.3,139.8,178.2,139.7,178.2z"/>
	<path class="st1" d="M157.6,178.4c0.1-0.1,0.1-0.1,0.2-0.2C157.7,178.2,157.7,178.3,157.6,178.4z"/>
	<path class="st1" d="M155,63c-5.8,5.8-11.6,11.6-17.3,17.3c-0.6,0.6-1,0.7-1.6,0c-2.6-2.5-2.6-2.5,0-5c4.9-4.9,9.8-9.7,14.6-14.6
		c0.8-0.8,1.3-0.8,2,0C153.3,61.5,154.2,62.2,155,63z"/>
	<path class="st1" d="M143.5,60.7c-3,3-6,6-8.9,8.9c-1-1-2-2-3-3c2.9-2.9,5.9-5.9,8.9-8.9C141.4,58.7,142.5,59.7,143.5,60.7z"/>
	<path class="st1" d="M159.3,71.9c-3,3-5.9,6-8.9,8.9c-1-1-2-2.1-3.1-3.3c1.3-1.3,2.7-2.7,4.2-4.1c1.2-1.2,2.5-2.4,3.7-3.7
		c0.7-0.8,1.2-0.7,1.8,0C157.8,70.4,158.6,71.1,159.3,71.9z"/>
</g>
</svg>
