<?xml version="1.0" encoding="utf-8"?>
<!-- Generator: Adobe Illustrator 27.7.0, SVG Export Plug-In . SVG Version: 6.00 Build 0)  -->
<svg version="1.1" id="Camada_1" xmlns="http://www.w3.org/2000/svg" xmlns:xlink="http://www.w3.org/1999/xlink" x="0px" y="0px"
	 viewBox="0 0 230 230" style="enable-background:new 0 0 230 230;" xml:space="preserve">
<style type="text/css">
	.st0{fill:#989898;}
	.st1{fill:#FFFFFF;}
</style>
<circle class="st0" cx="115.1" cy="115.4" r="115"/>
<g>
	<path class="st1" d="M129.4,158.4c-18.5,0-37.1,0-55.6,0c-0.6-0.6-1.1-1.1-1.7-1.7c0-12.3,0-24.7,0-37c0.7-1.4,1.9-1.7,3.4-1.7
		c27.6,0,55.1,0,82.7,0c0,12.9,0,25.8,0,38.7c-0.6,0.6-1.2,1.1-1.8,1.7c-2.8,0-5.6,0-8.4,0c0-9.6,0-19.3,0-28.9
		c0-0.9-0.2-1.7-0.9-2.3c-0.6-0.6-1.3-0.7-2.1-0.7c-4.2,0-8.4,0-12.6,0c-2.1,0-2.9,0.9-2.9,3C129.4,139.1,129.4,148.8,129.4,158.4z
		 M91.4,145C91.4,145,91.4,145,91.4,145c2.2,0,4.4,0,6.5,0c1.7,0,2.8-1.1,2.8-2.8c0-4.3,0-8.7,0-13c0-1.7-0.9-2.7-2.6-2.7
		c-4.5-0.1-9.1,0-13.6,0c-1.3,0-2.3,1.1-2.3,2.4c0,4.6,0,9.1,0,13.7c0,1.3,1.1,2.4,2.4,2.4C87,145,89.2,145,91.4,145z M105.9,135.8
		c0,2.3,0,4.5,0,6.8c0,1.4,1,2.4,2.4,2.4c4.4,0,8.8,0,13.3,0c1.7,0,2.8-1.1,2.8-2.8c0-4.3,0-8.6,0-12.9c0-1.7-1-2.8-2.8-2.8
		c-4.4,0-8.8,0-13.3,0c-1.4,0-2.4,1.1-2.4,2.4C105.9,131.2,105.9,133.5,105.9,135.8z"/>
	<path class="st1" d="M90.7,72.4c21.9,0,43.7,0,65.6,0c0.8,0.5,1.5,1.1,1.8,2c0,2.1,0,4.3,0,6.4c-1,1.6-2.5,1.7-4.2,1.7
		c-17.3,0-34.5,0-51.8,0c-0.3,0-0.6,0-0.8,0c-1.3,0.1-2.3,1.1-2.3,2.4c0,5.2,0,10.5,0,15.7c0,0.3,0,0.5,0.1,0.8
		c0.4,1.1,1.3,1.6,2.5,1.6c17.7,0,35.4,0,53.1,0c1.6,0,2.8,0.5,3.4,2c0,2.7,0,5.4,0,8.1c-23.1,0-46.1,0-69.3,0c0-0.4,0-0.6,0-0.9
		c0-12.2,0-24.4,0-36.6C88.8,74,89.3,72.9,90.7,72.4z"/>
	<path class="st1" d="M134.4,158.4c0-8.9,0-17.9,0-26.9c2.8,0,5.6,0,8.4,0c0,8.9,0,17.9,0,26.9C140,158.4,137.2,158.4,134.4,158.4z"
		/>
	<path class="st1" d="M156.3,158.4c0.6-0.6,1.2-1.1,1.8-1.7"/>
	<path class="st1" d="M104,97.9c0-3.5,0-6.9,0-10.3c16.9,0,33.8,0,50.7,0c0,3.4,0,6.8,0,10.3C137.9,97.9,121,97.9,104,97.9z"/>
	<path class="st1" d="M87.4,131.6c2.8,0,5.5,0,8.3,0c0,2.8,0,5.5,0,8.3c-2.7,0-5.5,0-8.3,0C87.4,137.2,87.4,134.4,87.4,131.6z"/>
	<path class="st1" d="M111,131.6c2.8,0,5.5,0,8.3,0c0,2.8,0,5.5,0,8.3c-2.7,0-5.5,0-8.3,0C111,137.2,111,134.4,111,131.6z"/>
</g>
</svg>
