<?xml version="1.0" encoding="utf-8"?>
<!-- Generator: Adobe Illustrator 27.7.0, SVG Export Plug-In . SVG Version: 6.00 Build 0)  -->
<svg version="1.1" id="Camada_1" xmlns="http://www.w3.org/2000/svg" xmlns:xlink="http://www.w3.org/1999/xlink" x="0px" y="0px"
	 viewBox="0 0 230 230" style="enable-background:new 0 0 230 230;" xml:space="preserve">
<style type="text/css">
	.st0{fill:#3A4A99;}
	.st1{fill:#FFFFFF;}
</style>
<circle class="st0" cx="115.1" cy="115.4" r="115"/>
<g>
	<path class="st1" d="M173.8,164.8c-0.4,0.5-0.6,1.1-1.1,1.4c-0.9,0.5-1.8,1-2.8,1c-14.7,0.1-29.3,0-44,0c-0.1,0-0.3,0-0.5-0.1
		c0-0.4,0-0.8,0-1.3c0-9.6,0-19.2,0-28.8c0-2.9-1.4-4.4-4.3-4.3c-4.1,0.1-8.3,0.1-12.4,0c-2.4-0.1-4,1.8-4,4c0.1,9.7,0,19.4,0,29.2
		c0,0.4,0,0.8,0,1.3c-0.4,0-0.7,0-1.1,0c-14.4,0-28.7,0-43.1,0c-1.4,0-2.8-0.2-3.6-1.5c-0.8-1.1-0.9-2.4-0.3-3.5
		c0.6-1.1,1.6-1.8,2.9-1.9c1.3,0,2.6,0,4,0c0-11.4,0-22.6,0-34c0.5,0,1,0,1.4,0c11.7,0,23.5,0,35.2,0c1.6,0,2.8-0.5,3.9-1.6
		c3.4-3.5,6.9-7,10.3-10.4c0.2-0.2,0.4-0.4,0.6-0.6c1.2,1.1,2.3,2.2,3.4,3.4c2.7,2.8,5.4,5.5,8.1,8.3c0.9,0.9,2.1,0.9,3.3,0.9
		c11.8,0,23.6,0,35.4,0c0.4,0,0.8,0,1.3,0c0,11.4,0,22.6,0,34c2.7,0.2,5.8-0.8,7.2,2.7C173.8,163.6,173.8,164.2,173.8,164.8z
		 M77.3,143c0,2.1,0,4.3,0,6.4c0,2.8,1.2,4,4,4c4.2,0,8.5,0,12.7,0c2.6,0,3.8-1.4,3.9-3.6c0.1-4.5,0.1-9,0-13.5
		c0-1.5-0.6-2.9-2.4-3.2c-0.9-0.2-1.9-0.3-2.8-0.3c-3.9,0-7.9,0-11.8,0c-2.3,0-3.6,1.4-3.6,3.7C77.3,138.6,77.3,140.8,77.3,143z
		 M132.3,143C132.3,143,132.3,143,132.3,143c0,2.4,0,4.8,0,7.2c0,1.4,1.5,3.2,2.9,3.2c4.8,0,9.6,0,14.4-0.1c2.1-0.1,3.2-1.5,3.3-3.6
		c0.1-4.5,0.1-9,0-13.4c0-2-1.4-3.6-3.3-3.6c-4.7-0.1-9.5-0.1-14.2,0c-1.9,0-3.1,1.6-3.1,3.4C132.3,138.5,132.3,140.7,132.3,143z"/>
	<path class="st1" d="M57.5,119.4c4-12,7.9-23.9,11.8-35.9c0.4,0,0.8,0,1.2,0c29.7,0,59.3,0,89,0c0.9,0,1.3,0.2,1.6,1.1
		c3.5,10.6,7,21.1,10.5,31.7c0.3,1,0.7,2.1,1.1,3.2c-0.5,0-0.9,0-1.3,0c-13.3,0-26.6,0-39.9,0c-0.9,0-1.5-0.3-2.1-1.1
		c-0.8-1-1.7-1.9-2.7-2.8c-3-3.1-6.1-6.1-9.2-9.2c-1.5-1.5-3.5-1.5-5,0c-2.2,2.2-4.4,4.4-6.6,6.7c-1.9,1.9-3.7,3.9-5.6,5.8
		c-0.3,0.3-0.8,0.5-1.2,0.5c-13.7,0-27.4,0-41.2,0C57.9,119.4,57.8,119.4,57.5,119.4z"/>
	<path class="st1" d="M125.5,76.5c0-3.4,0-6.6,0-9.9c0-1.4,1.5-2.9,3.1-2.9c4.8-0.1,9.5-0.1,14.3,0c1.8,0,3.2,1.5,3.2,3.4
		c0.1,3.1,0,6.3,0,9.5C139.2,76.5,132.4,76.5,125.5,76.5z"/>
	<path class="st1" d="M111.7,166.9c0-9,0-17.9,0-26.9c0.1-0.1,0.1-0.2,0.2-0.3c2.1,0,4.3,0,6.4,0c0.1,0.1,0.1,0.2,0.2,0.3
		c0,9,0,17.9,0,26.9c-0.1,0.1-0.1,0.2-0.2,0.3c-2.1,0-4.3,0-6.4,0C111.9,167,111.8,166.9,111.7,166.9z"/>
	<path class="st1" d="M111.9,139.7c-0.1,0.1-0.1,0.2-0.2,0.3C111.8,139.9,111.9,139.8,111.9,139.7z"/>
	<path class="st1" d="M118.5,140c-0.1-0.1-0.1-0.2-0.2-0.3C118.4,139.8,118.5,139.9,118.5,140z"/>
	<path class="st1" d="M111.7,166.9c0.1,0.1,0.1,0.2,0.2,0.3C111.9,167,111.8,166.9,111.7,166.9z"/>
	<path class="st1" d="M118.4,167.1c0.1-0.1,0.1-0.2,0.2-0.3C118.5,166.9,118.4,167,118.4,167.1z"/>
	<path class="st1" d="M84.2,146.2c0-2.1,0-4.1,0-6.2c0.1-0.1,0.1-0.2,0.2-0.3c2.2,0,4.4,0,6.6,0c0,2.3,0,4.5,0,6.7
		c-2.2,0-4.4,0-6.6,0C84.3,146.4,84.3,146.3,84.2,146.2z"/>
	<path class="st1" d="M84.4,139.7c-0.1,0.1-0.1,0.2-0.2,0.3C84.3,139.9,84.3,139.8,84.4,139.7z"/>
	<path class="st1" d="M84.2,146.2c0.1,0.1,0.1,0.2,0.2,0.3C84.3,146.4,84.3,146.3,84.2,146.2z"/>
	<path class="st1" d="M139.4,139.7c2.2,0,4.4,0,6.6,0c0,2.3,0,4.5,0,6.7c-2.2,0-4.4,0-6.6,0c-0.1-0.1-0.1-0.2-0.2-0.3
		c0-2.1,0-4.1,0-6.2C139.3,139.9,139.4,139.8,139.4,139.7z"/>
	<path class="st1" d="M139.4,139.7c-0.1,0.1-0.1,0.2-0.2,0.3C139.3,139.9,139.4,139.8,139.4,139.7z"/>
	<path class="st1" d="M139.3,146.2c0.1,0.1,0.1,0.2,0.2,0.3C139.4,146.4,139.3,146.3,139.3,146.2z"/>
</g>
</svg>
