<?xml version="1.0" encoding="utf-8"?>
<!-- Generator: Adobe Illustrator 27.7.0, SVG Export Plug-In . SVG Version: 6.00 Build 0)  -->
<svg version="1.1" id="Camada_1" xmlns="http://www.w3.org/2000/svg" xmlns:xlink="http://www.w3.org/1999/xlink" x="0px" y="0px"
	 viewBox="0 0 230 230" style="enable-background:new 0 0 230 230;" xml:space="preserve">
<style type="text/css">
	.st0{fill:#989898;}
	.st1{fill:#FFFFFF;}
</style>
<circle class="st0" cx="115.1" cy="115.4" r="115"/>
<g>
	<path class="st1" d="M60.9,79.1c0.6-1.3,1.1-2.7,1.8-4c1.9-3.2,5-4.6,8.6-4.9c0.4,0,0.8,0,1.2,0c28.4,0,56.8,0,85.2,0
		c3.4,0,6.4,1,8.7,3.6c1.4,1.6,2.4,3.4,2.6,5.6c0.1,1.6,0.2,3.2,0.2,4.8c0,16.6,0,33.3,0,49.9c0,3.1-0.6,5.9-2.6,8.2
		c-1.7,2.1-4,3.6-6.7,3.6c-7.9,0.2-15.8,0.2-23.8,0.2c-3.1,0-6.1,0-9.2,0c-0.3,0-0.7,0-1.1,0c0,2.4,0,4.7,0,7.2c4.8,0,9.5,0,14.4,0
		c0,2.4,0,4.8,0,7.2c-16.8,0-33.6,0-50.5,0c0-2.3,0-4.7,0-7.2c4.8,0,9.5,0,14.3,0c0-2.4,0-4.7,0-7.2c-0.4,0-0.8,0-1.2,0
		c-10.7,0-21.4,0.1-32.1,0c-4,0-7.6-2.8-9.3-6.9c-0.3-0.6-0.5-1.3-0.7-1.9C60.9,118,60.9,98.5,60.9,79.1z M115,138.9
		c14.4,0,28.7,0,43.1,0c2.3,0,4-1.9,4-4.1c0-17.8,0-35.6,0-53.3c0-2.5-1.5-4.1-4-4.1c-28.6,0-57.2,0-85.8,0c-2.4,0-4.1,1.7-4.1,4.1
		c0.1,17.8,0,35.7,0,53.5c0,0.4,0,0.8,0.1,1.1c0.5,2,1.6,2.7,3.9,2.7C86.5,138.9,100.7,138.9,115,138.9z M111.6,146.3
		c0,2.4,0,4.7,0,7c2.4,0,4.7,0,7,0c0-2.4,0-4.7,0-7C116.2,146.3,113.9,146.3,111.6,146.3z"/>
</g>
</svg>
