<?xml version="1.0" encoding="utf-8"?>
<!-- Generator: Adobe Illustrator 27.7.0, SVG Export Plug-In . SVG Version: 6.00 Build 0)  -->
<svg version="1.1" id="Camada_1" xmlns="http://www.w3.org/2000/svg" xmlns:xlink="http://www.w3.org/1999/xlink" x="0px" y="0px"
	 viewBox="0 0 230 230" style="enable-background:new 0 0 230 230;" xml:space="preserve">
<style type="text/css">
	.st0{fill:#989898;}
	.st1{fill:#FFFFFF;}
</style>
<circle class="st0" cx="115.1" cy="115.4" r="115"/>
<g>
	<path class="st1" d="M148.5,57.6c2,0.9,2.8,2.4,2.7,4.6c-0.1,17.4,0,34.8-0.1,52.3c0,0.7-0.1,1.6-0.5,2.1c-0.4,0.4-1.4,0.7-2,0.6
		c-0.7-0.2-1.1-0.9-1.1-1.8c0-17.6,0-35.1,0-52.7c0-0.4,0-0.8,0-1.3c-21.6,0-43.3,0-65,0c0,0.4,0,0.8,0,1.1c0,17.3,0,34.7,0,52
		c0,0.9,0,1.9-0.9,2.4c-0.5,0.2-1.3,0.5-1.6,0.2c-0.5-0.3-1-1-1-1.5C79,97.4,79,79.2,79,61c0-1.7,1.2-2.6,2.5-3.4
		C103.8,57.6,126.2,57.6,148.5,57.6z"/>
	<path class="st1" d="M67.7,124.5c-2.4-0.1-2.8,0-3.4,2.3c-0.3,1.1-1,1.5-2.1,1.3c-0.8-0.2-1.3-0.8-1.3-1.8
		c-0.1-2.9,2.3-5.4,5.3-5.4c32.5,0,64.9,0,97.4,0c3.2,0,5.2,1.9,5.6,5c0.1,0.9-0.7,2.1-1.6,2.2c-1.1,0.1-1.8-0.5-2-1.5
		c-0.3-1.7-1.2-2.3-3.3-2c0.4,2.2,0.7,4.3,1.1,6.5c0.4,2.5,0.8,4.9,1.2,7.4c0.4,2.5,0.9,5,1.3,7.5c0.3,1.8,0.8,3.7,0.8,5.5
		c0.1,2.6-0.2,5.2-1.4,7.5c-0.9,1.8-2,3.5-2.9,5.3c-0.2,0.3-0.3,0.7-0.3,1.1c0,1.7,0,3.5,0,5.2c0,2.1-1,2.8-2.7,2.8
		c-29.6,0-59.2,0-88.8,0c-1.7,0-2.4-0.6-2.4-2.4c0-1.2-0.1-2.5,0-3.7c0.3-2.2-0.8-3.8-1.9-5.4c-2.4-3.5-3.3-7.4-2.9-11.6
		c0.3-2.9,1-5.8,1.5-8.8c0.5-2.9,0.9-5.9,1.4-8.8c0.4-2.5,0.9-5,1.3-7.6C67.7,124.9,67.7,124.7,67.7,124.5z M158.4,166
		c-28.9,0-57.8,0-86.6,0c0,1.2,0,2.4,0,3.5c28.9,0,57.7,0,86.6,0C158.4,168.3,158.4,167.2,158.4,166z M126,124.4c0,0.5,0,0.8,0,1.2
		c0.1,3.4,0.2,6.8,0.2,10.2c0,4,0,8,0,12.1c0,0.3,0,0.7,0,1c0.1,2.6,0.2,5.2,0.1,7.8c0,1.8-0.3,3.7-0.4,5.6c2,0,3.9,0,5.8,0
		c0.6-2,1.3-4,1.6-6c0.3-2.1,0.1-4.2,0-6.3c-0.1-2.4-0.3-4.7-0.4-7.1c-0.1-1-0.1-2-0.2-3c-0.3-3.6-0.6-7.2-0.9-10.7
		c-0.1-1.6-0.3-3.2-0.5-4.8C129.5,124.4,127.8,124.4,126,124.4z M104.1,162.3c-1-12.7,0.3-25.3-0.1-37.8c-1.9,0-3.6,0-5.3,0
		c-0.3,3.5-0.7,7-1,10.5c-0.2,2.4-0.3,4.8-0.5,7.2c-0.1,1.2-0.1,2.4-0.2,3.6c-0.2,2.3-0.5,4.6-0.7,7c-0.2,3.2,1,6.2,1.9,9.2
		c0.1,0.2,0.4,0.4,0.6,0.4C100.6,162.4,102.3,162.3,104.1,162.3z M85.3,162.3c-0.4-1-0.8-2-1.2-2.9c-1.1-2.6-1.5-5.4-1.2-8.2
		c0.2-2.4,0.6-4.7,0.9-7.1c0.2-1.6,0.3-3.2,0.5-4.9c0.3-2.3,0.6-4.7,0.9-7c0.3-2.6,0.5-5.2,0.8-7.7c-1.8,0-3.7,0-5.5,0
		c-0.1,0.7-0.2,1.4-0.3,2c-0.4,2.5-0.8,4.9-1.2,7.4c-0.4,2.5-0.8,5-1.3,7.5c-0.4,2.5-0.9,5-1.3,7.6c-0.2,1.6-0.5,3.3-0.3,4.9
		c0.4,3.1,2,5.7,3.7,8.2c0.1,0.2,0.4,0.4,0.6,0.4C82,162.4,83.6,162.3,85.3,162.3z M144.3,124.4c0,0.5,0,1,0,1.4
		c0.3,2.5,0.6,4.9,0.9,7.4c0.2,1.6,0.3,3.2,0.5,4.8c0.3,2.5,0.6,4.9,0.9,7.4c0.2,1.6,0.4,3.2,0.5,4.8c0,2.1,0.1,4.3-0.2,6.4
		c-0.3,1.9-1.2,3.7-1.8,5.7c0.6,0,1.3-0.1,1.9,0c2.3,0.4,3.8-0.4,4.9-2.6c1.2-2.4,2.4-4.8,2.3-7.5c-0.1-2.6-0.6-5.2-1.1-7.8
		c-0.5-3.4-1.2-6.7-1.8-10c-0.6-3.3-1.1-6.6-1.6-9.9C147.8,124.4,146.1,124.4,144.3,124.4z M135.2,124.5c0.1,2,0.1,3.9,0.3,5.7
		c0.3,3.2,0.6,6.3,0.9,9.5c0.2,2.4,0.3,4.9,0.5,7.3c0.1,1.1,0.2,2.1,0.2,3.2c0,2.4,0.1,4.8-0.2,7.2c-0.2,1.6-0.8,3.2-1.3,4.9
		c0.8,0,1.5,0,2.1,0c1,0,2.3,0.3,3.1-0.2c0.7-0.5,0.9-1.8,1.3-2.7c1.6-3.3,1.7-6.7,1.2-10.3c-0.3-2.6-0.6-5.2-0.9-7.8
		c-0.2-1.5-0.3-3-0.5-4.5c-0.3-2.5-0.6-4.9-0.9-7.4c-0.2-1.7-0.4-3.4-0.6-5C138.7,124.5,137,124.5,135.2,124.5z M94.6,162.3
		c0-0.2-0.1-0.3-0.1-0.4c-0.6-2.1-1.4-4.3-1.6-6.4c-0.2-2.3,0-4.6,0.2-6.9c0.2-3.1,0.6-6.2,0.9-9.4c0.2-2.4,0.3-4.9,0.5-7.3
		c0.1-1.2,0.3-2.4,0.4-3.6c0.1-1.2,0.1-2.5,0.2-3.8c-1.8,0-3.5,0-5.4,0c-0.1,0.9-0.1,1.8-0.2,2.7c-0.3,2.4-0.6,4.9-0.9,7.3
		c-0.2,1.6-0.3,3.2-0.5,4.9c-0.2,1.8-0.4,3.5-0.6,5.3c-0.2,1.7-0.4,3.4-0.6,5.2c-0.2,2-0.6,4.1,0.1,6.1c0.7,2,1.4,4,2.2,6
		c0.1,0.2,0.5,0.5,0.8,0.5C91.4,162.4,92.9,162.3,94.6,162.3z M113.2,162.3c0-12.7,0-25.3,0-37.9c-1.4,0-2.8,0.1-4.2,0
		c-1.1-0.1-1.4,0.4-1.4,1.4c0,4.5-0.1,9.1-0.2,13.6c-0.1,3.9-0.2,7.7-0.2,11.6c0,2.7,0.1,5.3,0.2,8c0,1.1,0.2,2.3,0.3,3.4
		C109.6,162.3,111.4,162.3,113.2,162.3z M117,124.4c0,12.7,0,25.3,0,37.8c1.8,0,3.6,0,5.4,0c0.1-3.5,0.3-7,0.4-10.4
		c0-0.7-0.2-1.5-0.2-2.2c-0.1-7.7-0.2-15.5-0.2-23.2c0-0.7,0-1.3,0-2C120.5,124.4,118.8,124.4,117,124.4z M75.7,162.3
		c-0.2-0.3-0.2-0.4-0.3-0.6c-1.6-2.3-2.6-4.9-2.9-7.7c-0.4-3.3,0.5-6.5,1-9.7c0.4-2.5,0.9-5,1.3-7.6c0.4-2.5,0.9-5,1.3-7.5
		c0.3-1.6,0.5-3.2,0.8-4.9c-1.9,0-3.6,0-5.4,0c-0.1,0.7-0.2,1.3-0.3,2c-0.4,2.5-0.8,4.9-1.2,7.4c-0.4,2.5-0.9,5-1.3,7.6
		c-0.4,2.5-0.9,5-1.3,7.5c-0.2,1.6-0.4,3.4-0.3,5c0.3,3,2,5.5,3.6,8c0.1,0.2,0.4,0.5,0.6,0.5C72.7,162.4,74.1,162.3,75.7,162.3z
		 M153.3,124.5c0.1,0.8,0.3,1.6,0.4,2.4c0.4,2.5,0.8,4.9,1.2,7.4c0.4,2.5,0.9,5,1.3,7.4c0.4,2.6,1,5.1,1.3,7.7c0.2,2,0.2,4-0.1,5.9
		c-0.3,2.6-1.6,4.8-3,7c0.6,0,1-0.1,1.5,0c2.3,0.4,3.8-0.3,4.9-2.6c1.1-2.4,2.4-4.8,2.3-7.5c-0.1-2.6-0.6-5.2-1.1-7.8
		c-0.5-3.4-1.2-6.7-1.8-10c-0.6-3.3-1.1-6.6-1.6-9.9C156.8,124.5,155.1,124.5,153.3,124.5z"/>
	<path class="st1" d="M140.4,88.3c-7.9,0-15.6,0-23.5,0c0,0.4,0,0.8,0,1.2c0,8.3,0,16.7,0,25c0,1.7-0.8,2.7-2.1,2.6
		c-0.9-0.1-1.4-0.6-1.5-1.5c-0.1-0.4,0-0.8,0-1.2c0-14.9,0-29.8,0-44.7c0-0.4,0-0.8,0-1.3c-7.8,0-15.6,0-23.4,0c0,5.3,0,10.7,0,16.2
		c0.3,0,0.7,0,1.1,0c5.4,0,10.8,0,16.3,0c0.7,0,1.5,0.3,2,0.8c0.6,0.5,0.6,1.4,0.1,1.9c-0.4,0.4-1.1,0.8-1.6,0.8
		c-5.5,0.1-11.1,0-16.6,0c-0.4,0-0.7,0-1.3,0c0,0.4,0,0.8,0,1.2c0,8.4,0,16.8,0,25.2c0,1.6-0.7,2.5-1.9,2.5c-0.9,0-1.7-0.7-1.7-1.6
		c0-2.7,0-5.5,0-8.2c0-13.5,0-27,0-40.5c0-1.3,0.6-2,1.9-2c17.8,0,35.7,0,53.5,0c1.9,0,2.3,0.6,2.3,2.3c0.1,15.9,0,31.8,0,47.7
		c0,1.4-0.7,2.3-1.9,2.3c-1.1,0-1.7-0.7-1.7-1.8c0-7.4,0-14.7,0-22.1C140.4,91.6,140.4,90,140.4,88.3z M116.9,84.6
		c7.9,0,15.6,0,23.4,0c0-5.4,0-10.8,0-16.1c-7.8,0-15.6,0-23.4,0C116.9,73.9,116.9,79.2,116.9,84.6z"/>
</g>
</svg>
