<?xml version="1.0" encoding="utf-8"?>
<!-- Generator: Adobe Illustrator 27.7.0, SVG Export Plug-In . SVG Version: 6.00 Build 0)  -->
<svg version="1.1" id="Camada_1" xmlns="http://www.w3.org/2000/svg" xmlns:xlink="http://www.w3.org/1999/xlink" x="0px" y="0px"
	 viewBox="0 0 230 230" style="enable-background:new 0 0 230 230;" xml:space="preserve">
<style type="text/css">
	.st0{fill:#3A4A99;}
	.st1{fill:#FFFFFF;}
</style>
<circle class="st0" cx="115.1" cy="115.4" r="115"/>
<g>
	<path class="st1" d="M166.4,99.6c0.2,2-0.5,3.7-1.9,5.1c-1.7,1.7-3.3,3.6-5.3,4.9c-3.1,2-6.5,1.6-9.5-1.1
		c-4.3-3.8-9.2-6.6-14.4-8.8c-3.6-1.5-7.3-2.6-11.1-3.2c-3.3-0.5-6.7-0.6-10-0.7c-7.9-0.2-15.3,1.8-22.4,5.1
		c-4.2,2-8.1,4.6-11.6,7.7c-3.4,2.9-7.9,2.8-11-0.4c-1.5-1.6-3.2-3.1-4.4-4.9c-1.9-2.8-1.4-6.4,0.9-8.9c3.3-3.6,7.4-6.2,11.6-8.8
		c5.2-3.2,10.7-5.6,16.6-7.2c3.1-0.8,6.2-1.4,9.3-2.1c5.6-1.2,11.3-1,16.9-0.8c4.2,0.2,8.4,1,12.5,1.9c6.1,1.3,11.8,3.6,17.3,6.5
		c3.8,2,7.5,4.4,10.8,7.1c1,0.8,2,1.5,2.9,2.3C165.5,95.2,166.7,97.1,166.4,99.6z M163,99.6c0-1.6-0.1-2.1-1.3-3.1
		c-1.9-1.6-3.8-3.1-5.8-4.6c-6.1-4.4-12.8-7.6-20-9.9c-5.3-1.7-10.7-2.7-16.3-3c-4.9-0.2-9.9-0.4-14.8,0.6c-3.5,0.7-7,1.4-10.4,2.3
		c-5.3,1.5-10.3,3.7-15,6.6c-3.8,2.3-7.5,4.8-10.8,7.9c-2,1.9-1.9,4.2,0,6.2c1,1.1,2.1,2.1,3.1,3.2c2.1,2.3,4.4,1.9,6.4,0.2
		c3.1-2.7,6.5-5,10.1-6.9c5.2-2.8,10.7-4.7,16.5-5.7c3.8-0.7,7.5-1.1,11.3-0.9c3.1,0.2,6.1,0.4,9.1,0.9c4.8,0.8,9.4,2.3,13.8,4.3
		c4.9,2.2,9.4,5.1,13.5,8.7c1.6,1.3,3.2,1.6,5,0.3c1.6-1.1,2.9-2.7,4.3-4C162.7,101.8,163.2,100.8,163,99.6z"/>
	<path class="st1" d="M114.7,103.5c7.7,0.1,15.1,1.8,21.8,5.6c2.4,1.4,4.7,3.1,6.8,4.8c1.3,1.1,1.8,2.7,2,4.5
		c0.2,2.7-0.8,4.9-2.8,6.7c-1.3,1.2-2.5,2.5-3.9,3.7c-2.5,2.1-6.5,2-9.1,0.1c-3.1-2.4-6.6-3.9-10.5-4.5c-5.3-0.8-10.3-0.1-15,2.4
		c-1.1,0.6-2.2,1.3-3.3,2.1c-2.9,2.2-7.5,1.9-9.9-0.8c-1.4-1.5-3-2.8-4.3-4.4c-2.7-3.5-1.7-8.1,1.6-10.7c4.3-3.3,9-5.9,14.2-7.5
		c3-0.9,6-1.6,9.1-1.7C112.6,103.8,113.6,103.6,114.7,103.5z M111.9,107.2c0-0.1,0-0.2-0.1-0.3c-2.9,0.6-5.9,1.2-8.7,2
		c-4.7,1.3-9,3.6-12.8,6.7c-2.1,1.6-2.6,4-1,6c1.2,1.5,2.5,2.9,3.9,4.1c1.9,1.6,3.8,1.5,5.8,0c4.3-3.2,9.2-5,14.6-5.1
		c2.1,0,4.2,0.1,6.3,0.4c4.1,0.5,7.7,2.1,11,4.6c1.9,1.4,3.9,1.9,5.5,0.6c1.8-1.6,3.5-3.3,5-5.2c1.3-1.6,0.5-4-1-5.2
		c-2.9-2.2-5.9-4.1-9.3-5.5c-4.3-1.8-8.7-2.9-13.4-3C115.7,107.2,113.8,107.2,111.9,107.2z"/>
	<path class="st1" d="M115,155.3c-6.4-0.1-11.1-5.2-11.1-11.4c0-6.2,4.9-11.2,11.5-11.1c6,0.1,11.4,4.9,11.1,11.8
		C126.2,150.6,121.4,155.3,115,155.3z M107.4,144c0.1,4.4,3.7,7.8,7.3,7.9c5,0.2,8.4-3.5,8.3-7.9c0-4.4-3.2-7.6-7.7-7.8
		C110.6,136,107.3,140.2,107.4,144z"/>
</g>
</svg>
